<?xml version="1.0" standalone="no"?>
<!DOCTYPE svg PUBLIC "-//W3C//DTD SVG 1.1//EN" "http://www.w3.org/Graphics/SVG/1.1/DTD/svg11.dtd" >
<svg xmlns="http://www.w3.org/2000/svg" xmlns:xlink="http://www.w3.org/1999/xlink" version="1.1">
<metadata>
Created by FontForge 20170924 at Mon Dec  7 02:12:00 1998
 By www-data
Copyright 1990-1998 Bitstream Inc.  All rights reserved.
</metadata>
<defs>
<font id="Calligraphic421BT-RomanB" horiz-adv-x="1024" >
  <font-face 
    font-family="Calligraph421 BT"
    font-weight="400"
    font-stretch="normal"
    units-per-em="2048"
    panose-1="3 6 7 2 5 4 2 2 2 4"
    ascent="1556"
    descent="-492"
    x-height="848"
    cap-height="1509"
    bbox="-156 -483 2540 2062"
    underline-thickness="117"
    underline-position="-267"
    unicode-range="U+0020-F002"
  />
<missing-glyph horiz-adv-x="1229" 
d="M102 -362v1806h1024v-1806h-1024zM217 -248h795v1577h-795v-1577z" />
    <glyph glyph-name=".notdef" horiz-adv-x="1229" 
d="M102 -362v1806h1024v-1806h-1024zM217 -248h795v1577h-795v-1577z" />
    <glyph glyph-name=".null" horiz-adv-x="0" 
 />
    <glyph glyph-name="nonmarkingreturn" horiz-adv-x="479" 
 />
    <glyph glyph-name="space" unicode=" " horiz-adv-x="479" 
 />
    <glyph glyph-name="exclam" unicode="!" horiz-adv-x="627" 
d="M291 195q40 0 70 -33t30 -78t-30 -77t-70 -32q-41 0 -69.5 31.5t-28.5 77.5t28.5 78.5t69.5 32.5zM279 309q-18 0 -24.5 83.5t-6.5 393.5v136q0 4 1 115.5t1 215.5q0 82 28 123q3 4 5 7q15 22 40 59q48 71 66 71q14 0 19.5 -11t5.5 -54q0 -467 -44 -803t-91 -336z" />
    <glyph glyph-name="quotedbl" unicode="&#x22;" horiz-adv-x="678" 
d="M518 864h-31l-65 457q0 2 -1 6q-3 22 -3 33q0 49 22.5 75.5t63.5 26.5q40 0 62 -26t22 -74q0 -14 -0.5 -23t-1.5 -18zM190 864h-32l-64 457q-2 17 -3 26t-1 15q0 48 22 74t62 26q41 0 63.5 -26t22.5 -74q0 -9 -3 -34q-1 -5 -1 -7z" />
    <glyph glyph-name="numbersign" unicode="#" horiz-adv-x="1575" 
d="M700 868l-100 -286h289l102 286h-291zM778 1456h133l-168 -471h287l168 471h131l-166 -471h307l-40 -117h-310l-100 -286h332l-43 -115h-330l-166 -469h-133l166 469h-287l-166 -469h-131l166 469h-324l43 115h322l100 286h-348l43 117h348z" />
    <glyph glyph-name="dollar" unicode="$" horiz-adv-x="995" 
d="M412 803v393q-83 -26 -132 -84t-49 -131t47 -119.5t134 -58.5zM500 127q112 51 168.5 124t56.5 167q0 93 -56.5 144t-168.5 59v-494zM412 0q-22 -2 -48 -3t-81 -1q-68 0 -131 13.5t-76 27.5q-12 10 -22.5 73t-10.5 140q0 17 8 25t25 8q21 0 25 -35q3 -28 8 -50
q12 -56 62.5 -88t125.5 -32q30 0 58 5t57 15v535q-132 12 -203.5 83.5t-71.5 190.5q0 123 73.5 225.5t201.5 155.5v131q0 15 14.5 21t50.5 6q12 0 17.5 -4t5.5 -12v-23v-96q6 0 21 2q41 4 65 4q123 0 167 -9t44 -32q0 -50 -7.5 -75t-21.5 -25q-2 0 -73.5 17t-141.5 17
q-14 0 -27 -0.5t-26 -1.5v-415q193 -7 294 -88.5t101 -233.5q0 -156 -107 -278.5t-288 -172.5v-196q0 -17 -14 -24t-52 -7q-12 0 -17 10t-5 47v150z" />
    <glyph glyph-name="percent" unicode="%" horiz-adv-x="1810" 
d="M1368 74q98 0 153.5 66.5t55.5 185.5q0 127 -54 197.5t-151 70.5t-157 -74t-60 -194q0 -117 57.5 -184.5t155.5 -67.5zM1370 -25q-161 0 -251.5 90.5t-90.5 251.5q0 175 101 276t276 101q145 0 223 -90t78 -256t-93.5 -269.5t-242.5 -103.5zM403 756q99 0 154 66.5
t55 185.5q0 127 -54 197.5t-150 70.5q-97 0 -157.5 -74t-60.5 -194q0 -117 57.5 -184.5t155.5 -67.5zM741 1030q0 -167 -94 -271t-248 -104q-156 0 -246 91.5t-90 250.5q0 175 101 277t274 102q145 0 224 -90t79 -256zM416 16q0 18 97.5 179.5t322.5 517.5q215 340 336 514
t141 174q18 0 53 -25t35 -41t-222 -334t-397 -577l-63 -93q-242 -358 -258 -358q-14 0 -29.5 13.5t-15.5 29.5z" />
    <glyph glyph-name="ampersand" unicode="&#x26;" horiz-adv-x="1864" 
d="M723 801q84 56 125 124.5t41 153.5q0 66 -35.5 109t-89.5 43q-70 0 -111 -51.5t-41 -139.5q0 -66 28 -125.5t83 -113.5zM1169 264q-88 93 -288 208t-273 194q-84 -54 -132 -138t-48 -176q0 -123 88.5 -197.5t237.5 -74.5q122 0 228.5 47t186.5 137zM1225 207
q-110 -112 -263.5 -176t-308.5 -64q-186 0 -304 92.5t-118 237.5q0 122 86 226.5t252 185.5q-44 56 -66 124t-22 148q0 136 87 234t206 98q90 0 149.5 -65.5t59.5 -166.5q0 -92 -54 -173.5t-163 -153.5q50 -55 231 -160t287 -193q37 71 55.5 147t18.5 157q0 114 -41.5 219.5
t-126.5 208.5q-13 15 -35 35q-31 28 -31 44q0 14 30.5 56.5t82.5 101.5q67 75 114 117.5t64 42.5q12 0 20.5 -7.5t8.5 -17.5t-59.5 -69.5t-102.5 -124.5q102 -82 156.5 -205t54.5 -270q0 -120 -37.5 -243t-109.5 -241q56 -51 142 -140q154 -161 245 -161q34 0 83.5 11.5
t61.5 11.5q11 -1 15.5 -6t4.5 -17q0 -27 -119.5 -51.5t-275.5 -24.5q-78 0 -104 39q-28 38 -71.5 87t-102.5 106z" />
    <glyph glyph-name="quotesingle" unicode="'" horiz-adv-x="348" 
d="M190 864h-32l-66 457q-1 8 -1.5 16t-0.5 23q0 50 21.5 76t62.5 26t63.5 -26t22.5 -74q0 -9 -3 -34q-1 -5 -1 -7z" />
    <glyph glyph-name="parenleft" unicode="(" horiz-adv-x="621" 
d="M203 295q0 270 44 568.5t124 566.5q1 5 5 18q18 63 44 63q15 0 23 -4t8 -12q0 -4 -14.5 -59t-26.5 -105q-56 -236 -85.5 -469.5t-29.5 -437.5q0 -372 81 -671q9 -33 9 -38q0 -13 -34.5 -36t-53.5 -23q-33 0 -63.5 189.5t-30.5 449.5z" />
    <glyph glyph-name="parenright" unicode=")" horiz-adv-x="621" 
d="M418 874q0 -263 -43.5 -558t-124.5 -578q-2 -6 -5 -16q-18 -64 -44 -64q-15 0 -23 4t-8 12q0 2 14.5 54.5t26.5 107.5q57 245 87 478.5t30 430.5q0 377 -84 671q-8 29 -8 34q0 16 35 39.5t55 23.5q31 0 61.5 -189.5t30.5 -449.5z" />
    <glyph glyph-name="asterisk" unicode="*" 
d="M485 1194l-141 -90q-2 -1 -4.5 -1.5t-5.5 -0.5q-5 0 -7.5 2.5t-2.5 7.5q0 3 0.5 4t1.5 2l51 129l-98 109q-1 2 -4 4.5t-3 3.5q0 3 3.5 5.5t9.5 2.5h4l151 -20l64 145q2 6 6 10t8 4t7.5 -4t4.5 -11l37 -138l156 4q5 0 8.5 -3t3.5 -7t-1.5 -6.5t-3.5 -3.5l-132 -85l35 -155
v-4q0 -5 -3 -9t-7 -4q-3 0 -4 0.5l-3 1.5z" />
    <glyph glyph-name="plus" unicode="+" horiz-adv-x="1706" 
d="M795 1221h118v-551h539v-117h-539v-553h-118v553h-541v117h541v551z" />
    <glyph glyph-name="comma" unicode="," horiz-adv-x="516" 
d="M-92 -420q0 4 24 43q110 177 211 383q54 110 120 264q65 152 91 152t40 -39.5t14 -114.5q0 -89 -236 -433l-47 -68q-20 -30 -52 -77q-81 -122 -134 -122q-13 0 -22 3.5t-9 8.5z" />
    <glyph glyph-name="hyphen" unicode="-" horiz-adv-x="647" 
d="M522 389q-3 0 -21 1q-94 3 -192 3q-104 0 -192 -3q-12 -1 -15 -1q-10 0 -14 5.5t-4 19.5q0 80 5 97t30 17q2 0 12 1q56 1 115 1q125 0 245 -1q21 -1 25 -1q32 0 39.5 -8t7.5 -39q0 -68 -6.5 -80t-34.5 -12z" />
    <glyph glyph-name="period" unicode="." horiz-adv-x="516" 
d="M256 195q46 0 78.5 -33t32.5 -78q0 -46 -32.5 -77.5t-78.5 -31.5q-45 0 -77 32t-32 77t32 78t77 33z" />
    <glyph glyph-name="slash" unicode="/" horiz-adv-x="569" 
d="M-106 -152q0 23 104 319.5t256 696.5q29 77 79 210q166 439 191 439q29 0 73 -20.5t44 -36.5q0 -20 -368 -916l-91 -223q-142 -346 -179.5 -428t-49.5 -82q-23 0 -41 12.5t-18 28.5z" />
    <glyph glyph-name="zero" unicode="0" horiz-adv-x="1034" 
d="M518 84q131 0 204 87t73 243q0 167 -71 260.5t-198 93.5t-207.5 -98t-80.5 -256q0 -154 75 -242t205 -88zM520 -25q-201 0 -314.5 112.5t-113.5 311.5q0 220 126 346.5t345 126.5q182 0 279.5 -111t97.5 -317q0 -208 -116 -338.5t-304 -130.5z" />
    <glyph glyph-name="one" unicode="1" horiz-adv-x="717" 
d="M272 74v720q-14 0 -30.5 -0.5t-46.5 -0.5h-31h-29q-18 0 -23.5 5t-5.5 31q0 11 6 16t19 5h8q38 -2 78 -2h86q137 0 269 7q20 1 24 1q7 0 12.5 -6.5t5.5 -18.5q0 -33 -84 -34q-47 -1 -77 -2q-10 -112 -14.5 -280.5t-4.5 -434.5q30 -2 77 -5q97 -5 97 -34q0 -13 -8 -19
t-27 -6h-30q-221 0 -400 -27q-20 -3 -24 -3q-15 0 -19 7.5t-4 29.5q0 18 68 30q62 10 108 21z" />
    <glyph glyph-name="two" unicode="2" horiz-adv-x="825" 
d="M330 154h432q33 0 45 -7.5t12 -35.5v-33q0 -48 -7 -60t-42 -12q-9 0 -49 1q-166 5 -318 5q-158 0 -297 -9q-17 -1 -20 -1q-16 0 -22.5 5t-6.5 18q0 24 32 38q30 14 52 29q142 93 226 222.5t84 252.5q0 81 -40 121.5t-120 40.5q-41 0 -97 -12t-67 -12t-13.5 2t-2.5 12
q0 14 16.5 53t36.5 64q11 14 68 25t128 11q127 0 190.5 -58t63.5 -173q0 -111 -75.5 -241t-208.5 -246z" />
    <glyph glyph-name="three" unicode="3" horiz-adv-x="743" 
d="M410 365q106 -96 151 -176t45 -173q0 -160 -150.5 -278.5t-363.5 -118.5q-56 0 -84 9.5t-28 27.5q0 16 17.5 60t27.5 44q4 0 23 -9q74 -36 132 -36q123 0 192.5 60t69.5 166q0 79 -45 158t-122 134q-10 7 -26 16q-34 21 -34 36q0 12 30 29q25 13 40 24q64 47 100.5 113.5
t36.5 136.5q0 66 -43 106.5t-115 40.5q-46 0 -104.5 -14t-67.5 -14q-6 0 -9 1.5t-3 6.5q0 10 18 45.5t39 62.5q16 21 72.5 35t124.5 14q104 0 167.5 -58t63.5 -150q0 -69 -39 -144t-116 -155z" />
    <glyph glyph-name="four" unicode="4" horiz-adv-x="1034" 
d="M586 125v528q-95 -101 -193.5 -237.5t-195.5 -302.5q137 8 378 12h11zM731 2l-2 -240v-26q0 -33 -53 -73t-72 -40q-10 0 -14 13.5t-4 46.5l-3 319q-221 -2 -428 -21q-33 -4 -38 -4q-15 0 -32 29t-17 45q0 23 98 175t237 331q118 151 190 233t85 82q23 0 49.5 -15.5
t26.5 -37.5q0 -5 -2 -39q-17 -271 -17 -577v-78h217q31 0 38 -9t7 -53q0 -46 -9 -54.5t-60 -8.5z" />
    <glyph glyph-name="five" unicode="5" horiz-adv-x="809" 
d="M154 358q26 128 60.5 246t76.5 227l471 23q10 0 22 2h2q9 0 13 -6t4 -23q0 -77 -6.5 -97.5t-34.5 -20.5h-12h-13l-215 -7q-127 -3 -178.5 -43.5t-71.5 -144.5q215 -125 300 -231.5t85 -241.5q0 -182 -127.5 -301t-324.5 -119q-59 0 -97 10t-38 25q0 30 12.5 64t21.5 34
q4 0 18 -6q75 -33 157 -33q107 0 174 65.5t67 168.5q0 112 -89 211.5t-277 197.5z" />
    <glyph glyph-name="six" unicode="6" horiz-adv-x="1034" 
d="M588 854q155 -11 245.5 -121.5t90.5 -290.5q0 -203 -113 -334t-287 -131q-173 0 -283 128.5t-110 334.5q0 224 107 421.5t309 344.5q101 74 206 126t134 52q11 0 17.5 -8t6.5 -22t-60 -45.5t-112 -65.5q-215 -138 -329.5 -339.5t-114.5 -442.5q0 -182 66.5 -287.5
t179.5 -105.5q106 0 171.5 85.5t65.5 227.5q0 155 -77 249.5t-199 94.5q-30 0 -64 -7t-41 -7q-6 0 -10 4.5t-4 13.5q0 10 18 24t60 35z" />
    <glyph glyph-name="seven" unicode="7" horiz-adv-x="858" 
d="M598 688q-80 -4 -163.5 -6t-168.5 -2h-127q-51 0 -64.5 5t-13.5 28v28v56q0 34 5.5 42.5t21.5 8.5q4 0 28 -2q171 -10 365 -10q176 0 332 10q22 2 25 2q9 0 14.5 -7t5.5 -18q0 -2 -22 -32q-238 -316 -474 -795q-60 -122 -117 -264q-43 -105 -69 -105q-21 0 -29 4t-8 13
q0 72 133 391.5t326 652.5z" />
    <glyph glyph-name="eight" unicode="8" horiz-adv-x="963" 
d="M414 645q-78 -61 -116 -137.5t-38 -173.5q0 -120 65 -189t177 -69q98 0 156.5 55.5t58.5 149.5q0 97 -51.5 168t-251.5 196zM514 786q83 44 121.5 107.5t38.5 155.5q0 111 -49 173t-138 62q-80 0 -127 -54t-47 -149q0 -96 48 -166t153 -129zM360 684q-83 62 -121 140.5
t-38 187.5q0 164 90.5 264t236.5 100q124 0 193.5 -75.5t69.5 -210.5q0 -108 -46.5 -186.5t-162.5 -164.5q145 -89 201.5 -172t56.5 -200q0 -176 -106.5 -283t-280.5 -107q-154 0 -243 88.5t-89 241.5q0 125 57 213.5t182 163.5z" />
    <glyph glyph-name="nine" unicode="9" horiz-adv-x="1008" 
d="M434 -4q-139 0 -233.5 118.5t-94.5 301.5q0 195 113 325.5t277 130.5q177 0 285 -136t108 -363q0 -208 -97.5 -371.5t-283.5 -267.5q-87 -50 -211 -83.5t-201 -33.5q-20 0 -27 5.5t-8 23.5q0 22 53 33q50 9 87 20q245 70 380.5 249t135.5 433q0 182 -68.5 293.5
t-179.5 111.5q-97 0 -158 -79.5t-61 -206.5q0 -173 81 -283.5t204 -110.5q11 0 33.5 3.5t33.5 3.5q12 0 18.5 -5.5t6.5 -15.5q0 -17 -75.5 -56.5t-117.5 -39.5z" />
    <glyph glyph-name="colon" unicode=":" horiz-adv-x="516" 
d="M256 872q46 0 78.5 -32.5t32.5 -77.5q0 -46 -32.5 -77.5t-78.5 -31.5q-45 0 -77 32t-32 77t32 77.5t77 32.5zM256 195q46 0 78.5 -33t32.5 -78q0 -46 -32.5 -77.5t-78.5 -31.5q-45 0 -77 32t-32 77t32 78t77 33z" />
    <glyph glyph-name="semicolon" unicode=";" horiz-adv-x="516" 
d="M319 872q48 0 81.5 -33.5t33.5 -80.5q0 -48 -33.5 -81.5t-81.5 -33.5t-81 33t-33 82q0 47 33.5 80.5t80.5 33.5zM-92 -420q0 4 24 43q110 177 211 383q54 110 120 264q65 152 91 152t40 -39.5t14 -114.5q0 -54 -53 -151.5t-269 -409.5l-15 -22q-81 -117 -132 -117
q-13 0 -22 3.5t-9 8.5z" />
    <glyph glyph-name="less" unicode="&#x3c;" horiz-adv-x="1706" 
d="M1442 1145v-127l-1000 -408l1000 -405v-129l-1178 483v103z" />
    <glyph glyph-name="equal" unicode="=" horiz-adv-x="1706" 
d="M254 477h1198v-117h-1198v117zM254 860h1198v-117h-1198v117z" />
    <glyph glyph-name="greater" unicode="&#x3e;" horiz-adv-x="1706" 
d="M264 1145l1178 -483v-103l-1178 -483v129l1000 405l-1000 408v127z" />
    <glyph glyph-name="question" unicode="?" horiz-adv-x="848" 
d="M340 195q46 0 78.5 -33t32.5 -78q0 -46 -32.5 -77.5t-78.5 -31.5q-45 0 -77 32t-32 77t32 78t77 33zM664 1298q0 -65 -104 -311t-165 -436q-19 -62 -37 -140q-16 -73 -45 -73q-18 0 -25 8t-7 37q0 30 20 123.5t53 214.5q28 96 76 249q62 192 62 240q0 59 -34 92t-93 33
t-114.5 -14l-55.5 -14q-7 0 -10 18t-3 70v32q0 37 63 61.5t152 24.5q124 0 195.5 -57.5t71.5 -157.5z" />
    <glyph glyph-name="at" unicode="@" horiz-adv-x="2019" 
d="M1190 336q-62 -106 -139 -158.5t-170 -52.5q-125 0 -201 92t-76 244q0 108 49 216t138 193q65 64 144 100t155 36q87 0 143 -49.5t78 -145.5l53 180h143l-170 -610q0 -2 -1 -5q-17 -59 -17 -104q0 -47 25.5 -74.5t68.5 -27.5q34 0 79 17.5t85 48.5q122 90 187 231t65 315
q0 140 -50 252t-153 203q-90 79 -216 122.5t-267 43.5q-187 0 -341.5 -58.5t-275.5 -175.5q-130 -126 -197 -293.5t-67 -369.5q0 -175 57 -304.5t181 -234.5q114 -97 261 -146.5t320 -49.5q163 0 317.5 52t295.5 154l30 -36q-148 -110 -313 -166t-342 -56q-187 0 -342 46.5
t-274 138.5q-151 113 -229.5 274.5t-78.5 358.5q0 204 86 381t250 313q131 110 291 165.5t344 55.5q347 0 553.5 -187t206.5 -499q0 -157 -58 -297t-163 -236q-57 -52 -123.5 -80t-134.5 -28q-97 0 -149 52.5t-58 158.5zM1098 965q-54 0 -99 -31t-92 -100
q-72 -108 -114.5 -234t-42.5 -225q0 -93 40.5 -147t108.5 -54q66 0 126 44.5t116 133.5q57 94 91 202.5t34 197.5q0 93 -47.5 153t-120.5 60z" />
    <glyph glyph-name="A" unicode="A" horiz-adv-x="1696" 
d="M1108 676q-51 110 -112 272t-128 363q-34 -95 -126.5 -264t-227.5 -383q31 -2 65.5 -2h104.5q114 0 219.5 3.5t204.5 10.5zM1151 573q-29 0 -71.5 -1t-57.5 -1q-350 0 -478 -39t-208 -147q-91 -122 -201 -295.5t-137 -173.5q-12 0 -19.5 7t-7.5 20q0 12 130 219.5
t243 400.5q219 378 330.5 609t111.5 307q0 10 -3 22.5t-3 14.5q0 12 68.5 49t93.5 37q11 0 67 -190.5t134 -387.5q220 -562 308.5 -707t174.5 -145q24 0 50 13.5t30 13.5q6 0 14.5 -11t8.5 -20q0 -6 -45 -34t-85 -56q-37 -28 -84.5 -69.5t-60.5 -41.5q-22 0 -84.5 123
t-218.5 483z" />
    <glyph glyph-name="B" unicode="B" horiz-adv-x="1386" 
d="M449 774h22h27q217 0 326.5 82t109.5 246q0 147 -90.5 237.5t-239.5 90.5q-35 0 -68.5 -6.5t-64.5 -18.5q-11 -87 -16.5 -195.5t-5.5 -226.5v-209zM449 686v-410q0 -64 4 -92t14 -45q25 -38 96 -63t162 -25q158 0 252 81t94 216q0 166 -115 265.5t-311 99.5q-36 0 -87 -7
t-109 -20zM225 2q33 78 49.5 342t16.5 709q0 159 -2.5 227t-8.5 117q-8 0 -18 1t-12 1q-36 0 -88 -13.5t-64 -13.5q-5 0 -7.5 5t-2.5 14q0 33 41 42q12 3 19 5q142 35 273 53t241 18q225 0 339.5 -87.5t114.5 -260.5q0 -115 -63.5 -208t-178.5 -146q204 -49 303 -147.5
t99 -251.5q0 -205 -150 -321t-415 -116q-100 0 -224.5 21.5t-146.5 21.5q-17 0 -69 -6q-29 -4 -46 -6z" />
    <glyph glyph-name="C" unicode="C" horiz-adv-x="1884" 
d="M907 -29q-375 0 -583.5 187.5t-208.5 523.5q0 383 256 605t704 222q244 0 458 -58t214 -97q0 -13 -32 -73l-21 -39q-9 -18 -21 -47q-20 -46 -35 -46t-24.5 7t-9.5 18q0 2 6 22t6 37q0 86 -125.5 135t-347.5 49q-367 0 -592 -196t-225 -512q0 -286 190 -459.5t506 -173.5
q168 0 342.5 48.5t364.5 147.5q32 18 70 43t46 25q7 0 10 -6t3 -21v-16q0 -18 -4.5 -26t-26.5 -23q-195 -127 -444 -202t-476 -75z" />
    <glyph glyph-name="D" unicode="D" horiz-adv-x="1839" 
d="M471 1325q-11 -295 -16.5 -548.5t-5.5 -442.5q0 -90 8 -130t28 -57q35 -27 121 -44t199 -17q337 0 528 175t191 484t-173.5 483.5t-480.5 174.5q-118 0 -224 -21t-175 -57zM264 47q16 371 23.5 690t7.5 609q-82 -17 -115.5 -23t-40.5 -6q-8 0 -13 6.5t-5 17.5q0 27 98 48
q11 2 19 4q234 51 437.5 79.5t332.5 28.5q344 0 528 -171t184 -488q0 -156 -54 -301.5t-155 -261.5q-112 -131 -249 -194t-353 -79q-49 -3 -223.5 -3.5t-299.5 -8.5q-124 -7 -254 -25q-32 -4 -38 -4t-10 5.5t-4 15.5q0 29 89 43q57 10 95 18z" />
    <glyph glyph-name="E" unicode="E" horiz-adv-x="1286" 
d="M256 15q18 271 27.5 540t9.5 532q0 144 -6 217.5t-19 112.5q-17 0 -35 1l-18 1q-32 0 -68 -3q-9 -1 -12 -1q-18 0 -24 5.5t-7 21.5q0 18 9 25.5t35 7.5q142 5 273.5 7.5t258.5 2.5q216 0 277 -7t61 -26q0 -18 -19.5 -66.5t-31.5 -48.5q-5 0 -13.5 9t-13.5 12
q-17 10 -60.5 14t-189.5 4q-106 0 -149.5 -1.5t-73.5 -4.5q-7 -120 -10.5 -254.5t-3.5 -279.5q72 3 171.5 5.5t213.5 2.5h123q33 0 45 -4t12 -15q0 -31 -20.5 -64.5t-49.5 -33.5q-2 0 -17 1q-115 7 -249 7q-75 0 -130 -2.5t-99 -7.5q-6 -143 -8.5 -262t-2.5 -227v-99
q128 -16 239 -24.5t210 -8.5q198 0 333 31q11 2 13 2q6 0 10 -3.5t4 -8.5q0 -16 -29.5 -46t-66.5 -48q-27 -14 -185.5 -22.5t-400.5 -8.5q-95 0 -169 3.5t-144 11.5z" />
    <glyph glyph-name="F" unicode="F" horiz-adv-x="1229" 
d="M459 723q0 -7 -1 -23q-5 -211 -5 -387v-24q0 -124 13.5 -152t53.5 -28t95 13t63 13t12 -8t4 -23q0 -29 -97 -43q-60 -9 -101 -16q-120 -22 -238 -61q-25 -9 -29 -9q-7 0 -13.5 8t-6.5 17q0 1 29 28t36 90q7 68 13 358t6 663v141q0 99 -15.5 122t-87.5 23q-2 0 -11.5 1
t-16.5 1h-25q-21 0 -28 5.5t-7 19.5q1 16 8 23t23 8q2 0 16 -1q85 -3 181 -3q184 0 382.5 3t213.5 3q93 0 132.5 -6.5t39.5 -20.5q0 -10 -25.5 -66.5t-36.5 -56.5q-3 0 -16.5 10t-26.5 15q-25 9 -73 12.5t-150 3.5h-76q-88 0 -133 -2t-83 -6q-10 -124 -14.5 -242.5
t-4.5 -228.5v-67q60 5 134.5 7.5t180.5 2.5h139q87 0 115.5 -4t28.5 -13q0 -19 -24 -60.5t-44 -41.5q-3 0 -104.5 5t-200.5 5q-64 0 -120 -2t-105 -6z" />
    <glyph glyph-name="G" unicode="G" horiz-adv-x="1911" 
d="M1720 72q-209 -49 -387.5 -73t-333.5 -24q-408 0 -646 205t-238 553q0 372 241.5 575t685.5 203q176 0 346.5 -35t311.5 -100q-21 -63 -40 -147q-17 -78 -42 -78q-23 0 -26 46t-23 79q-40 62 -179 103.5t-321 41.5q-344 0 -544.5 -179.5t-200.5 -485.5
q0 -327 213.5 -506.5t603.5 -179.5q209 0 311 63.5t102 194.5q0 90 -71 157q-21 20 -21 27q0 12 85 46t122 34q27 0 41 -87t14 -253q0 -43 -1 -87.5t-3 -92.5z" />
    <glyph glyph-name="H" unicode="H" horiz-adv-x="1939" 
d="M1458 708q-176 13 -358 19t-369 6q-157 0 -204 -9.5t-60 -35.5q-13 -24 -19 -142t-6 -362q0 -64 11.5 -81t42.5 -17q7 0 20 2t19 2q4 0 8 -6t4 -14q-1 -29 -54 -37q-11 -1 -18 -2q-68 -11 -131 -37.5l-63 -26.5q-16 0 -25.5 8.5t-9.5 20.5q0 2 2 13q11 67 18 151
q13 146 19 365t6 673q0 158 -16 189.5t-64 31.5q-4 0 -12 -1t-11 -1q-13 0 -18.5 6.5t-5.5 22.5t9 23.5t30 7.5h47q160 0 305 5q21 1 25 1q13 0 17.5 -5t4.5 -18q0 -27 -44.5 -27.5t-61.5 -21.5q-27 -30 -33 -436q-1 -88 -2 -137q134 -11 253 -16t232 -5q213 0 347.5 10
t158.5 27q13 10 19 87t6 245v74q0 89 -7 117.5t-24 35.5q-20 8 -50 9.5t-30 23.5q0 17 10 24t33 7q25 0 69 -2t62 -2q68 0 135.5 4l67.5 4q18 0 24 -4.5t7 -18.5q0 -24 -43 -26.5t-58 -22.5q-18 -24 -30.5 -339t-12.5 -798q0 -108 9.5 -132.5t37.5 -24.5q5 0 18.5 2t20.5 2
q11 0 18 -6t7 -15q-1 -24 -65 -38q-25 -5 -42 -9q-54 -13 -110 -32t-62 -19q-10 0 -14 5.5t-4 23.5q0 6 3 39q19 200 19 411q0 46 -1.5 96.5t-6.5 132.5z" />
    <glyph glyph-name="I" unicode="I" horiz-adv-x="741" 
d="M446 1509q10 0 24.5 -11.5t14.5 -18.5q0 -3 -1 -10q-8 -44 -11 -91q-8 -121 -13 -362t-5 -527v-145q0 -153 9 -195.5t36 -42.5q28 0 71 16.5t56 16.5q9 0 15.5 -8.5t6.5 -21.5q0 -27 -73 -45q-45 -10 -72 -19q-91 -30 -171 -70.5t-81 -40.5q-10 0 -17.5 8.5t-7.5 20.5
q0 7 20 30.5t25 61.5q9 58 13 246t4 553q0 265 -5.5 376.5t-17.5 133.5q-7 13 -28 26.5t-21 22.5q0 17 31 25q12 3 21 6q56 19 114.5 42t62.5 23z" />
    <glyph glyph-name="J" unicode="J" horiz-adv-x="770" 
d="M465 10q-151 -181 -269.5 -301.5t-140.5 -120.5q-4 0 -8 5t-4 10q0 31 50 76t91 104q77 111 107.5 325.5t30.5 778.5q0 182 -6.5 301t-20.5 200q-42 -8 -85.5 -23t-47.5 -15q-10 0 -15 9.5t-6 26.5q0 14 52 31q39 13 65 23q23 8 63 24q120 45 130 45q22 0 34.5 -135
t12.5 -385q0 -239 -16 -566t-17 -413z" />
    <glyph glyph-name="K" unicode="K" horiz-adv-x="1503" 
d="M288 1411q-40 -5 -88 -16t-55 -11q-11 1 -14.5 8t-3.5 27q0 17 12.5 24.5t63.5 16.5q107 22 203.5 34.5t132.5 12.5q14 0 22 -8t8 -22q0 -20 -32 -30.5t-43 -31.5q-16 -34 -28.5 -322.5t-12.5 -695.5v-116q0 -138 18.5 -167.5t101.5 -29.5q11 0 22.5 1t12.5 1q13 0 18 -9
t5 -32q0 -6 -6.5 -9t-18.5 -3q-180 0 -364 -62q-36 -12 -43 -12t-12 10t-5 23q0 12 34.5 32.5t47.5 51.5q14 31 20.5 266t6.5 758v135q0 67 -0.5 104t-2.5 72zM569 778q241 230 451.5 476.5t230.5 246.5q38 0 79 2h11q18 0 24.5 -3t6.5 -9q0 -33 -181 -234t-435 -436
q181 -266 345.5 -454.5t291.5 -276.5q42 -29 92.5 -52.5t50.5 -33.5q0 -11 -8.5 -15.5t-44.5 -4.5q-96 0 -177 23.5t-145 70.5q-77 55 -232 238.5t-360 461.5z" />
    <glyph glyph-name="L" unicode="L" horiz-adv-x="1237" 
d="M263 6q14 114 21 345.5t7 602.5v199q0 209 -12 265.5t-46 56.5q-12 0 -24.5 -4.5t-13.5 -4.5q-8 0 -13.5 7.5t-5.5 19.5q0 13 46 27q24 7 38 12q67 23 127.5 56.5t65.5 33.5q8 0 19 -10.5t11 -22.5q0 -3 -1 -23q-27 -322 -27 -833q0 -159 3 -305.5t9 -280.5
q91 -18 200.5 -27t254.5 -9q157 0 278 14q15 2 17 2q6 0 11 -4t5 -8q0 -66 -158.5 -92.5t-589.5 -26.5q-63 0 -117 2.5t-105 7.5z" />
    <glyph glyph-name="M" unicode="M" horiz-adv-x="2271" 
d="M1712 1067q-214 -342 -363.5 -603t-220.5 -417q-6 -1 -13 -1.5t-19 -0.5q-13 0 -20 0.5t-13 1.5q-60 163 -176 395t-277 512q-158 -326 -286.5 -613.5t-186.5 -440.5q-8 -25 -43 -51.5t-43 -26.5q-3 0 -5.5 4t-2.5 8q0 6 44 109t81 200q187 484 269.5 712.5t82.5 264.5
q0 18 -22 60t-58 90q-29 39 -57 56t-61 17q-21 0 -48 -10t-32 -10q-11 0 -19 8t-8 19q0 26 77 58q8 3 13 5q74 30 141 63t70 33q16 0 79 -136q28 -61 46 -99q189 -403 308.5 -616t215.5 -324q195 311 328 562.5t170 375.5q-17 59 -40.5 129t-23.5 80q1 13 6.5 17.5t18.5 4.5
q4 0 57 -6.5t102 -13.5q27 -5 36 -81q6 -53 12 -89q17 -102 52 -255.5t93 -385.5q63 -244 91 -332t53 -133q32 -60 77.5 -88t45.5 -35q0 -19 -59 -40l-15 -5q-46 -16 -89.5 -41t-49.5 -25q-30 0 -105.5 260t-212.5 834z" />
    <glyph glyph-name="N" unicode="N" horiz-adv-x="2103" 
d="M543 1085q-126 -546 -305 -1117l-11 -34q-3 -11 -10 -32q-46 -148 -82 -148q-10 1 -18 8t-8 17q0 7 23 93q170 616 294 1332q-44 78 -107 146t-63 77q0 12 49.5 61.5t65.5 49.5q7 0 22.5 -16t65.5 -78q5 -1 14 -2q25 -2 33 -2q19 0 46 3t34 3q10 0 22.5 -17.5t12.5 -29.5
q0 -6 -11.5 -41.5t-15.5 -64.5q255 -294 531.5 -579t576.5 -564q15 161 23 327t8 338q0 366 -27.5 465.5t-103.5 99.5q-29 0 -62 -13t-37 -13q-8 0 -12 9t-4 26q0 22 59 44q19 7 29 11q74 28 138.5 45.5t84.5 17.5q34 0 45.5 -58t11.5 -310q0 -268 -18 -525.5t-55 -512.5
q-6 -38 -10 -87q-6 -67 -50 -67q-51 0 -256.5 194.5t-922.5 943.5z" />
    <glyph glyph-name="O" unicode="O" horiz-adv-x="1907" 
d="M967 61q274 0 444 183.5t170 480.5q0 306 -176 504t-447 198q-280 0 -458 -186.5t-178 -484.5q0 -303 182 -499t463 -196zM1788 750q0 -350 -237 -564.5t-625 -214.5q-371 0 -591 207.5t-220 554.5q0 344 237 560t615 216q373 0 597 -208t224 -551z" />
    <glyph glyph-name="P" unicode="P" horiz-adv-x="1294" 
d="M700 86q0 -28 -65 -38q-44 -7 -74 -13q-156 -33 -293 -88q-27 -10 -30 -10q-8 0 -13.5 6t-5.5 14q0 9 24 33.5t29 49.5q12 55 17.5 278t5.5 655v129q0 164 -7.5 207t-27.5 43q-42 0 -105 -28t-75 -28q-7 0 -12 7.5t-5 17.5q0 24 73 54q12 5 17 7q151 65 280 95t251 30
q244 0 382 -112.5t138 -309.5q0 -230 -168 -374t-440 -144q-43 0 -56.5 7t-13.5 32q0 23 6 28t27 5h49q187 0 291.5 106t104.5 295q0 176 -92 280.5t-246 104.5q-79 0 -132 -21.5t-59 -56.5q-9 -41 -14.5 -318t-5.5 -697v-66q0 -123 15.5 -151.5t66.5 -28.5q23 0 75.5 13.5
t75.5 13.5q7 -1 9.5 -7t2.5 -20z" />
    <glyph glyph-name="Q" unicode="Q" horiz-adv-x="1907" 
d="M1257 25q-71 -26 -152 -39t-173 -13q-377 0 -597 205t-220 555q0 344 237 560t615 216q373 0 597 -208t224 -551q0 -224 -100 -395t-289 -271q138 -118 283 -189.5t145 -95.5q0 -17 -3 -20.5t-12 -3.5q-74 0 -238.5 70t-316.5 180zM1313 160q132 93 200 237t68 330
q0 306 -176 503t-447 197q-279 0 -456.5 -186.5t-177.5 -484.5q0 -302 182 -498.5t461 -196.5q47 0 96 8t104 25q-94 83 -124.5 114.5t-30.5 43.5q0 7 52.5 43.5t59.5 36.5q8 0 68 -61t121 -111z" />
    <glyph glyph-name="R" unicode="R" horiz-adv-x="1511" 
d="M721 164q0 -13 -100 -59q-88 -40 -148 -70q-77 -39 -158.5 -91.5t-89.5 -52.5q-9 0 -17.5 13.5t-8.5 25.5q0 11 41 39t57 64q14 34 20.5 232t6.5 628v156q0 184 -7 235t-24 51q-31 0 -99 -34.5t-79 -34.5q-8 0 -12.5 11t-4.5 30q0 8 17 20t75 41q148 71 290 107t276 36
q183 0 285 -93.5t102 -262.5q0 -93 -48.5 -184t-136.5 -162q-11 -10 -31 -25q-44 -34 -44 -49q0 -24 133 -178.5t299 -300.5q105 -93 211 -155.5t106 -69.5q0 -13 -45.5 -30t-89.5 -17q-71 0 -176 72.5t-377 330.5q-163 156 -222.5 222t-59.5 87q0 16 37 31q35 15 61 29
q80 45 133 138.5t53 192.5q0 149 -73.5 243.5t-186.5 94.5q-67 0 -112.5 -33t-57.5 -92q-10 -50 -18.5 -295.5t-8.5 -574.5v-88q0 -125 11.5 -156.5t44.5 -31.5q46 0 97 25.5t54 25.5q8 0 16.5 -14.5t8.5 -26.5z" />
    <glyph glyph-name="S" unicode="S" horiz-adv-x="1278" 
d="M1108 514q0 -221 -200.5 -382t-489.5 -161q-101 0 -186.5 19t-100.5 35q-10 7 -22.5 88.5t-12.5 175.5q0 18 8.5 22t45.5 4q12 0 17 -4.5t5 -17.5v-27q0 -16 1 -25t3 -18q14 -83 67.5 -125.5t143.5 -42.5q209 0 361.5 128.5t152.5 295.5q0 102 -58 153t-193 66
q-16 2 -44 5q-153 14 -209 40q-85 42 -129.5 115.5t-44.5 175.5q0 200 166.5 338.5t411.5 138.5q89 0 146 -13.5t57 -33.5q0 -42 -8 -87.5t-17 -45.5q-8 0 -45 12q-136 46 -240 46q-146 0 -245 -80.5t-99 -194.5q0 -49 22 -89.5t64 -68.5q57 -37 221 -56q65 -8 98 -13
q186 -31 269.5 -119.5t83.5 -253.5z" />
    <glyph glyph-name="T" unicode="T" horiz-adv-x="1479" 
d="M858 1339q-10 -305 -15 -572.5t-5 -461.5q0 -123 18 -152.5t72 -29.5q18 0 48.5 5t41.5 5q8 0 10 -3t2 -19q0 -33 -52 -41q-54 -7 -99 -19q-107 -28 -201 -74q-20 -10 -23 -10q-14 0 -20 5t-6 16q0 5 10.5 40.5t13.5 65.5q10 78 14.5 270t4.5 500v92q0 210 -6.5 279
t-22.5 86t-65.5 25t-145.5 8q-113 0 -188 -11t-123 -34q-31 -15 -57 -44.5t-35 -29.5q-10 0 -15.5 8t-5.5 23q0 1 1 14t1 27q0 28 -2 66t-2 48v33q0 19 8 25t27 6q7 0 48 -1q267 -7 550 -7q365 0 742 5q76 1 92 1q18 0 24 -4t6 -17q0 -63 -51 -65h-8q-153 -7 -299 -21
t-287 -37z" />
    <glyph glyph-name="U" unicode="U" horiz-adv-x="1882" 
d="M1380 166q-34 -15 -98 -43q-339 -150 -514 -150q-126 0 -225.5 31.5t-157.5 89.5q-62 62 -88.5 145t-26.5 273v55q0 94 3 272t3 261q0 191 -20 288q-2 9 -2 11q0 14 49 27q27 7 42 12q77 24 149.5 51t74.5 27q10 0 18.5 -11.5t8.5 -25.5q0 -16 -41.5 -44t-60.5 -65
q-27 -52 -41.5 -217t-14.5 -414v-143q0 -152 14 -225t48 -121q45 -65 146 -101t237 -36q120 0 242 34.5t259 108.5q8 167 12.5 376t4.5 443q0 144 -7 202.5t-24 78.5q-3 3 -21 13.5t-18 27.5q0 18 39 26q28 7 45 13q59 20 117 45.5t61 25.5q9 0 19 -14t10 -27q0 -2 -4 -11
q-23 -62 -31 -146q-13 -166 -19.5 -394t-6.5 -528q0 -218 48 -306q5 -9 5 -11q0 -9 -9.5 -14.5t-41.5 -14.5q-53 -14 -107.5 -34.5t-58.5 -20.5q-14 0 -20.5 8t-6.5 29q0 1 4 38.5t4 75.5q0 1 1 4q1 12 1 25z" />
    <glyph glyph-name="V" unicode="V" horiz-adv-x="1616" 
d="M801 152q165 287 309.5 588t273.5 632q-43 34 -104 40.5t-61 31.5q0 20 52 22h21q121 3 230 15q17 2 20 2q15 0 24 -7t9 -18q0 -26 -76.5 -181t-304.5 -587q-263 -501 -331 -619t-83 -118q-23 0 -41.5 10.5t-33.5 32.5q-53 72 -123.5 225t-137.5 340q-130 368 -220 686
q-11 37 -13 43q-18 53 -29.5 65.5t-34.5 12.5q-29 0 -68.5 -13.5t-43.5 -13.5q-9 0 -15 8.5t-6 20.5q0 18 71 40q39 11 65 20q147 48 207.5 67t66.5 19q12 0 20.5 -11.5t8.5 -25.5q0 -10 -30 -28t-30 -48q0 -152 111.5 -510.5t296.5 -740.5z" />
    <glyph glyph-name="W" unicode="W" horiz-adv-x="2171" 
d="M621 215q230 440 365.5 737t135.5 357q0 48 -21.5 84.5t-21.5 40.5t5.5 8t13.5 4q6 0 18 -1t19 -1q80 0 157 2h15q16 0 25 -8.5t9 -24.5q0 -7 -9 -25q-34 -65 -34 -151q0 -112 54 -390t145 -607q239 477 368.5 761.5t129.5 331.5q0 49 -70 58.5t-70 27.5q0 13 6 19t19 6
q1 0 67.5 -4t131.5 -4q11 0 26 1t19 1q19 0 29 -4.5t10 -14.5q0 -38 -348 -736l-19 -38q-35 -71 -97 -197q-238 -483 -267 -483q-75 0 -205 703q-48 263 -78 419q-133 -282 -264.5 -541t-255.5 -486q-3 -5 -8 -15q-49 -90 -93 -90q-24 0 -61.5 136.5t-104.5 471.5
q-40 209 -81.5 456.5t-45.5 267.5q-9 47 -23 64t-44 17q-23 0 -50.5 -6t-29.5 -6q-6 0 -10 7t-4 19q0 20 66 37q51 13 90 25q52 15 111.5 38t68.5 23q10 0 18 -9.5t8 -20.5q0 -3 -3 -14q-17 -55 -17 -118q0 -167 54.5 -479.5t150.5 -648.5z" />
    <glyph glyph-name="X" unicode="X" horiz-adv-x="1485" 
d="M721 600q-105 -117 -279 -312q-397 -446 -422 -446q-10 0 -19 9.5t-9 19.5q0 20 136.5 190.5t524.5 630.5q-67 80 -190 262t-266 416q-29 -13 -70 -32q-46 -21 -51 -21q-9 0 -18 14.5t-9 28.5q0 11 52 32q46 18 79 33q57 26 106 55t50 29q8 0 137 -232t289 -448
q315 378 440.5 522t140.5 144q14 0 36 -60t22 -92q0 -18 -195 -219.5t-368 -402.5q147 -208 285 -370t229 -236q42 -35 87.5 -66.5t45.5 -38.5q0 -8 -16 -13t-42 -5q-101 0 -134 8.5t-66 36.5q-78 67 -204.5 208t-301.5 355z" />
    <glyph glyph-name="Y" unicode="Y" horiz-adv-x="1565" 
d="M856 547q113 208 281 525q233 439 258 439q18 0 26.5 -32t8.5 -103q0 -48 -7.5 -80t-25.5 -65q-6 -12 -63 -106q-304 -505 -607 -1039q-36 -65 -123.5 -219.5t-126.5 -224.5v-1q-19 -34 -57 -34q-11 0 -18 2.5t-7 7.5q0 24 117 252l53 106q26 51 70 135q86 164 86 197
q0 67 -79.5 235t-291.5 539l-17 30q-163 288 -243 288q-15 0 -41 -3t-37 -3q-12 0 -16 4.5t-4 21.5q0 19 11 24t67 9q121 9 241 30q25 5 29 5q5 0 158.5 -314.5t357.5 -625.5z" />
    <glyph glyph-name="Z" unicode="Z" horiz-adv-x="1669" 
d="M362 176q117 -29 265 -42t368 -13q223 0 431 9q30 1 36 1q7 0 10 -2t3 -6q0 -10 -27 -37t-62 -51q-21 -17 -173.5 -27t-393.5 -10q-181 0 -338 8.5t-301 26.5q-47 5 -59 11t-12 22q0 32 107 125q55 48 89 79q109 99 364 350t701 699v28q-24 2 -50.5 2.5t-78.5 0.5
q-406 0 -581.5 -6.5t-308.5 -20.5q-67 -7 -130 -18l-63 -11q-5 0 -7.5 5t-3.5 16q1 4 4.5 43.5t8.5 85.5q3 19 14 24t55 5h27h40q113 4 208 4q387 0 706.5 -7t354.5 -12h7q38 -2 38 -35q0 -35 -90 -112q-54 -47 -90 -80q-189 -171 -547 -534t-521 -521z" />
    <glyph glyph-name="bracketleft" unicode="[" horiz-adv-x="621" 
d="M328 1431q9 -164 13.5 -381.5t4.5 -467.5q0 -252 -4.5 -470t-13.5 -380q46 0 95 2t52 2q11 0 15 -4t4 -15v-20q-1 -10 -3.5 -13t-17.5 -3h-20h-18q-66 4 -128 4q-1 0 -7 -1q-17 -1 -32 -1h-10q-11 0 -20 8t-9 18q0 3 2 31q21 352 21 842q0 489 -21 842q-2 27 -2 30
q0 10 9 18.5t20 8.5h23q1 0 6 -1q21 -1 43 -1q37 0 79.5 2t47.5 2h16q14 0 17.5 -4t3.5 -21v-12q0 -11 -4.5 -14.5t-26.5 -4.5q-3 0 -14 1q-61 4 -121 3z" />
    <glyph glyph-name="backslash" unicode="\" horiz-adv-x="569" 
d="M43 1513q28 0 205 -470q43 -114 67 -179q151 -395 256 -693t105 -323q0 -16 -18.5 -28.5t-41.5 -12.5q-11 0 -49 82t-180 428q-263 638 -361 881t-98 258q0 16 43.5 36.5t71.5 20.5z" />
    <glyph glyph-name="bracketright" unicode="]" horiz-adv-x="621" 
d="M295 1432q-46 0 -95 -2.5t-53 -2.5q-10 0 -15 4.5t-5 14.5v20q0 9 3.5 13t16.5 4q2 0 13 -1q71 -3 153 -3q1 0 12.5 1t22.5 1h6q18 -1 27.5 -8.5t9.5 -18.5q0 -4 -1 -28q-21 -351 -21 -844q0 -494 21 -845q1 -24 1 -28q0 -9 -9 -17.5t-20 -8.5h-10h-12h-7q-22 2 -42 2
q-67 0 -132 -4h-12q-13 0 -16.5 4t-3.5 20v12q0 11 5 15t26 4q2 0 15 -1q61 -3 122 -3q-10 148 -15.5 365t-5.5 485q0 267 5.5 484.5t15.5 365.5z" />
    <glyph glyph-name="asciicircum" unicode="^" horiz-adv-x="2048" 
d="M934 1462h178l520 -565h-92l-518 436l-520 -436h-90z" />
    <glyph glyph-name="underscore" unicode="_" 
d="M0 -365h1024v-118h-1024v118z" />
    <glyph glyph-name="grave" unicode="`" 
d="M705 985q-12 0 -88 43.5t-155 100.5v0q-110 78 -110 176q0 28 9 42.5t26 14.5q8 0 76 -72t137 -137q46 -43 99 -88t53 -49q0 -10 -17.5 -20.5t-29.5 -10.5z" />
    <glyph glyph-name="a" unicode="a" horiz-adv-x="1006" 
d="M637 455q-182 -31 -286.5 -100t-104.5 -156q0 -50 34 -80.5t89 -30.5q119 0 194.5 89.5t75.5 238.5q0 6 -1 18.5t-1 20.5zM618 154q-78 -82 -174.5 -127t-191.5 -45q-87 0 -135.5 40.5t-48.5 112.5q0 132 149 230.5t418 142.5v22q0 110 -42.5 162.5t-129.5 52.5
q-55 0 -115.5 -16t-66.5 -16q-5 0 -7 4t-2 12q0 79 59.5 111t209.5 32q139 0 194.5 -62.5t55.5 -234.5q0 -53 -4.5 -139.5t-4.5 -120.5q0 -95 24.5 -148.5t78.5 -78.5q25 -11 61.5 -13.5t36.5 -27.5q0 -19 -64.5 -42t-123.5 -23q-77 0 -120.5 42.5t-56.5 129.5z" />
    <glyph glyph-name="b" unicode="b" horiz-adv-x="1028" 
d="M487 741q-109 0 -147.5 -48.5t-38.5 -254.5v-59q0 -169 53 -244.5t170 -75.5q118 0 186 83.5t68 226.5q0 166 -81.5 269t-209.5 103zM303 754q23 13 64 38q134 80 208 80q163 0 269 -117t106 -300q0 -213 -128.5 -346.5t-336.5 -133.5q-132 0 -243 41.5t-111 87.5
q0 4 2 32q21 364 21 882q0 199 -17 345q-2 16 -2 17q1 27 42 38q7 2 11 3q77 22 142 45l65 23q11 0 19 -8t8 -19q0 -8 -36 -31t-52 -61q-21 -49 -27 -400q-2 -136 -4 -216z" />
    <glyph glyph-name="c" unicode="c" horiz-adv-x="872" 
d="M473 -18q-201 0 -302 99t-101 296q0 215 122 355t310 140q87 0 177.5 -29t90.5 -48q0 -21 -27 -85.5t-36 -64.5q-7 0 -44 20q-145 80 -253 80q-100 0 -154.5 -66.5t-54.5 -189.5q0 -164 82 -262t223 -98q77 0 133 21.5t98 66.5q20 20 38.5 54t33.5 34q12 0 20.5 -7.5
t8.5 -18.5q0 -15 -33 -71t-82 -120q-49 -63 -100.5 -84.5t-149.5 -21.5z" />
    <glyph glyph-name="d" unicode="d" horiz-adv-x="1085" 
d="M731 682q-70 26 -135.5 39.5t-124.5 13.5q-130 0 -181.5 -59.5t-51.5 -210.5q0 -157 71 -242.5t201 -85.5q72 0 129 26.5t72 67.5q7 22 11.5 115t8.5 336zM715 147q-17 -14 -45 -40q-132 -119 -221 -119q-178 0 -262.5 89.5t-84.5 278.5q0 238 125.5 377t339.5 139
q30 0 84.5 -9t79.5 -11q0 80 2 172v31q0 174 -14 320q-2 20 -2 24q0 23 48 31q13 2 22 4q55 11 120 34t74 23q11 0 19 -8t8 -19q0 -13 -41 -34.5t-54 -63.5q-16 -56 -25 -323.5t-9 -700.5v-121q0 -86 6.5 -110.5t25.5 -24.5q27 0 65 11.5t46 11.5q10 0 17.5 -8t7.5 -19
q0 -23 -58 -40q-34 -10 -56 -18q-70 -24 -128.5 -52.5t-59.5 -28.5q-14 0 -27 10.5t-13 21.5q0 4 2 15q10 47 10 94q0 2 -1 10q-1 27 -1 53z" />
    <glyph glyph-name="e" unicode="e" horiz-adv-x="893" 
d="M240 455q144 14 230.5 75t86.5 146q0 48 -32 79t-83 31q-86 0 -145 -80t-59 -200q0 -12 0.5 -25t1.5 -26zM246 379q15 -130 84 -197t188 -67q87 0 149.5 28t120.5 95q10 12 25 32q22 31 35 31q11 0 18.5 -8t7.5 -19q0 -21 -40.5 -84t-106.5 -141q-41 -49 -89 -61.5
t-151 -12.5q-198 0 -304.5 105.5t-106.5 300.5q0 205 121 348t290 143q115 0 184.5 -62.5t69.5 -166.5q0 -60 -130.5 -130t-364.5 -134z" />
    <glyph glyph-name="f" unicode="f" horiz-adv-x="664" 
d="M350 739q-3 -117 -7 -321q-17 -720 -28 -756q-4 -25 -37.5 -49.5t-58.5 -24.5q-19 0 -27 216.5t-8 885.5q0 31 -9 39t-38 8h-26q-29 0 -37 4.5t-8 22.5v33q0 16 5.5 24t16.5 8h16h76q0 11 -1 31.5t-1 30.5q0 266 98.5 409.5t278.5 143.5q57 0 73.5 -6t16.5 -31
q0 -65 -7 -87t-26 -22q-11 0 -70 16.5t-93 16.5q-86 0 -96 -381q-2 -78 -3 -120l254 -1q35 0 41 -6t6 -37q0 -34 -7 -40.5t-50 -6.5h-244z" />
    <glyph glyph-name="g" unicode="g" horiz-adv-x="1042" 
d="M596 317v5q0 41 29.5 136.5t29.5 153.5q0 86 -54.5 137.5t-145.5 51.5q-90 0 -156 -70.5t-66 -169.5q0 -114 75 -191t184 -77q26 0 51.5 6t52.5 18zM604 260q-61 -51 -108 -70.5t-103 -19.5q-129 0 -218 96t-89 240q0 165 109 265.5t286 100.5q74 0 138.5 -19.5
t121.5 -59.5l234 6h16q25 0 32 -9t7 -42v-11q0 -35 -8.5 -42t-42.5 -7l-184 2q4 -18 6 -37.5t2 -42.5q0 -56 -26.5 -133t-26.5 -102q0 -39 23.5 -91.5t72.5 -119.5q16 -23 44 -61q83 -113 83 -156q0 -128 -213.5 -240.5t-493.5 -112.5q-120 0 -178.5 35.5t-58.5 106.5
q0 83 68.5 145t123.5 62q10 0 13.5 -3t3.5 -12q0 -6 -20.5 -54.5t-20.5 -86.5q0 -63 45.5 -93t142.5 -30q147 0 270 78.5t123 167.5q0 33 -74 148.5t-100 201.5z" />
    <glyph glyph-name="h" unicode="h" horiz-adv-x="1075" 
d="M313 733q119 76 199 107.5t147 31.5q123 0 184.5 -95.5t61.5 -287.5q0 -54 -4.5 -143t-13.5 -214q54 25 75.5 32.5t36.5 7.5q5 0 6.5 -1.5t2.5 -10.5v-13q0 -28 -47 -43q-49 -16 -89 -32q-61 -27 -119.5 -62t-60.5 -35q-12 0 -22.5 9.5t-10.5 19.5q1 4 10 14
q83 89 83 308q0 241 -51.5 329t-176.5 88q-50 0 -98.5 -17.5t-86.5 -50.5q-13 -12 -19.5 -36.5t-6.5 -85.5v-53v-434q0 -30 -34 -45q-5 -2 -7 -3q-42 -19 -66.5 -27.5t-33.5 -8.5q-6 0 -8 7.5t-2 26.5v27v1149q0 19 -1 42t-1 26q0 64 -10.5 82t-40.5 18q-19 0 -44 -2t-32 -2
q-12 0 -15.5 3t-3.5 13q0 28 58 40q30 7 48 11q92 23 176 54q21 8 23 8q9 0 18 -11t9 -24q0 -2 -2 -13q-31 -152 -31 -417v-287z" />
    <glyph glyph-name="i" unicode="i" horiz-adv-x="563" 
d="M377 530v-452q0 -12 -1 -23.5l-1 -11.5q0 -14 -6.5 -22.5t-22.5 -14.5q-36 -12 -76 -25.5t-41 -13.5q-8 0 -12 18t-4 91v493q0 113 -16 141.5t-58 28.5q-11 0 -28.5 -6t-22.5 -6q-11 0 -18 10t-7 27q1 15 59 30q41 10 68 19q49 16 103 37.5t61 21.5q10 0 21.5 -10
t11.5 -20q0 -4 -1 -24q-9 -139 -9 -288zM276 1401q46 0 78.5 -33t32.5 -78q0 -46 -32 -77t-79 -31q-45 0 -76.5 31.5t-31.5 76.5q0 46 31.5 78.5t76.5 32.5z" />
    <glyph glyph-name="j" unicode="j" horiz-adv-x="578" 
d="M276 1401q46 0 78.5 -33t32.5 -78q0 -46 -32 -77t-79 -31q-45 0 -76.5 31.5t-31.5 76.5q0 46 31.5 78.5t76.5 32.5zM219 201v420q0 54 -22 86t-60 32q-14 0 -32 -3t-23 -3h-10q-7 0 -11 9.5t-4 25.5q0 14 67 29q44 11 70 18q51 15 103 36t57 21q18 0 25.5 -9.5t7.5 -33.5
q0 -300 -7.5 -537.5t-17.5 -302.5q-12 -70 -48.5 -140t-98.5 -142q-50 -58 -84.5 -88.5t-48.5 -30.5q-11 0 -18 6.5t-7 16.5q0 8 32 46.5t52 74.5q41 72 59.5 183.5t18.5 285.5z" />
    <glyph glyph-name="k" unicode="k" horiz-adv-x="995" 
d="M160 33v1136q0 97 -13 184q-2 14 -2 17q1 25 49 36q27 6 45 11q55 15 108 34t56 19q8 0 14.5 -8t6.5 -18q0 -15 -27.5 -29t-37.5 -22q-26 -21 -36 -57t-10 -150v-746h43q60 0 92 18.5t66 63.5q41 56 68.5 122t27.5 95q0 20 -13.5 31.5t-35.5 11.5h-12q-17 0 -22 6.5
t-5 22.5q1 27 54 28q13 0 20 1q81 4 151 16q13 2 15 2q10 0 18 -10t8 -23q0 -32 -68 -141t-167 -219l166 -160q119 -115 224.5 -193.5t105.5 -84.5q0 -15 -27 -27t-68 -12q-83 0 -187 73t-348 322q-19 -3 -39 -4.5t-40 -1.5h-27v-311q0 -22 -5 -29.5t-21 -16.5
q-34 -16 -69 -35.5t-38 -19.5q-10 0 -14 5t-4 24q0 14 -2 33v6z" />
    <glyph glyph-name="l" unicode="l" horiz-adv-x="571" 
d="M193 367v546q0 48 -1.5 110t-1.5 79q0 140 -12 267q-2 19 -2 22q0 24 42 32q25 5 43 9q61 13 119.5 32t61.5 19q9 0 16 -9t7 -22q0 -7 -40.5 -33t-51.5 -63q-16 -52 -22.5 -227.5t-6.5 -690.5v-116q0 -143 10.5 -179.5t42.5 -36.5q26 0 57.5 10.5t32.5 10.5q9 0 16 -10
t7 -23q0 -20 -62 -39q-44 -13 -71 -24q-61 -25 -118.5 -64t-65.5 -39q-14 0 -24.5 10.5t-10.5 24.5q0 2 2 11q33 131 33 393z" />
    <glyph glyph-name="m" unicode="m" horiz-adv-x="1626" 
d="M367 664q2 -28 3 -59t1 -93q0 -170 -9 -313.5t-16 -163.5q-2 -6 -63.5 -32t-67.5 -26q-5 1 -8.5 6.5t-3.5 14.5q0 4 2 24q16 186 16 410q0 167 -36.5 241.5t-116.5 74.5q-14 0 -32 -4.5t-22 -4.5q-8 0 -13 9t-5 24q0 12 35 21q41 10 71 22q52 20 93.5 39.5t42.5 19.5
q27 0 67 -44.5t51 -100.5q128 76 209 110.5t131 34.5q61 0 110.5 -42t63.5 -109q123 75 213 113t142 38q115 0 169 -94.5t54 -298.5q0 -80 -5 -190.5t-5 -140.5q0 -20 5.5 -27.5t22.5 -7.5q29 0 62.5 8t40.5 8q8 0 13 -7t5 -18q0 -21 -57 -36q-31 -8 -52 -15
q-73 -24 -140.5 -52t-71.5 -28q-8 0 -16.5 7.5t-8.5 15.5q0 1 4 9q49 90 49 319q0 241 -49.5 325t-169.5 84q-40 0 -83 -15.5t-115 -57.5q1 -18 1.5 -37t0.5 -54v-71v-453q0 -19 -64 -43t-82 -24q-4 0 -6 4.5t-2 15.5q0 8 3 44q11 143 11 271q0 243 -43.5 331.5t-148.5 88.5
q-41 0 -85.5 -17.5t-94.5 -53.5z" />
    <glyph glyph-name="n" unicode="n" horiz-adv-x="1096" 
d="M201 12v459q0 141 -30.5 204.5t-96.5 63.5q-9 0 -22.5 -3t-18.5 -3q-10 0 -15.5 8t-5.5 23q0 10 38 23q28 9 44 16q61 25 113 60q14 9 16 9q21 0 59 -42.5t58 -100.5q101 60 200 94.5t167 34.5q113 0 163 -85.5t50 -287.5q0 -93 -5.5 -205t-5.5 -128q0 -25 9 -34t32 -9
q12 0 35.5 9t34.5 9q8 0 13 -9t5 -24q0 -21 -57 -36q-48 -13 -82 -25q-49 -19 -98.5 -44.5t-55.5 -25.5q-10 0 -17 6.5t-7 16.5q0 2 4 15q43 148 43 364q0 199 -53 291t-166 92q-51 0 -101.5 -24t-95.5 -69q0 -14 1 -58.5t1 -74.5q0 -153 -2 -283.5t-6 -220.5l-117 -41
q-1 0 -4 -1t-8 -1q-9 0 -12.5 8t-3.5 29z" />
    <glyph glyph-name="o" unicode="o" horiz-adv-x="991" 
d="M455 772q-114 0 -174 -76.5t-60 -222.5q0 -168 88.5 -280.5t216.5 -112.5q107 0 173.5 76t66.5 200q0 183 -87.5 299.5t-223.5 116.5zM512 872q187 0 295 -116t108 -318q0 -198 -130 -330.5t-324 -132.5q-182 0 -284.5 111t-102.5 307q0 216 121 347.5t317 131.5z" />
    <glyph glyph-name="p" unicode="p" horiz-adv-x="1063" 
d="M340 78q33 -18 68.5 -26.5t78.5 -8.5q136 0 213.5 100t77.5 277q0 146 -65 224.5t-187 78.5q-42 0 -83.5 -15t-84.5 -44q-6 -130 -10.5 -276.5t-7.5 -309.5zM186 -391v977q0 108 -9 137t-36 29q-9 0 -33 -6.5t-34 -6.5q-8 1 -12.5 9.5t-4.5 21.5q1 18 57 31q37 9 64 16
q47 12 99.5 33.5t60.5 21.5t23.5 -10t15.5 -18q0 -1 -2 -11q-7 -48 -8 -97l88 50q85 50 126 67t68 17q119 0 212 -120.5t93 -294.5q0 -218 -127 -348t-338 -130q-33 0 -70.5 5.5t-80.5 15.5v-340l-127 -74l-7.5 -3t-4.5 -1q-7 0 -9.5 5.5t-3.5 23.5z" />
    <glyph glyph-name="q" unicode="q" horiz-adv-x="1034" 
d="M717 219l-6 333q-2 109 -59 165.5t-165 56.5q-112 0 -173.5 -81t-61.5 -228q0 -152 67.5 -243t180.5 -91q59 0 114 22.5t103 65.5zM717 141l-209 -139q-27 -19 -45 -25t-41 -6q-139 0 -229.5 109.5t-90.5 284.5q0 236 127.5 371.5t350.5 135.5q118 0 208.5 -26.5
t90.5 -61.5q0 -5 -1 -21t-1 -26l-23 -1026v-35q0 -16 -62 -51t-73 -35q-5 1 -6.5 8t-1.5 25z" />
    <glyph glyph-name="r" unicode="r" horiz-adv-x="688" 
d="M358 676q68 88 144 142t123 54h8q7 0 8.5 -5t1.5 -21v-115q0 -45 -48 -46q-32 -1 -57 -3q-103 -9 -138.5 -41.5t-43.5 -174.5q-6 -117 -10.5 -266t-9.5 -157q-5 -9 -67.5 -42.5t-71.5 -33.5q-6 0 -7 3t-2 14q0 2 2 20q11 165 11 381v104q0 150 -12.5 188t-49.5 38
q-31 0 -68 -15.5t-40 -15.5q-8 0 -13.5 9t-5.5 24q0 18 53 36q30 10 48 17q75 29 146 65.5t73 36.5q15 0 21.5 -3.5t6.5 -12.5l-2 -29t-2 -57q0 -37 0.5 -57t1.5 -37z" />
    <glyph glyph-name="s" unicode="s" horiz-adv-x="901" 
d="M365 -25q-82 0 -157 11t-108 24q-15 6 -20.5 20t-5.5 70v29q0 72 6.5 89.5t28.5 17.5q15 -1 21.5 -6.5t6.5 -16.5v-14q0 -76 47.5 -114t141.5 -38q134 0 229.5 65t95.5 148q0 44 -30 65t-93 21h-102q-143 0 -206.5 48.5t-63.5 156.5q0 137 98 228t250 91
q78 0 142.5 -17.5t64.5 -35.5q0 -29 -14 -63.5t-27 -34.5q-8 0 -35 11q-97 40 -191 40q-80 0 -128 -37.5t-48 -99.5q0 -60 43 -86.5t197 -36.5q181 -14 244 -63.5t63 -157.5q0 -141 -123.5 -227.5t-326.5 -86.5z" />
    <glyph glyph-name="t" unicode="t" horiz-adv-x="764" 
d="M174 76q1 89 1.5 175t0.5 191q0 63 -0.5 134t-1.5 149h-57q-13 0 -16.5 3.5t-4.5 16.5q1 21 18 34q6 5 8 7l232 209q16 16 23 20.5t14 4.5t13 -5.5t6 -13.5q0 -3 -10 -24q-35 -74 -44 -148h301q14 0 19.5 -10t5.5 -35q0 -30 -7 -37.5t-46 -7.5h-285q-7 -88 -10.5 -170.5
t-3.5 -156.5q0 -178 49.5 -255t161.5 -77q58 0 121 25.5t67 25.5t7 -4.5t3 -9.5v-15q0 -39 -106 -82t-205 -43q-78 0 -145 26t-109 73z" />
    <glyph glyph-name="u" unicode="u" horiz-adv-x="1065" 
d="M743 127q-71 -35 -177 -90q-125 -66 -150 -66q-144 0 -210.5 92t-66.5 293q0 49 4 162.5t4 177.5q0 14 -4 42.5t-4 43.5q0 8 35 19q28 9 47 16q44 16 89.5 35.5t49.5 19.5q15 0 24 -6.5t9 -17.5q0 -12 -21.5 -34t-31.5 -40q-24 -41 -34.5 -109t-10.5 -206
q0 -191 46.5 -267.5t158.5 -76.5q41 0 106.5 19t141.5 54v439q0 117 -47 141q-9 4 -9 8q0 32 24 38q7 1 13 3q44 16 94 41t58 25q13 0 30 -16t17 -27q0 -1 -2 -9q-14 -52 -19 -127q-4 -69 -6 -182.5t-2 -251.5q0 -107 7 -205q1 -15 1 -18q0 -23 -69 -60.5t-86 -37.5
q-6 0 -8.5 8.5t-2.5 28.5v30q0 22 0.5 50t1.5 61z" />
    <glyph glyph-name="v" unicode="v" horiz-adv-x="1034" 
d="M135 735q-50 -19 -79 -28t-40 -9q-6 0 -10 9t-4 24q0 24 54 41q28 8 46 14q76 26 148 56t76 30q10 0 17 -12t7 -31q0 -3 -9 -10q-36 -25 -36 -78q0 -86 60.5 -272.5t158.5 -368.5q138 224 222.5 401t84.5 232q0 26 -18 36.5t-68 10.5q-11 0 -26.5 -2t-18.5 -2q-6 0 -9 7
t-3 20q0 18 5.5 25.5t23.5 7.5h6h33q100 0 210 16q24 4 29 4q8 0 15.5 -9.5t7.5 -19.5q0 -38 -86.5 -194t-298.5 -498q-37 -59 -59.5 -93.5t-26.5 -37.5q-12 -7 -57.5 -22t-55.5 -15q-46 0 -136.5 224.5t-162.5 543.5z" />
    <glyph glyph-name="w" unicode="w" horiz-adv-x="1548" 
d="M770 432q-180 -313 -246.5 -390t-124.5 -77q-31 0 -104.5 225t-136.5 545q-7 -2 -20 -6q-78 -27 -101 -27q-5 1 -6.5 5t-1.5 14q0 23 2 28.5t59 24.5q93 30 180 63t90 33q11 0 18 -10.5t7 -25.5q0 -11 -25.5 -31t-25.5 -53q0 -119 41 -285.5t114 -333.5
q71 95 133.5 199.5t116.5 218.5q-27 105 -43 178t-16 88q0 13 3 17t15 4q5 0 22 -2.5t30 -2.5q92 0 162 11q10 2 12 2q7 0 12.5 -9.5t5.5 -23.5q0 -17 -30.5 -31t-30.5 -45q0 -116 46 -283t128 -335q137 219 221 394t84 232q0 17 -13 24t-49 7q-17 0 -36.5 -4t-22.5 -4
q-7 0 -12.5 8.5t-5.5 18.5q0 20 5.5 27t24.5 9q90 10 163 16.5t79 6.5q19 0 30 -12t11 -33q0 -31 -202 -369q-145 -241 -236 -397q-19 -34 -63 -55t-75 -21q-18 0 -71 130.5t-117 336.5z" />
    <glyph glyph-name="x" unicode="x" horiz-adv-x="1083" 
d="M551 340q-232 -203 -402 -337t-192 -134q-11 0 -25 11t-14 20t195 173t376 339q-69 90 -131 176t-118 169q-20 -8 -53 -22q-77 -35 -85 -35q-12 0 -20 10.5t-8 24.5q0 17 63 41q38 14 64 25q45 19 101.5 45t64.5 26q4 0 75 -118.5t162 -237.5q130 116 237.5 237
t110.5 121q13 0 18 -25.5t5 -115.5q0 -27 -129 -138q-109 -92 -180 -159q132 -162 265.5 -291t133.5 -131q0 -6 -13 -11t-32 -5q-5 0 -28 -1t-42 -1h-55q-42 0 -268 257q-49 56 -76 87z" />
    <glyph glyph-name="y" unicode="y" horiz-adv-x="1038" 
d="M412 152l-230 475q-29 58 -51 77t-55 19q-24 0 -51 -11.5t-33 -11.5q-9 0 -18 13t-9 24q0 14 44 29q33 11 56 20q59 24 120.5 51t66.5 27q12 0 31 -46q8 -20 14 -34l264 -587l344 591q14 24 31 57q23 44 37 44q12 0 18 -12.5t6 -36.5q0 -4 1 -30t1 -50q0 -65 -28 -108
q-10 -15 -17 -25l-635 -994q-16 -24 -29.5 -31.5t-51.5 -7.5q-10 1 -14 3.5t-5 9.5q0 6 4.5 15.5t15.5 26.5l171 290l4 7q39 68 39 93q0 28 -35 99q-4 9 -6 14z" />
    <glyph glyph-name="z" unicode="z" horiz-adv-x="985" 
d="M281 152q95 -21 193.5 -30t242.5 -9q61 0 121 6t61 6q11 0 16 -4t5 -12t-19 -41t-30 -43q-14 -12 -139.5 -21.5t-299.5 -9.5q-186 0 -283.5 14.5t-97.5 42.5q0 20 43 56q22 18 36 31l618 587q-7 0 -21 1q-109 3 -152 3q-293 0 -426 -31q-8 -2 -10 -2q-10 0 -14 14.5
t-4 49.5q0 44 2 56t9 16q12 7 102 11.5t247 4.5h224h131q67 0 82.5 -7.5t15.5 -37.5q0 -19 -34 -51q-16 -15 -26 -25z" />
    <glyph glyph-name="braceleft" unicode="{" 
d="M846 1516v-51q-142 -2 -194 -55.5t-52 -209.5v-143q0 -226 -61 -308.5t-226 -113.5q165 -31 226 -113.5t61 -308.5v-143q0 -156 51.5 -208.5t194.5 -54.5v-51h-10q-217 0 -298 73.5t-81 272.5v213q0 158 -59 218t-222 73v60q165 15 223 74t58 216v213q0 200 81 273.5
t298 73.5h10z" />
    <glyph glyph-name="bar" unicode="|" 
d="M449 1565h126v-2048h-126v2048z" />
    <glyph glyph-name="braceright" unicode="}" 
d="M178 1516h10q216 0 297.5 -74t81.5 -273v-213q0 -157 58 -216t223 -74v-60q-163 -13 -222 -73t-59 -218v-213q0 -198 -81.5 -272t-297.5 -74h-10v51q143 2 194.5 54.5t51.5 208.5v143q0 226 61 308.5t226 113.5q-165 31 -226 113.5t-61 308.5v143q0 156 -52 209.5
t-194 55.5v51z" />
    <glyph glyph-name="asciitilde" unicode="~" horiz-adv-x="1706" 
d="M1530 758v-131q-101 -72 -197.5 -108t-189.5 -36q-43 0 -90.5 9t-100.5 26q-30 10 -87 31q-202 72 -302 72q-83 0 -173.5 -37.5t-211.5 -122.5v133q105 73 202 109t185 36q56 0 116.5 -12.5t174.5 -52.5q12 -4 35 -13q164 -59 254 -59q85 0 176 36.5t209 119.5z" />
    <glyph glyph-name="Adieresis" unicode="&#xc4;" horiz-adv-x="1696" 
d="M1108 676q-51 110 -112 272t-128 363q-34 -95 -126.5 -264t-227.5 -383q31 -2 65.5 -2h104.5q114 0 219.5 3.5t204.5 10.5zM1151 573q-29 0 -71.5 -1t-57.5 -1q-350 0 -478 -39t-208 -147q-91 -122 -201 -295.5t-137 -173.5q-12 0 -19.5 7t-7.5 20q0 12 130 219.5
t243 400.5q219 378 330.5 609t111.5 307q0 10 -3 22.5t-3 14.5q0 12 68.5 49t93.5 37q11 0 67 -190.5t134 -387.5q220 -562 308.5 -707t174.5 -145q24 0 50 13.5t30 13.5q6 0 14.5 -11t8.5 -20q0 -6 -45 -34t-85 -56q-37 -28 -84.5 -69.5t-60.5 -41.5q-22 0 -84.5 123
t-218.5 483zM383 1511q40 0 70 -29t30 -69q0 -42 -29 -71t-71 -29t-70 28.5t-28 71.5q0 40 29 69t69 29zM1391 1511q40 0 70 -29t30 -69q0 -42 -29 -71t-71 -29t-70.5 28.5t-28.5 71.5q0 40 29.5 69t69.5 29z" />
    <glyph glyph-name="Aring" unicode="&#xc5;" horiz-adv-x="1696" 
d="M889 1882q-62 0 -106 -44.5t-44 -106.5t44 -105t106 -43t105.5 43.5t43.5 104.5q0 62 -43.5 106.5t-105.5 44.5zM1108 676q-51 110 -112 272t-128 363q-34 -95 -126.5 -264t-227.5 -383q31 -2 65.5 -2h104.5q114 0 219.5 3.5t204.5 10.5zM1151 573q-29 0 -71.5 -1
t-57.5 -1q-350 0 -478 -39t-208 -147q-91 -122 -201 -295.5t-137 -173.5q-12 0 -19.5 7t-7.5 20q0 12 125 211t236 389q230 394 340.5 624t126.5 342q-72 29 -112 88t-40 136q0 99 71 169t171 70t169.5 -70t69.5 -169q0 -71 -40 -131.5t-109 -92.5q27 -121 98.5 -316
t188.5 -470l14 -34q221 -517 346 -517q24 0 50 13.5t30 13.5q6 0 14.5 -11t8.5 -20q0 -6 -45 -34t-85 -56q-37 -28 -84.5 -69.5t-60.5 -41.5q-22 0 -84.5 123t-218.5 483z" />
    <glyph glyph-name="Ccedilla" unicode="&#xc7;" horiz-adv-x="1884" 
d="M907 -29q-375 0 -583.5 187.5t-208.5 523.5q0 383 256 605t704 222q244 0 458 -58t214 -97q0 -13 -32 -73l-21 -39q-9 -18 -21 -47q-20 -46 -35 -46t-24.5 7t-9.5 18q0 2 6 22t6 37q0 86 -125.5 135t-347.5 49q-367 0 -592 -196t-225 -512q0 -286 190 -459.5t506 -173.5
q168 0 342.5 48.5t364.5 147.5q32 18 70 43t46 25q7 0 10 -6t3 -21v-16q0 -18 -4.5 -26t-26.5 -23q-195 -127 -444 -202t-476 -75zM925 0h64v-112q7 0 16 0.5t27 0.5q102 0 154.5 -40t52.5 -119q0 -91 -72 -137t-213 -46q-65 1 -75.5 6.5t-10.5 30.5q0 31 35 31q50 0 96 10
q62 14 81 34.5t19 68.5q0 49 -34 70.5t-113 21.5h-27v180z" />
    <glyph glyph-name="Eacute" unicode="&#xc9;" horiz-adv-x="1286" 
d="M256 15q18 271 27.5 540t9.5 532q0 144 -6 217.5t-19 112.5q-17 0 -35 1l-18 1q-32 0 -68 -3q-9 -1 -12 -1q-18 0 -24 5.5t-7 21.5q0 18 9 25.5t35 7.5q142 5 273.5 7.5t258.5 2.5q216 0 277 -7t61 -26q0 -18 -19.5 -66.5t-31.5 -48.5q-5 0 -13.5 9t-13.5 12
q-17 10 -60.5 14t-189.5 4q-106 0 -149.5 -1.5t-73.5 -4.5q-7 -120 -10.5 -254.5t-3.5 -279.5q72 3 171.5 5.5t213.5 2.5h123q33 0 45 -4t12 -15q0 -31 -20.5 -64.5t-49.5 -33.5q-2 0 -17 1q-115 7 -249 7q-75 0 -130 -2.5t-99 -7.5q-6 -143 -8.5 -262t-2.5 -227v-99
q128 -16 239 -24.5t210 -8.5q198 0 333 31q11 2 13 2q6 0 10 -3.5t4 -8.5q0 -16 -29.5 -46t-66.5 -48q-27 -14 -185.5 -22.5t-400.5 -8.5q-95 0 -169 3.5t-144 11.5zM885 1991q0 -92 -89 -160l-5 -4q-80 -59 -163.5 -107.5t-95.5 -48.5t-29.5 10.5t-17.5 20.5q0 4 43.5 41.5
t75.5 66.5q83 77 161 157.5t85 80.5q18 0 26.5 -14t8.5 -43z" />
    <glyph glyph-name="Ntilde" unicode="&#xd1;" horiz-adv-x="2103" 
d="M543 1085q-126 -546 -305 -1117l-11 -34q-3 -11 -10 -32q-46 -148 -82 -148q-10 1 -18 8t-8 17q0 7 23 93q170 616 294 1332q-44 78 -107 146t-63 77q0 12 49.5 61.5t65.5 49.5q7 0 22.5 -16t65.5 -78q5 -1 14 -2q25 -2 33 -2q19 0 46 3t34 3q10 0 22.5 -17.5t12.5 -29.5
q0 -6 -11.5 -41.5t-15.5 -64.5q255 -294 531.5 -579t576.5 -564q15 161 23 327t8 338q0 366 -27.5 465.5t-103.5 99.5q-29 0 -62 -13t-37 -13q-8 0 -12 9t-4 26q0 22 59 44q19 7 29 11q74 28 138.5 45.5t84.5 17.5q34 0 45.5 -58t11.5 -310q0 -268 -18 -525.5t-55 -512.5
q-6 -38 -10 -87q-6 -67 -50 -67q-51 0 -256.5 194.5t-922.5 943.5zM977 1804q-14 3 -28 4.5t-29 1.5q-51 0 -71.5 -47t-45.5 -47q-13 0 -18 3t-5 9q0 63 49 136t115 73q17 0 41 -4t55 -12l109 -29q15 -4 29 -6t26 -2q57 0 77.5 46t45.5 46q14 0 19 -2t6 -8q0 -10 -9.5 -43
t-23.5 -63q-24 -54 -55 -76.5t-80 -22.5q-24 0 -49 3.5t-52 11.5z" />
    <glyph glyph-name="Odieresis" unicode="&#xd6;" horiz-adv-x="1907" 
d="M967 61q274 0 444 183.5t170 480.5q0 306 -176 504t-447 198q-280 0 -458 -186.5t-178 -484.5q0 -303 182 -499t463 -196zM1788 750q0 -350 -237 -564.5t-625 -214.5q-371 0 -591 207.5t-220 554.5q0 344 237 560t615 216q373 0 597 -208t224 -551zM240 1536q40 0 70 -30
t30 -70q0 -42 -29 -70.5t-71 -28.5t-70.5 28t-28.5 71q0 40 29.5 70t69.5 30zM1665 1536q40 0 69 -30t29 -70q0 -43 -28 -71t-70 -28t-71 28.5t-29 70.5q0 40 30 70t70 30z" />
    <glyph glyph-name="Udieresis" unicode="&#xdc;" horiz-adv-x="1882" 
d="M1380 166q-34 -15 -98 -43q-339 -150 -514 -150q-126 0 -225.5 31.5t-157.5 89.5q-62 62 -88.5 145t-26.5 273v55q0 94 3 272t3 261q0 191 -20 288q-2 9 -2 11q0 14 49 27q27 7 42 12q77 24 149.5 51t74.5 27q10 0 18.5 -11.5t8.5 -25.5q0 -16 -41.5 -44t-60.5 -65
q-27 -52 -41.5 -217t-14.5 -414v-143q0 -152 14 -225t48 -121q45 -65 146 -101t237 -36q120 0 242 34.5t259 108.5q8 167 12.5 376t4.5 443q0 144 -7 202.5t-24 78.5q-3 3 -21 13.5t-18 27.5q0 18 39 26q28 7 45 13q59 20 117 45.5t61 25.5q9 0 19 -14t10 -27q0 -2 -4 -11
q-23 -62 -31 -146q-13 -166 -19.5 -394t-6.5 -528q0 -218 48 -306q5 -9 5 -11q0 -9 -9.5 -14.5t-41.5 -14.5q-53 -14 -107.5 -34.5t-58.5 -20.5q-14 0 -20.5 8t-6.5 29q0 1 4 38.5t4 75.5q0 1 1 4q1 12 1 25zM766 1561q40 0 69 -30t29 -71q0 -43 -28 -71.5t-70 -28.5t-71 29
t-29 71q0 40 30 70.5t70 30.5zM1161 1561q40 0 70.5 -30.5t30.5 -70.5q0 -42 -29.5 -71t-71.5 -29q-41 0 -69.5 28.5t-28.5 71.5q0 41 29.5 71t68.5 30z" />
    <glyph glyph-name="aacute" unicode="&#xe1;" horiz-adv-x="1006" 
d="M637 455q-182 -31 -286.5 -100t-104.5 -156q0 -50 34 -80.5t89 -30.5q119 0 194.5 89.5t75.5 238.5q0 6 -1 18.5t-1 20.5zM618 154q-78 -82 -174.5 -127t-191.5 -45q-87 0 -135.5 40.5t-48.5 112.5q0 132 149 230.5t418 142.5v22q0 110 -42.5 162.5t-129.5 52.5
q-55 0 -115.5 -16t-66.5 -16q-5 0 -7 4t-2 12q0 79 59.5 111t209.5 32q139 0 194.5 -62.5t55.5 -234.5q0 -53 -4.5 -139.5t-4.5 -120.5q0 -95 24.5 -148.5t78.5 -78.5q25 -11 61.5 -13.5t36.5 -27.5q0 -19 -64.5 -42t-123.5 -23q-77 0 -120.5 42.5t-56.5 129.5zM746 1305
q0 -92 -89 -160l-5 -4q-80 -59 -163.5 -107.5t-95.5 -48.5t-29.5 10.5t-17.5 20.5q0 4 43.5 41.5t75.5 66.5q83 77 161 157.5t85 80.5q18 0 26.5 -14t8.5 -43z" />
    <glyph glyph-name="agrave" unicode="&#xe0;" horiz-adv-x="1006" 
d="M637 455q-182 -31 -286.5 -100t-104.5 -156q0 -50 34 -80.5t89 -30.5q119 0 194.5 89.5t75.5 238.5q0 6 -1 18.5t-1 20.5zM618 154q-78 -82 -174.5 -127t-191.5 -45q-87 0 -135.5 40.5t-48.5 112.5q0 132 149 230.5t418 142.5v22q0 110 -42.5 162.5t-129.5 52.5
q-55 0 -115.5 -16t-66.5 -16q-5 0 -7 4t-2 12q0 79 59.5 111t209.5 32q139 0 194.5 -62.5t55.5 -234.5q0 -53 -4.5 -139.5t-4.5 -120.5q0 -95 24.5 -148.5t78.5 -78.5q25 -11 61.5 -13.5t36.5 -27.5q0 -19 -64.5 -42t-123.5 -23q-77 0 -120.5 42.5t-56.5 129.5zM697 985
q-12 0 -88 43.5t-155 100.5v0q-110 78 -110 176q0 28 9 42.5t26 14.5q8 0 76 -72t137 -137q46 -43 99 -88t53 -49q0 -10 -17.5 -20.5t-29.5 -10.5z" />
    <glyph glyph-name="acircumflex" unicode="&#xe2;" horiz-adv-x="1006" 
d="M637 455q-182 -31 -286.5 -100t-104.5 -156q0 -50 34 -80.5t89 -30.5q119 0 194.5 89.5t75.5 238.5q0 6 -1 18.5t-1 20.5zM618 154q-78 -82 -174.5 -127t-191.5 -45q-87 0 -135.5 40.5t-48.5 112.5q0 132 149 230.5t418 142.5v22q0 110 -42.5 162.5t-129.5 52.5
q-55 0 -115.5 -16t-66.5 -16q-5 0 -7 4t-2 12q0 79 59.5 111t209.5 32q139 0 194.5 -62.5t55.5 -234.5q0 -53 -4.5 -139.5t-4.5 -120.5q0 -95 24.5 -148.5t78.5 -78.5q25 -11 61.5 -13.5t36.5 -27.5q0 -19 -64.5 -42t-123.5 -23q-77 0 -120.5 42.5t-56.5 129.5zM303 995
q-3 -4 -11 -7t-17 -3h-21q-5 0 -8.5 2.5t-3.5 5.5q0 4 1 6.5t3 6.5l217 348q8 12 16 17t19 5q6 0 14 -6t15 -16l235 -350q3 -6 3.5 -8t0.5 -3q0 -4 -4 -6t-10 -2h-101q-11 0 -17.5 2.5t-10.5 7.5l-164 236z" />
    <glyph glyph-name="adieresis" unicode="&#xe4;" horiz-adv-x="1006" 
d="M637 455q-182 -31 -286.5 -100t-104.5 -156q0 -50 34 -80.5t89 -30.5q119 0 194.5 89.5t75.5 238.5q0 6 -1 18.5t-1 20.5zM618 154q-78 -82 -174.5 -127t-191.5 -45q-87 0 -135.5 40.5t-48.5 112.5q0 132 149 230.5t418 142.5v22q0 110 -42.5 162.5t-129.5 52.5
q-55 0 -115.5 -16t-66.5 -16q-5 0 -7 4t-2 12q0 79 59.5 111t209.5 32q139 0 194.5 -62.5t55.5 -234.5q0 -53 -4.5 -139.5t-4.5 -120.5q0 -95 24.5 -148.5t78.5 -78.5q25 -11 61.5 -13.5t36.5 -27.5q0 -19 -64.5 -42t-123.5 -23q-77 0 -120.5 42.5t-56.5 129.5zM680 1237
q40 0 69 -29t29 -69q0 -43 -28 -72t-70 -29t-71 29t-29 72q0 39 30 68.5t70 29.5zM328 1237q40 0 70 -29.5t30 -68.5q0 -43 -29 -72t-71 -29t-70 29t-28 72q0 40 29 69t69 29z" />
    <glyph glyph-name="atilde" unicode="&#xe3;" horiz-adv-x="1006" 
d="M637 455q-182 -31 -286.5 -100t-104.5 -156q0 -50 34 -80.5t89 -30.5q119 0 194.5 89.5t75.5 238.5q0 6 -1 18.5t-1 20.5zM618 154q-78 -82 -174.5 -127t-191.5 -45q-87 0 -135.5 40.5t-48.5 112.5q0 132 149 230.5t418 142.5v22q0 110 -42.5 162.5t-129.5 52.5
q-55 0 -115.5 -16t-66.5 -16q-5 0 -7 4t-2 12q0 79 59.5 111t209.5 32q139 0 194.5 -62.5t55.5 -234.5q0 -53 -4.5 -139.5t-4.5 -120.5q0 -95 24.5 -148.5t78.5 -78.5q25 -11 61.5 -13.5t36.5 -27.5q0 -19 -64.5 -42t-123.5 -23q-77 0 -120.5 42.5t-56.5 129.5zM416 1118
q-14 3 -28 4.5t-29 1.5q-51 0 -71.5 -47t-45.5 -47q-13 0 -18 3t-5 9q0 63 49 136t115 73q17 0 41 -4t55 -12l109 -29q15 -4 29 -6t26 -2q57 0 77.5 46t45.5 46q14 0 19 -2t6 -8q0 -10 -9.5 -43t-23.5 -63q-24 -54 -55 -76.5t-80 -22.5q-24 0 -49 3.5t-52 11.5z" />
    <glyph glyph-name="aring" unicode="&#xe5;" horiz-adv-x="1006" 
d="M496 1415q100 0 170.5 -70t70.5 -169q0 -101 -70.5 -171.5t-170.5 -70.5t-170 70t-70 172q0 100 69.5 169.5t170.5 69.5zM496 1325q-62 0 -106 -43.5t-44 -105.5t44 -106t106 -44q61 0 105 44t44 106t-43.5 105.5t-105.5 43.5zM637 455q-182 -31 -286.5 -100t-104.5 -156
q0 -50 34 -80.5t89 -30.5q119 0 194.5 89.5t75.5 238.5q0 6 -1 18.5t-1 20.5zM618 154q-78 -82 -174.5 -127t-191.5 -45q-87 0 -135.5 40.5t-48.5 112.5q0 132 149 230.5t418 142.5v22q0 110 -42.5 162.5t-129.5 52.5q-55 0 -115.5 -16t-66.5 -16q-5 0 -7 4t-2 12
q0 77 58 108t211 31q140 0 195 -61t55 -232q0 -53 -4.5 -139.5t-4.5 -120.5q0 -95 24.5 -148.5t78.5 -78.5q25 -11 61.5 -13.5t36.5 -27.5q0 -19 -64.5 -42t-123.5 -23q-77 0 -120.5 42.5t-56.5 129.5z" />
    <glyph glyph-name="ccedilla" unicode="&#xe7;" horiz-adv-x="872" 
d="M473 -18q-201 0 -302 99t-101 296q0 215 122 355t310 140q87 0 177.5 -29t90.5 -48q0 -21 -27 -85.5t-36 -64.5q-7 0 -44 20q-145 80 -253 80q-100 0 -154.5 -66.5t-54.5 -189.5q0 -164 82 -262t223 -98q77 0 133 21.5t98 66.5q20 20 38.5 54t33.5 34q12 0 20.5 -7.5
t8.5 -18.5q0 -15 -33 -71t-82 -120q-49 -63 -100.5 -84.5t-149.5 -21.5zM358 0h64v-112q7 0 16 0.5t27 0.5q102 0 154.5 -40t52.5 -119q0 -91 -72 -137t-213 -46q-65 1 -75.5 6.5t-10.5 30.5q0 31 35 31q50 0 96 10q62 14 81 34.5t19 68.5q0 49 -34 70.5t-113 21.5h-27v180z
" />
    <glyph glyph-name="eacute" unicode="&#xe9;" horiz-adv-x="893" 
d="M240 455q144 14 230.5 75t86.5 146q0 48 -32 79t-83 31q-86 0 -145 -80t-59 -200q0 -12 0.5 -25t1.5 -26zM246 379q15 -130 84 -197t188 -67q87 0 149.5 28t120.5 95q10 12 25 32q22 31 35 31q11 0 18.5 -8t7.5 -19q0 -21 -40.5 -84t-106.5 -141q-41 -49 -89 -61.5
t-151 -12.5q-198 0 -304.5 105.5t-106.5 300.5q0 205 121 348t290 143q115 0 184.5 -62.5t69.5 -166.5q0 -60 -130.5 -130t-364.5 -134zM709 1305q0 -92 -89 -160l-5 -4q-80 -59 -163.5 -107.5t-95.5 -48.5t-29.5 10.5t-17.5 20.5q0 4 43.5 41.5t75.5 66.5q83 77 161 157.5
t85 80.5q18 0 26.5 -14t8.5 -43z" />
    <glyph glyph-name="egrave" unicode="&#xe8;" horiz-adv-x="893" 
d="M240 455q144 14 230.5 75t86.5 146q0 48 -32 79t-83 31q-86 0 -145 -80t-59 -200q0 -12 0.5 -25t1.5 -26zM246 379q15 -130 84 -197t188 -67q87 0 149.5 28t120.5 95q10 12 25 32q22 31 35 31q11 0 18.5 -8t7.5 -19q0 -21 -40.5 -84t-106.5 -141q-41 -49 -89 -61.5
t-151 -12.5q-198 0 -304.5 105.5t-106.5 300.5q0 205 121 348t290 143q115 0 184.5 -62.5t69.5 -166.5q0 -60 -130.5 -130t-364.5 -134zM660 985q-12 0 -88 43.5t-155 100.5v0q-110 78 -110 176q0 28 9 42.5t26 14.5q8 0 76 -72t137 -137q46 -43 99 -88t53 -49
q0 -10 -17.5 -20.5t-29.5 -10.5z" />
    <glyph glyph-name="ecircumflex" unicode="&#xea;" horiz-adv-x="893" 
d="M240 455q144 14 230.5 75t86.5 146q0 48 -32 79t-83 31q-86 0 -145 -80t-59 -200q0 -12 0.5 -25t1.5 -26zM246 379q15 -130 84 -197t188 -67q87 0 149.5 28t120.5 95q10 12 25 32q22 31 35 31q11 0 18.5 -8t7.5 -19q0 -21 -40.5 -84t-106.5 -141q-41 -49 -89 -61.5
t-151 -12.5q-198 0 -304.5 105.5t-106.5 300.5q0 205 121 348t290 143q115 0 184.5 -62.5t69.5 -166.5q0 -60 -130.5 -130t-364.5 -134zM266 995q-3 -4 -11 -7t-17 -3h-21q-5 0 -8.5 2.5t-3.5 5.5q0 4 1 6.5t3 6.5l217 348q8 12 16 17t19 5q6 0 14 -6t15 -16l235 -350
q3 -6 3.5 -8t0.5 -3q0 -4 -4 -6t-10 -2h-101q-11 0 -17.5 2.5t-10.5 7.5l-164 236z" />
    <glyph glyph-name="edieresis" unicode="&#xeb;" horiz-adv-x="893" 
d="M240 455q144 14 230.5 75t86.5 146q0 48 -32 79t-83 31q-86 0 -145 -80t-59 -200q0 -12 0.5 -25t1.5 -26zM246 379q15 -130 84 -197t188 -67q87 0 149.5 28t120.5 95q10 12 25 32q22 31 35 31q11 0 18.5 -8t7.5 -19q0 -21 -40.5 -84t-106.5 -141q-41 -49 -89 -61.5
t-151 -12.5q-198 0 -304.5 105.5t-106.5 300.5q0 205 121 348t290 143q115 0 184.5 -62.5t69.5 -166.5q0 -60 -130.5 -130t-364.5 -134zM643 1237q40 0 69 -29t29 -69q0 -43 -28 -72t-70 -29t-71 29t-29 72q0 39 30 68.5t70 29.5zM291 1237q40 0 70 -29.5t30 -68.5
q0 -43 -29 -72t-71 -29t-70 29t-28 72q0 40 29 69t69 29z" />
    <glyph glyph-name="iacute" unicode="&#xed;" horiz-adv-x="563" 
d="M377 530v-452q0 -12 -1 -23.5l-1 -11.5q0 -14 -7 -22t-22 -13q-39 -14 -74.5 -23.5t-42.5 -9.5q-9 1 -12.5 16t-3.5 85v493q0 113 -16 141.5t-58 28.5q-11 0 -28.5 -6t-22.5 -6q-11 0 -18 10t-7 27q1 15 59 30q41 10 68 19q49 16 103 37.5t61 21.5q10 0 21.5 -10
t11.5 -20q0 -4 -1 -24q-9 -139 -9 -288zM525 1305q0 -92 -89 -160l-5 -4q-80 -59 -163.5 -107.5t-95.5 -48.5t-29.5 10.5t-17.5 20.5q0 4 43.5 41.5t75.5 66.5q83 77 161 157.5t85 80.5q18 0 26.5 -14t8.5 -43z" />
    <glyph glyph-name="igrave" unicode="&#xec;" horiz-adv-x="563" 
d="M377 530v-452q0 -12 -1 -23.5l-1 -11.5q0 -14 -7 -22t-22 -13q-39 -14 -74.5 -23.5t-42.5 -9.5q-9 1 -12.5 16t-3.5 85v493q0 113 -16 141.5t-58 28.5q-11 0 -28.5 -6t-22.5 -6q-11 0 -18 10t-7 27q1 15 59 30q41 10 68 19q49 16 103 37.5t61 21.5q10 0 21.5 -10
t11.5 -20q0 -4 -1 -24q-9 -139 -9 -288zM476 985q-12 0 -88 43.5t-155 100.5v0q-110 78 -110 176q0 28 9 42.5t26 14.5q8 0 76 -72t137 -137q46 -43 99 -88t53 -49q0 -10 -17.5 -20.5t-29.5 -10.5z" />
    <glyph glyph-name="icircumflex" unicode="&#xee;" horiz-adv-x="563" 
d="M377 530v-452q0 -12 -1 -23.5l-1 -11.5q0 -14 -7 -22t-22 -13q-39 -14 -74.5 -23.5t-42.5 -9.5q-9 1 -12.5 16t-3.5 85v493q0 113 -16 141.5t-58 28.5q-11 0 -28.5 -6t-22.5 -6q-11 0 -18 10t-7 27q1 15 59 30q41 10 68 19q49 16 103 37.5t61 21.5q10 0 21.5 -10
t11.5 -20q0 -4 -1 -24q-9 -139 -9 -288zM82 995q-3 -4 -11 -7t-17 -3h-21q-5 0 -8.5 2.5t-3.5 5.5q0 4 1 6.5t3 6.5l217 348q8 12 16 17t19 5q6 0 14 -6t15 -16l235 -350q3 -6 3.5 -8t0.5 -3q0 -4 -4 -6t-10 -2h-101q-11 0 -17.5 2.5t-10.5 7.5l-164 236z" />
    <glyph glyph-name="idieresis" unicode="&#xef;" horiz-adv-x="563" 
d="M377 530v-452q0 -12 -1 -23.5l-1 -11.5q0 -14 -7 -22t-22 -13q-39 -14 -74.5 -23.5t-42.5 -9.5q-9 1 -12.5 16t-3.5 85v493q0 113 -16 141.5t-58 28.5q-11 0 -28.5 -6t-22.5 -6q-11 0 -18 10t-7 27q1 15 59 30q41 10 68 19q49 16 103 37.5t61 21.5q10 0 21.5 -10
t11.5 -20q0 -4 -1 -24q-9 -139 -9 -288zM459 1237q40 0 69 -29t29 -69q0 -43 -28 -72t-70 -29t-71 29t-29 72q0 39 30 68.5t70 29.5zM107 1237q40 0 70 -29.5t30 -68.5q0 -43 -29 -72t-71 -29t-70 29t-28 72q0 40 29 69t69 29z" />
    <glyph glyph-name="ntilde" unicode="&#xf1;" horiz-adv-x="1096" 
d="M201 12v459q0 141 -30.5 204.5t-96.5 63.5q-9 0 -22.5 -3t-18.5 -3q-10 0 -15.5 8t-5.5 23q0 10 38 23q28 9 44 16q61 25 113 60q14 9 16 9q21 0 59 -42.5t58 -100.5q101 60 200 94.5t167 34.5q113 0 163 -85.5t50 -287.5q0 -93 -5.5 -205t-5.5 -128q0 -25 9 -34t32 -9
q12 0 35.5 9t34.5 9q8 0 13 -9t5 -24q0 -21 -57 -36q-48 -13 -82 -25q-49 -19 -98.5 -44.5t-55.5 -25.5q-10 0 -17 6.5t-7 16.5q0 2 4 15q43 148 43 364q0 199 -53 291t-166 92q-51 0 -101.5 -24t-95.5 -69q0 -14 1 -58.5t1 -74.5q0 -153 -2 -283.5t-6 -220.5l-117 -41
q-1 0 -4 -1t-8 -1q-9 0 -12.5 8t-3.5 29zM461 1118q-14 3 -28 4.5t-29 1.5q-51 0 -71.5 -47t-45.5 -47q-13 0 -18 3t-5 9q0 63 49 136t115 73q17 0 41 -4t55 -12l109 -29q15 -4 29 -6t26 -2q57 0 77.5 46t45.5 46q14 0 19 -2t6 -8q0 -10 -9.5 -43t-23.5 -63
q-24 -54 -55 -76.5t-80 -22.5q-24 0 -49 3.5t-52 11.5z" />
    <glyph glyph-name="oacute" unicode="&#xf3;" horiz-adv-x="991" 
d="M455 772q-114 0 -174 -76.5t-60 -222.5q0 -168 88.5 -280.5t216.5 -112.5q107 0 173.5 76t66.5 200q0 183 -87.5 299.5t-223.5 116.5zM512 872q187 0 295 -116t108 -318q0 -198 -130 -330.5t-324 -132.5q-182 0 -284.5 111t-102.5 307q0 216 121 347.5t317 131.5z
M738 1305q0 -92 -89 -160l-5 -4q-80 -59 -163.5 -107.5t-95.5 -48.5t-29.5 10.5t-17.5 20.5q0 4 43.5 41.5t75.5 66.5q83 77 161 157.5t85 80.5q18 0 26.5 -14t8.5 -43z" />
    <glyph glyph-name="ograve" unicode="&#xf2;" horiz-adv-x="991" 
d="M455 772q-114 0 -174 -76.5t-60 -222.5q0 -168 88.5 -280.5t216.5 -112.5q107 0 173.5 76t66.5 200q0 183 -87.5 299.5t-223.5 116.5zM512 872q187 0 295 -116t108 -318q0 -198 -130 -330.5t-324 -132.5q-182 0 -284.5 111t-102.5 307q0 216 121 347.5t317 131.5z
M689 985q-12 0 -88 43.5t-155 100.5v0q-110 78 -110 176q0 28 9 42.5t26 14.5q8 0 76 -72t137 -137q46 -43 99 -88t53 -49q0 -10 -17.5 -20.5t-29.5 -10.5z" />
    <glyph glyph-name="ocircumflex" unicode="&#xf4;" horiz-adv-x="991" 
d="M455 772q-114 0 -174 -76.5t-60 -222.5q0 -168 88.5 -280.5t216.5 -112.5q107 0 173.5 76t66.5 200q0 183 -87.5 299.5t-223.5 116.5zM512 872q187 0 295 -116t108 -318q0 -198 -130 -330.5t-324 -132.5q-182 0 -284.5 111t-102.5 307q0 216 121 347.5t317 131.5z
M295 995q-3 -4 -11 -7t-17 -3h-21q-5 0 -8.5 2.5t-3.5 5.5q0 4 1 6.5t3 6.5l217 348q8 12 16 17t19 5q6 0 14 -6t15 -16l235 -350q3 -6 3.5 -8t0.5 -3q0 -4 -4 -6t-10 -2h-101q-11 0 -17.5 2.5t-10.5 7.5l-164 236z" />
    <glyph glyph-name="odieresis" unicode="&#xf6;" horiz-adv-x="991" 
d="M455 772q-114 0 -174 -76.5t-60 -222.5q0 -168 88.5 -280.5t216.5 -112.5q107 0 173.5 76t66.5 200q0 183 -87.5 299.5t-223.5 116.5zM512 872q187 0 295 -116t108 -318q0 -198 -130 -330.5t-324 -132.5q-182 0 -284.5 111t-102.5 307q0 216 121 347.5t317 131.5z
M672 1237q40 0 69 -29t29 -69q0 -43 -28 -72t-70 -29t-71 29t-29 72q0 39 30 68.5t70 29.5zM320 1237q40 0 70 -29.5t30 -68.5q0 -43 -29 -72t-71 -29t-70 29t-28 72q0 40 29 69t69 29z" />
    <glyph glyph-name="otilde" unicode="&#xf5;" horiz-adv-x="991" 
d="M455 772q-114 0 -174 -76.5t-60 -222.5q0 -168 88.5 -280.5t216.5 -112.5q107 0 173.5 76t66.5 200q0 183 -87.5 299.5t-223.5 116.5zM512 872q187 0 295 -116t108 -318q0 -198 -130 -330.5t-324 -132.5q-182 0 -284.5 111t-102.5 307q0 216 121 347.5t317 131.5z
M408 1118q-14 3 -28 4.5t-29 1.5q-51 0 -71.5 -47t-45.5 -47q-13 0 -18 3t-5 9q0 63 49 136t115 73q17 0 41 -4t55 -12l109 -29q15 -4 29 -6t26 -2q57 0 77.5 46t45.5 46q14 0 19 -2t6 -8q0 -10 -9.5 -43t-23.5 -63q-24 -54 -55 -76.5t-80 -22.5q-24 0 -49 3.5t-52 11.5z
" />
    <glyph glyph-name="uacute" unicode="&#xfa;" horiz-adv-x="1065" 
d="M743 127q-71 -35 -177 -90q-125 -66 -150 -66q-144 0 -210.5 92t-66.5 293q0 49 4 162.5t4 177.5q0 14 -4 42.5t-4 43.5q0 8 35 19q28 9 47 16q44 16 89.5 35.5t49.5 19.5q15 0 24 -6.5t9 -17.5q0 -12 -21.5 -34t-31.5 -40q-24 -41 -34.5 -109t-10.5 -206
q0 -191 46.5 -267.5t158.5 -76.5q41 0 106.5 19t141.5 54v439q0 117 -47 141q-9 4 -9 8q0 32 24 38q7 1 13 3q44 16 94 41t58 25q13 0 30 -16t17 -27q0 -1 -2 -9q-14 -52 -19 -127q-4 -69 -6 -182.5t-2 -251.5q0 -107 7 -205q1 -15 1 -18q0 -23 -69 -60.5t-86 -37.5
q-6 0 -8.5 8.5t-2.5 28.5v30q0 22 0.5 50t1.5 61zM774 1305q0 -92 -89 -160l-5 -4q-80 -59 -163.5 -107.5t-95.5 -48.5t-29.5 10.5t-17.5 20.5q0 4 43.5 41.5t75.5 66.5q83 77 161 157.5t85 80.5q18 0 26.5 -14t8.5 -43z" />
    <glyph glyph-name="ugrave" unicode="&#xf9;" horiz-adv-x="1065" 
d="M743 127q-71 -35 -177 -90q-125 -66 -150 -66q-144 0 -210.5 92t-66.5 293q0 49 4 162.5t4 177.5q0 14 -4 42.5t-4 43.5q0 8 35 19q28 9 47 16q44 16 89.5 35.5t49.5 19.5q15 0 24 -6.5t9 -17.5q0 -12 -21.5 -34t-31.5 -40q-24 -41 -34.5 -109t-10.5 -206
q0 -191 46.5 -267.5t158.5 -76.5q41 0 106.5 19t141.5 54v439q0 117 -47 141q-9 4 -9 8q0 32 24 38q7 1 13 3q44 16 94 41t58 25q13 0 30 -16t17 -27q0 -1 -2 -9q-14 -52 -19 -127q-4 -69 -6 -182.5t-2 -251.5q0 -107 7 -205q1 -15 1 -18q0 -23 -69 -60.5t-86 -37.5
q-6 0 -8.5 8.5t-2.5 28.5v30q0 22 0.5 50t1.5 61zM725 985q-12 0 -88 43.5t-155 100.5v0q-110 78 -110 176q0 28 9 42.5t26 14.5q8 0 76 -72t137 -137q46 -43 99 -88t53 -49q0 -10 -17.5 -20.5t-29.5 -10.5z" />
    <glyph glyph-name="ucircumflex" unicode="&#xfb;" horiz-adv-x="1065" 
d="M743 127q-71 -35 -177 -90q-125 -66 -150 -66q-144 0 -210.5 92t-66.5 293q0 49 4 162.5t4 177.5q0 14 -4 42.5t-4 43.5q0 8 35 19q28 9 47 16q44 16 89.5 35.5t49.5 19.5q15 0 24 -6.5t9 -17.5q0 -12 -21.5 -34t-31.5 -40q-24 -41 -34.5 -109t-10.5 -206
q0 -191 46.5 -267.5t158.5 -76.5q41 0 106.5 19t141.5 54v439q0 117 -47 141q-9 4 -9 8q0 32 24 38q7 1 13 3q44 16 94 41t58 25q13 0 30 -16t17 -27q0 -1 -2 -9q-14 -52 -19 -127q-4 -69 -6 -182.5t-2 -251.5q0 -107 7 -205q1 -15 1 -18q0 -23 -69 -60.5t-86 -37.5
q-6 0 -8.5 8.5t-2.5 28.5v30q0 22 0.5 50t1.5 61zM331 995q-3 -4 -11 -7t-17 -3h-21q-5 0 -8.5 2.5t-3.5 5.5q0 4 1 6.5t3 6.5l217 348q8 12 16 17t19 5q6 0 14 -6t15 -16l235 -350q3 -6 3.5 -8t0.5 -3q0 -4 -4 -6t-10 -2h-101q-11 0 -17.5 2.5t-10.5 7.5l-164 236z" />
    <glyph glyph-name="udieresis" unicode="&#xfc;" horiz-adv-x="1065" 
d="M743 127q-71 -35 -177 -90q-125 -66 -150 -66q-144 0 -210.5 92t-66.5 293q0 49 4 162.5t4 177.5q0 14 -4 42.5t-4 43.5q0 8 35 19q28 9 47 16q44 16 89.5 35.5t49.5 19.5q15 0 24 -6.5t9 -17.5q0 -12 -21.5 -34t-31.5 -40q-24 -41 -34.5 -109t-10.5 -206
q0 -191 46.5 -267.5t158.5 -76.5q41 0 106.5 19t141.5 54v439q0 117 -47 141q-9 4 -9 8q0 32 24 38q7 1 13 3q44 16 94 41t58 25q13 0 30 -16t17 -27q0 -1 -2 -9q-14 -52 -19 -127q-4 -69 -6 -182.5t-2 -251.5q0 -107 7 -205q1 -15 1 -18q0 -23 -69 -60.5t-86 -37.5
q-6 0 -8.5 8.5t-2.5 28.5v30q0 22 0.5 50t1.5 61zM708 1237q40 0 69 -29t29 -69q0 -43 -28 -72t-70 -29t-71 29t-29 72q0 39 30 68.5t70 29.5zM356 1237q40 0 70 -29.5t30 -68.5q0 -43 -29 -72t-71 -29t-70 29t-28 72q0 40 29 69t69 29z" />
    <glyph glyph-name="dagger" unicode="&#x2020;" 
d="M578 1034q198 -8 274 -20t76 -33q0 -19 -136 -26q-124 -7 -212 -15q-9 -442 -36.5 -721.5t-60.5 -279.5q-26 0 -33 663q-2 209 -4 332q-71 -5 -127.5 -7.5t-78.5 -2.5q-32 0 -88 34t-56 50q1 15 50.5 20.5t234.5 5.5h63q0 6 -1 17.5t-1 17.5q0 4 -1 26t-1 40q0 29 1 71
t1 56q0 39 29 96l4 8q12 26 30 67q36 80 54 80q11 0 16 -10t5 -33q0 -34 1 -110t1 -117q0 -25 -2 -110q-2 -62 -2 -99z" />
    <glyph glyph-name="degree" unicode="&#xb0;" horiz-adv-x="674" 
d="M338 1372q-84 0 -143.5 -58.5t-59.5 -142.5t59.5 -143t143.5 -59t142.5 59t58.5 143t-58.5 142.5t-142.5 58.5zM338 1454q117 0 200 -83t83 -200q0 -116 -83.5 -199t-201.5 -83t-199.5 82t-81.5 200q0 119 82.5 201t200.5 82z" />
    <glyph glyph-name="cent" unicode="&#xa2;" horiz-adv-x="920" 
d="M455 152v577q-6 1 -14 2q-16 2 -21 2q-85 0 -134.5 -70t-49.5 -192q0 -133 58 -218t161 -101zM457 4q-160 0 -251 98.5t-91 272.5q0 182 92.5 310.5t249.5 164.5v121q0 13 11.5 19.5t37.5 6.5q14 0 18 -6t4 -30v-109q111 -7 193 -32.5t82 -47.5t-26 -80.5t-40 -58.5
q-4 0 -69.5 35t-139.5 51v-574h29q62 0 114 19t93 57q22 21 43 52.5t33 31.5t21 -6.5t9 -15.5q0 -25 -48.5 -97.5t-114.5 -134.5q-29 -27 -63.5 -38t-92.5 -11h-23v-164q0 -12 -11.5 -18t-35.5 -6q-14 0 -19 8.5t-5 40.5v141z" />
    <glyph glyph-name="sterling" unicode="&#xa3;" horiz-adv-x="967" 
d="M838 -35q-87 40 -178.5 60t-190.5 20q-166 0 -347 -63q-35 -13 -42 -13q-8 0 -20.5 17.5t-12.5 29.5q0 15 38 51q34 31 54 54q93 106 141 206.5t48 188.5q0 4 -1 19t-1 26l-201 -4q-28 0 -36.5 4t-8.5 14q0 34 11 48t46 14h25l153 2q-11 27 -33 77q-83 185 -83 277
q0 163 115 264t304 101q99 0 174.5 -22t75.5 -50q0 -44 -9.5 -82.5t-18.5 -38.5q-8 1 -39 24q-121 91 -226 91q-95 0 -156 -63.5t-61 -161.5q0 -62 61 -194t67 -222h264q11 0 15.5 -4.5t4.5 -16.5q0 -26 -13.5 -37.5t-51.5 -11.5l-222 -6q-9 -105 -76 -217t-200 -244
q94 37 181.5 55.5t164.5 18.5t155 -20.5t156 -61.5q14 17 34 43q32 39 40 39q7 0 17 -8.5t10 -11.5q0 -6 -45 -68t-82 -123z" />
    <glyph glyph-name="section" unicode="&#xa7;" 
d="M715 582q23 31 35 64t12 67q0 124 -259 179q-72 16 -112 26q-30 -35 -43.5 -68.5t-13.5 -71.5q0 -117 223 -161q99 -20 158 -35zM782 547q50 -36 76.5 -91.5t26.5 -123.5q0 -155 -126.5 -257t-322.5 -102q-80 0 -154 12.5t-110 28.5q-16 9 -21.5 26t-5.5 69v26v33
q0 82 7 102.5t28 20.5q15 0 22 -6t7 -19v-20q0 -96 52.5 -144.5t156.5 -48.5q140 0 235 75.5t95 186.5q0 70 -40 102.5t-161 47.5q-193 24 -258.5 79.5t-65.5 168.5q0 66 25 126t74 109q-48 31 -72.5 81.5t-24.5 119.5q0 151 100 256.5t248 105.5q76 0 139.5 -21.5
t63.5 -43.5q0 -37 -14 -79t-27 -42q-7 0 -35 14q-99 50 -190 50q-83 0 -133.5 -52.5t-50.5 -138.5q0 -132 211 -160q18 -2 29 -4q166 -21 240.5 -84t74.5 -180q0 -61 -25 -118t-74 -105z" />
    <glyph glyph-name="bullet" unicode="&#x2022;" horiz-adv-x="1208" 
d="M307 762q0 123 87 209t210 86q122 0 208.5 -86.5t86.5 -208.5t-87.5 -209.5t-209.5 -87.5q-123 0 -209 87t-86 210z" />
    <glyph glyph-name="paragraph" unicode="&#xb6;" 
d="M948 1479v-78h-125v-1401h-94v1401h-182v-1401h-96v782q-173 8 -274 102.5t-101 245.5q0 157 107.5 253t285.5 96h479z" />
    <glyph glyph-name="germandbls" unicode="&#xdf;" horiz-adv-x="1042" 
d="M180 762q-1 14 -1.5 29.5t-0.5 46.5q0 252 107 406.5t272 154.5q108 0 183 -78t75 -191q0 -100 -108 -236q-22 -27 -33 -42q-38 -49 -50 -76t-12 -55q0 -79 178 -140q19 -6 30 -10q91 -30 125 -76t34 -133q0 -167 -102.5 -273.5t-262.5 -106.5q-81 0 -130.5 12.5
t-49.5 32.5q0 26 17 73t30 47q5 0 13 -11q50 -64 190 -64q83 0 130.5 45t47.5 125q0 56 -25 91t-95 68l-8 4q-202 95 -202 246q0 83 85 211q15 22 22 33q37 58 57.5 120t20.5 118q0 97 -47.5 157t-122.5 60t-120.5 -62.5t-61.5 -187.5q-13 -91 -21 -539q-7 -372 -14 -612
q-2 -43 -4 -115q-5 -172 -13 -186q-10 -19 -42 -38.5t-52 -19.5q-19 0 -27 220.5t-8 814.5q0 29 -9 37t-38 8q-5 0 -14 -1t-12 -1q-28 0 -36.5 4.5t-8.5 23.5v33q0 20 6.5 26.5t36.5 6.5h71z" />
    <glyph glyph-name="registered" unicode="&#xae;" horiz-adv-x="1683" 
d="M729 719q16 -1 32 -1.5t34 -0.5q112 0 173.5 45.5t61.5 128.5q0 73 -53 117.5t-143 44.5q-52 0 -78.5 -18.5t-26.5 -53.5v-262zM469 1092h393q147 0 232.5 -54.5t85.5 -146.5q0 -76 -69.5 -124t-217.5 -75q93 -29 142 -77.5t71 -133.5q6 -22 11 -63q13 -88 59 -88
q32 0 49.5 34t17.5 99h43v-12q0 -88 -40.5 -133.5t-119.5 -45.5q-46 0 -78.5 17t-48.5 49q-18 40 -21 113.5t-9 95.5q-20 68 -70.5 100.5t-136.5 32.5h-33v-248q0 -54 26.5 -75.5t98.5 -25.5v-40h-385v40q72 3 99.5 24.5t27.5 76.5v516q0 55 -26 76t-101 25v43zM844 1303
q-122 0 -236 -48t-202 -137t-134.5 -202.5t-46.5 -237.5q0 -127 46.5 -239t136.5 -201q88 -89 198.5 -135t235.5 -46q126 0 236.5 46t197.5 135q88 90 135 203t47 237t-47.5 241.5t-132.5 200.5q-86 87 -200.5 135t-233.5 48zM844 1382q138 0 268.5 -54t228.5 -152
q97 -97 150 -228t53 -272q0 -137 -55.5 -267.5t-157.5 -232.5q-99 -99 -224.5 -150t-270.5 -51q-137 0 -263 52.5t-227 152.5t-154 227t-53 271q0 140 53 268.5t152 229.5q98 99 228 152.5t272 53.5z" />
    <glyph glyph-name="copyright" unicode="&#xa9;" horiz-adv-x="1683" 
d="M1120 1096h35l2 -314h-41q-34 137 -104 206t-176 69q-123 0 -185.5 -94.5t-62.5 -278.5q0 -189 67 -285t199 -96q86 0 156 43t127 131l34 -24q-58 -105 -143 -157t-199 -52q-167 0 -285 123t-118 297q0 186 116 312t285 126q74 0 148 -34t82 -34q27 0 42 14.5t21 47.5z
M844 1303q-123 0 -237.5 -48.5t-200.5 -136.5q-88 -89 -134.5 -202.5t-46.5 -237.5q0 -125 47 -238.5t136 -201.5q88 -89 198.5 -135t235.5 -46q126 0 236.5 46t197.5 135q88 90 135 203t47 237t-47.5 240.5t-132.5 201.5q-86 87 -200.5 135t-233.5 48zM844 1382
q137 0 266.5 -53.5t226.5 -150.5q98 -97 152.5 -228.5t54.5 -271.5t-53 -268t-154 -230q-98 -100 -225 -152.5t-270 -52.5t-269 52.5t-227 152.5t-154 227t-53 271q0 140 53 268.5t152 229.5q98 99 228 152.5t272 53.5z" />
    <glyph glyph-name="trademark" unicode="&#x2122;" horiz-adv-x="1683" 
d="M788 1438h183l141 -400l148 400h174v-25l-30 -2q-22 -2 -34 -15.5t-12 -37.5v-373q0 -24 12 -37.5t34 -15.5l30 -2v-27h-236v27l31 2q21 2 33 16t12 37v395l-178 -479h-15l-174 479v-395q0 -23 12.5 -37t34.5 -16l31 -2v-27h-197v27l34 2q21 2 32.5 16t11.5 37v371
q0 23 -12.5 37t-34.5 16l-31 2v27zM256 1438h440l11 -178h-25q-8 79 -40.5 115t-96.5 36h-21v-426q0 -23 12 -37t33 -16l31 -2v-27h-248v27l31 2q21 1 33 15.5t12 37.5v426h-20q-64 0 -97 -36t-41 -115h-26z" />
    <glyph glyph-name="acute" unicode="&#xb4;" 
d="M754 1305q0 -92 -89 -160l-5 -4q-80 -59 -163.5 -107.5t-95.5 -48.5t-29.5 10.5t-17.5 20.5q0 4 43.5 41.5t75.5 66.5q83 77 161 157.5t85 80.5q18 0 26.5 -14t8.5 -43z" />
    <glyph glyph-name="dieresis" unicode="&#xa8;" 
d="M688 1237q40 0 69 -29t29 -69q0 -43 -28 -72t-70 -29t-71 29t-29 72q0 39 30 68.5t70 29.5zM336 1237q40 0 70 -29.5t30 -68.5q0 -43 -29 -72t-71 -29t-70 29t-28 72q0 40 29 69t69 29z" />
    <glyph glyph-name="notequal" unicode="&#x2260;" horiz-adv-x="1706" 
d="M1210 1180l88 -70l-196 -250h350v-115h-424l-211 -270h635v-115h-709l-251 -319l-89 70l197 249h-346v115h420l211 270h-631v115h704z" />
    <glyph glyph-name="AE" unicode="&#xc6;" horiz-adv-x="2138" 
d="M1028 672q-78 181 -134.5 328.5t-88.5 252.5q-44 -119 -128 -286.5t-198 -362.5q134 13 272 30t277 38zM1067 567q-398 -49 -539.5 -94.5t-214.5 -124.5q-82 -88 -178.5 -251t-124.5 -163q-11 0 -18.5 8.5t-7.5 20.5q0 15 51 95q46 71 76 120q228 383 394 697t206 430
q19 54 23.5 108t14.5 57q28 8 155 12.5t315 4.5q239 0 331 -13t92 -44q0 -47 -10 -77t-26 -30q-4 0 -26 6q-179 47 -413 47q-90 0 -138 -0.5t-91 -1.5q62 -193 125.5 -361.5t130.5 -316.5q195 25 366 39.5t265 14.5q63 0 76.5 -9.5t13.5 -35.5q0 -47 -64 -51q-7 0 -10 -1
q-168 -9 -315 -23t-287 -34q74 -188 123 -282.5t90 -127.5q47 -36 151 -54.5t259 -18.5q153 0 287 11q17 1 20 1q19 0 29 -6.5t10 -18.5q0 -56 -124 -80t-446 -24h-106q-117 0 -159 9.5t-60 33.5q-27 36 -84.5 159.5t-161.5 368.5z" />
    <glyph glyph-name="Oslash" unicode="&#xd8;" horiz-adv-x="1907" 
d="M346 164q-113 104 -171 246.5t-58 316.5q0 349 235 565.5t615 216.5q164 0 291 -35.5t233 -111.5l111 117q21 23 29.5 30t15.5 7q10 0 35.5 -17.5t25.5 -25.5t-6 -17.5t-23 -25.5l-116 -125q108 -106 166.5 -250.5t58.5 -309.5q0 -344 -238 -559t-620 -215
q-152 0 -284 38t-234 110l-70 -72q-40 -41 -71.5 -62.5t-53.5 -21.5q-15 0 -21 4t-6 15q0 10 9 22.5t30 34.5zM1444 1184l-918 -948q90 -87 204 -131t249 -44q264 0 434 185t170 475q0 133 -36 252.5t-103 210.5zM471 295l913 956q-77 83 -190.5 129.5t-235.5 46.5
q-280 0 -458 -187t-178 -484q0 -133 37 -248t112 -213z" />
    <glyph glyph-name="infinity" unicode="&#x221e;" horiz-adv-x="1706" 
d="M905 559q51 -95 119 -141.5t156 -46.5q102 0 168.5 71t66.5 181q0 108 -61 179.5t-152 71.5q-85 0 -153.5 -72.5t-143.5 -242.5zM803 666q-51 95 -119 142.5t-154 47.5q-105 0 -171 -71t-66 -183q0 -108 61 -179t152 -71q85 0 152 69t145 245zM866 494
q-71 -138 -148 -201.5t-173 -63.5q-134 0 -226 109t-92 272q0 172 82.5 277.5t214.5 105.5q97 0 172 -63t144 -203q67 138 146 204t175 66q134 0 226 -108.5t92 -272.5q0 -171 -82 -277t-213 -106q-96 0 -169 60t-149 201z" />
    <glyph glyph-name="plusminus" unicode="&#xb1;" horiz-adv-x="1706" 
d="M254 158h1198v-117h-1198v117zM795 1180h118v-344h539v-117h-539v-344h-118v344h-541v117h541v344z" />
    <glyph glyph-name="lessequal" unicode="&#x2264;" horiz-adv-x="1706" 
d="M262 150h1182v-117h-1182v117zM1444 1192v-125l-977 -324l977 -323v-125l-1182 399v101z" />
    <glyph glyph-name="greaterequal" unicode="&#x2265;" horiz-adv-x="1706" 
d="M262 150h1182v-117h-1182v117zM262 1192l1182 -397v-101l-1182 -399v125l979 323l-979 324v125z" />
    <glyph glyph-name="yen" unicode="&#xa5;" horiz-adv-x="1034" 
d="M455 383h-310q-11 0 -15.5 7.5t-4.5 31.5q0 28 7 34.5t40 6.5h12h269q0 42 -8 79.5t-25 73.5h-275q-11 0 -15.5 7.5t-4.5 31.5q0 28 6.5 34.5t40.5 6.5h12h197l-199 418q-26 56 -49 76t-57 20q-24 0 -51 -11t-33 -11q-9 0 -18 11.5t-9 23.5q0 14 52 32q34 12 57 21
q52 20 105 45t57 25q11 0 29 -45q9 -23 16 -37l270 -596q159 311 201.5 409t42.5 135q0 26 -19 37t-69 11q-12 0 -26.5 -1.5t-16.5 -1.5q-7 1 -11 7.5t-4 17.5q0 19 6.5 27t30.5 8l11 -1t22 -1q100 0 211 18q24 4 28 4q8 0 15.5 -10.5t7.5 -19.5q0 -28 -62 -152t-245 -459
h227q13 0 18 -7t5 -27q0 -32 -7.5 -38.5t-52.5 -7.5h-231q-16 -36 -23.5 -73.5t-7.5 -79.5h299q13 0 18 -7t5 -28q-1 -32 -8.5 -38.5t-51.5 -6.5h-266v-270q0 -34 -3 -45t-11 -19q-22 -23 -61 -48.5t-50 -25.5q-10 0 -14 13.5t-4 46.5v348z" />
    <glyph glyph-name="mu" unicode="&#xb5;" horiz-adv-x="1120" 
d="M164 193q-27 -136 -52 -339q-34 -272 -112 -272q-37 0 -58.5 23.5t-21.5 64.5q0 40 64.5 273.5t105.5 427.5l109 514h147l-104 -492q-6 -30 -9.5 -58.5t-3.5 -53.5q0 -83 42 -129t118 -46q98 0 163.5 68.5t94.5 200.5l111 510h149l-114 -531q-13 -59 -17 -87.5t-4 -49.5
q0 -48 26 -78t66 -30q35 0 65.5 18t51.5 51t41 93.5t39 60.5q12 0 19 -10t7 -27q0 -25 -11 -66.5t-29 -83.5q-38 -82 -95 -122.5t-135 -40.5q-68 0 -108.5 51t-40.5 139v23q-46 -110 -116 -164t-165 -54q-96 0 -152.5 54.5t-70.5 161.5z" />
    <glyph glyph-name="partialdiff" unicode="&#x2202;" horiz-adv-x="1044" 
d="M754 604q13 81 19.5 161.5t6.5 158.5q0 140 -39.5 216.5t-111.5 76.5q-53 0 -117 -63.5t-109 -63.5q-29 0 -51 21.5t-22 51.5q0 59 68 105.5t163 46.5q171 0 273 -152.5t102 -412.5q0 -335 -139 -555t-344 -220q-147 0 -241.5 106.5t-94.5 272.5q0 189 108.5 316
t266.5 127q99 0 162.5 -47t99.5 -146zM709 483q0 117 -45 180.5t-127 63.5q-113 0 -184.5 -127.5t-71.5 -333.5q0 -117 44 -178t128 -61q111 0 183.5 128t72.5 328z" />
    <glyph glyph-name="summation" unicode="&#x2211;" horiz-adv-x="1434" 
d="M12 1473h1135l98 -340h-74l-67 219q-8 27 -32 39t-73 12h-741l864 -850v-37l-858 -756h893q60 0 77.5 13t29.5 51l71 229h74l-135 -446h-1260v28l959 838l-961 950v50z" />
    <glyph glyph-name="product" unicode="&#x220f;" horiz-adv-x="1595" 
d="M57 1473h1479v-70h-186v-1727h186v-69h-555v69h197v1727h-762v-1727h196v-69h-555v69h187v1727h-187v70z" />
    <glyph glyph-name="pi" unicode="&#x3c0;" horiz-adv-x="1354" 
d="M1329 885l-35 -162h-329q-34 -179 -54 -452q-23 -314 -120 -314q-38 0 -58 24.5t-20 69.5q0 58 77 280.5t117 391.5h-375q-33 -177 -53 -448q-25 -318 -123 -318q-37 0 -57 25t-20 71q0 56 77.5 277t118.5 393h-133q-136 0 -180 -43.5t-72 -171.5h-59q37 207 117.5 292
t238.5 85h942z" />
    <glyph glyph-name="integral" unicode="&#x222b;" horiz-adv-x="1020" 
d="M301 -268q103 0 116 664q3 141 5 216q12 503 102 719.5t281 216.5q76 0 122 -39t46 -104q0 -48 -31 -77.5t-82 -29.5q-53 0 -85 35t-32 92q0 8 -6 15.5t-14 7.5q-105 0 -119 -634q-3 -157 -6 -245q-10 -308 -31.5 -461t-62.5 -247q-49 -114 -123 -173t-168 -59
q-73 0 -119.5 38t-46.5 97q0 53 31.5 84t83.5 31q47 0 79.5 -29t32.5 -67q0 -24 7.5 -37.5t19.5 -13.5z" />
    <glyph glyph-name="ordfeminine" unicode="&#xaa;" horiz-adv-x="754" 
d="M477 1190q-136 -21 -214.5 -69t-78.5 -109q0 -35 26 -56.5t66 -21.5q90 0 146.5 62.5t56.5 166.5q0 4 -1 13.5t-1 13.5zM464 980q-58 -56 -131 -88t-145 -32q-64 0 -100.5 28t-36.5 79q0 93 112 162t314 100v14q0 76 -32 114t-97 38q-42 0 -87.5 -11.5t-49.5 -11.5
q-2 0 -4 3t-2 7q0 56 44 78.5t157 22.5q104 0 146 -44t42 -163q0 -38 -3 -98.5t-3 -83.5q0 -69 18 -106t58 -54q19 -8 46 -9.5t27 -19.5q0 -13 -48.5 -29t-92.5 -16q-57 0 -89.5 30t-42.5 90z" />
    <glyph glyph-name="ordmasculine" unicode="&#xba;" horiz-adv-x="743" 
d="M342 1413q-86 0 -131 -53.5t-45 -155.5q0 -118 66.5 -197t162.5 -79q80 0 130 53.5t50 140.5q0 128 -65.5 209.5t-167.5 81.5zM385 1483q140 0 220.5 -81t80.5 -222q0 -138 -97.5 -231t-242.5 -93q-136 0 -213.5 77t-77.5 214q0 152 91 244t239 92z" />
    <glyph glyph-name="Omega" unicode="&#x3a9;" horiz-adv-x="1567" 
d="M1100 188v-26h313l66 203h61l-108 -365h-500q134 233 202 451t68 413q0 271 -107.5 416t-308.5 145t-309 -145t-108 -416q0 -195 68 -411t204 -453h-500l-110 365h61l68 -203h311v26q-165 203 -234 361.5t-69 327.5q0 272 174.5 446t443.5 174t443 -174.5t174 -445.5
q0 -169 -69 -327.5t-234 -361.5z" />
    <glyph glyph-name="ae" unicode="&#xe6;" horiz-adv-x="1432" 
d="M778 481q157 14 237.5 62t80.5 129q0 52 -31.5 83t-83.5 31q-88 0 -145.5 -80t-57.5 -206v-19zM637 410q-189 -18 -290 -73t-101 -140q0 -49 33.5 -79t89.5 -30q112 0 190 86t78 219v17zM756 725q49 74 116.5 110.5t153.5 36.5q115 0 184.5 -62.5t69.5 -166.5
q0 -65 -132.5 -122.5t-367.5 -94.5q6 -152 76.5 -231.5t198.5 -79.5q87 0 149 28t121 95q11 12 27 34q21 29 32 29q12 0 20.5 -8t8.5 -19q0 -21 -40.5 -84t-106.5 -141q-42 -49 -89.5 -61.5t-150.5 -12.5q-152 0 -244.5 57t-136.5 177q-78 -110 -179.5 -168.5t-213.5 -58.5
q-89 0 -137.5 41.5t-48.5 117.5q0 133 142 214t427 110v41q0 128 -40.5 183.5t-131.5 55.5q-55 0 -115.5 -16t-66.5 -16q-5 0 -7 4t-2 12q0 76 57 107.5t199 31.5q89 0 144.5 -35t83.5 -108z" />
    <glyph glyph-name="oslash" unicode="&#xf8;" horiz-adv-x="1020" 
d="M289 248l399 411q-47 57 -102.5 85t-118.5 28q-112 0 -171.5 -77t-59.5 -220q0 -56 13.5 -114t39.5 -113zM729 598l-401 -412q45 -53 98 -79.5t113 -26.5q106 0 173.5 74t67.5 192q0 70 -12.5 133t-38.5 119zM162 123q-38 50 -57 120t-19 156q0 211 123 342t317 131
q90 0 158 -23t121 -71l102 111q18 17 24.5 21.5t10.5 4.5q11 0 30 -13.5t19 -24.5q0 -5 -6 -14t-16 -19l-117 -121q39 -62 58.5 -133t19.5 -150q0 -196 -131 -329.5t-322 -133.5q-77 0 -145 23t-121 68l-66 -66q-32 -33 -56.5 -48t-43.5 -15q-11 0 -18 5.5t-7 14.5
q0 6 11 21t30 36z" />
    <glyph glyph-name="questiondown" unicode="&#xbf;" horiz-adv-x="848" 
d="M504 1294q-48 0 -79.5 31.5t-31.5 77.5t32.5 77t78.5 31t78 -31.5t32 -76.5t-32 -77t-78 -32zM182 190q0 66 104 310.5t165 435.5q20 65 37 145q15 70 42 70q18 0 25.5 -8t7.5 -27q0 -38 -15 -118t-42 -177q-32 -119 -92 -306.5t-60 -235.5q0 -62 34.5 -93.5t100.5 -31.5
q53 0 106.5 14t55.5 14h2q5 0 6.5 -10t2.5 -55q0 -11 1 -20q1 -2 1 -3v-24v-11q0 -36 -62 -60t-153 -24q-124 0 -195.5 58t-71.5 157z" />
    <glyph glyph-name="exclamdown" unicode="&#xa1;" horiz-adv-x="627" 
d="M315 1294q-41 0 -69.5 31.5t-28.5 77.5q0 45 29 76.5t69 31.5q41 0 70 -31.5t29 -76.5t-29 -77t-70 -32zM330 1180q17 0 23.5 -108t6.5 -507q0 -16 -1 -110.5t-1 -173.5q0 -1 -1 -16t-1 -29v-25q0 -61 -29 -103l-1 -1q-13 -18 -33 -49q-55 -83 -78 -83q-12 0 -17 13.5
t-5 56.5v25q0 452 44.5 781t92.5 329z" />
    <glyph glyph-name="logicalnot" unicode="&#xac;" horiz-adv-x="1706" 
d="M254 858h1198v-502h-115v385h-1083v117z" />
    <glyph glyph-name="radical" unicode="&#x221a;" horiz-adv-x="1288" 
d="M1106 1647h182v-82h-119l-594 -1606h-53l-323 893l-119 -43l-23 68l262 92l265 -729z" />
    <glyph glyph-name="florin" unicode="&#x192;" horiz-adv-x="684" 
d="M402 762h200q36 0 42.5 -6.5t6.5 -36.5q0 -35 -8.5 -42t-50.5 -7h-191q-14 -613 -20 -795t-12 -204q-6 -25 -38 -45.5t-55 -20.5q-25 0 -31 517q-3 331 -7 548h-152q-9 0 -12.5 4.5t-3.5 19.5v35q0 15 5.5 23t16.5 8q1 0 6.5 1t10.5 1h128q0 11 -0.5 25t-0.5 40
q0 262 97 404.5t273 142.5q60 0 75 -5t15 -30q0 -67 -6 -87.5t-24 -20.5q-12 0 -71 16.5t-93 16.5q-88 0 -98 -395q-1 -69 -2 -107z" />
    <glyph glyph-name="approxequal" unicode="&#x2248;" horiz-adv-x="1706" 
d="M1530 584v-131q-107 -75 -202 -110.5t-187 -35.5q-98 0 -288 69.5t-290 69.5q-82 0 -169.5 -35.5t-215.5 -123.5v131q108 74 203.5 110.5t183.5 36.5q111 0 301.5 -69.5t276.5 -69.5q85 0 173.5 35.5t213.5 122.5zM1530 934v-131q-104 -73 -200 -108.5t-187 -35.5
q-100 0 -290 69t-290 69q-83 0 -171.5 -36t-213.5 -122v131q106 73 202 109t185 36q111 0 300.5 -68.5t277.5 -68.5q87 0 175 35t212 121z" />
    <glyph glyph-name="Delta" unicode="&#x2206;" horiz-adv-x="1208" 
d="M555 1212l-389 -1042h768zM596 1497h29l555 -1497h-1151z" />
    <glyph glyph-name="guillemotleft" unicode="&#xab;" horiz-adv-x="1251" 
d="M688 434q195 -81 344.5 -180t149.5 -129q0 -10 -17.5 -14.5t-70.5 -4.5h-29q-29 0 -42.5 3.5t-21.5 11.5q-7 7 -27 28q-68 74 -130 121q-82 63 -173 109t-91 55q0 13 75 47.5t138 77.5q83 57 150.5 129t98.5 72h74q39 0 52 -3.5t14 -13.5q0 -29 -149.5 -128t-344.5 -181z
M182 434q195 -80 343.5 -179t148.5 -130q0 -10 -17 -14.5t-69 -4.5h-29q-30 0 -43.5 3.5t-22.5 11.5q-7 7 -26 28q-66 73 -129 121q-80 62 -172 108.5t-92 55.5q0 13 74 48t137 77q83 57 151 129t101 72h73q38 0 50.5 -3.5t13.5 -13.5q0 -29 -148.5 -128.5t-343.5 -180.5z
" />
    <glyph glyph-name="guillemotright" unicode="&#xbb;" horiz-adv-x="1251" 
d="M1069 434q-194 80 -344 179.5t-150 129.5q1 10 14 13.5t52 3.5h80q26 0 95 -72t151 -129q62 -42 136.5 -77t74.5 -48q0 -9 -92.5 -55.5t-172.5 -108.5q-63 -50 -131 -123l-26 -26q-10 -8 -23 -11.5t-41 -3.5h-28q-54 0 -71.5 4.5t-17.5 14.5q0 30 149.5 129t344.5 180z
M563 434q-194 80 -343.5 179.5t-149.5 129.5q0 10 12.5 13.5t50.5 3.5h80q26 0 95 -72t151 -129q62 -42 136.5 -77t74.5 -48q0 -9 -92 -55.5t-172 -108.5q-63 -49 -130 -122q-19 -21 -26 -27q-9 -8 -23 -11.5t-43 -3.5h-28q-53 0 -69.5 4.5t-16.5 14.5q0 30 149 129t344 180
z" />
    <glyph glyph-name="ellipsis" unicode="&#x2026;" horiz-adv-x="2048" 
d="M340 195q46 0 78.5 -33t32.5 -78q0 -46 -32.5 -77.5t-78.5 -31.5q-45 0 -77 32t-32 77t32 78t77 33zM1022 195q46 0 78.5 -33t32.5 -78q0 -46 -32.5 -77.5t-78.5 -31.5q-45 0 -77 32t-32 77t32 78t77 33zM1706 195q46 0 78.5 -33t32.5 -78q0 -46 -32.5 -77.5t-78.5 -31.5
q-45 0 -77 32t-32 77t32 78t77 33z" />
    <glyph glyph-name="nonbreakingspace" unicode="&#xa0;" horiz-adv-x="958" 
 />
    <glyph glyph-name="Agrave" unicode="&#xc0;" horiz-adv-x="1696" 
d="M1108 676q-51 110 -112 272t-128 363q-34 -95 -126.5 -264t-227.5 -383q31 -2 65.5 -2h104.5q114 0 219.5 3.5t204.5 10.5zM1151 573q-29 0 -71.5 -1t-57.5 -1q-350 0 -478 -39t-208 -147q-91 -122 -201 -295.5t-137 -173.5q-12 0 -19.5 7t-7.5 20q0 12 130 219.5
t243 400.5q219 378 330.5 609t111.5 307q0 10 -3 22.5t-3 14.5q0 12 68.5 49t93.5 37q11 0 67 -190.5t134 -387.5q220 -562 308.5 -707t174.5 -145q24 0 50 13.5t30 13.5q6 0 14.5 -11t8.5 -20q0 -6 -45 -34t-85 -56q-37 -28 -84.5 -69.5t-60.5 -41.5q-22 0 -84.5 123
t-218.5 483zM1055 1671q-12 0 -88 43.5t-155 100.5v0q-110 78 -110 176q0 28 9 42.5t26 14.5q8 0 76 -72t137 -137q46 -43 99 -88t53 -49q0 -10 -17.5 -20.5t-29.5 -10.5z" />
    <glyph glyph-name="Atilde" unicode="&#xc3;" horiz-adv-x="1696" 
d="M1108 676q-51 110 -112 272t-128 363q-34 -95 -126.5 -264t-227.5 -383q31 -2 65.5 -2h104.5q114 0 219.5 3.5t204.5 10.5zM1151 573q-29 0 -71.5 -1t-57.5 -1q-350 0 -478 -39t-208 -147q-91 -122 -201 -295.5t-137 -173.5q-12 0 -19.5 7t-7.5 20q0 12 130 219.5
t243 400.5q219 378 330.5 609t111.5 307q0 10 -3 22.5t-3 14.5q0 12 68.5 49t93.5 37q11 0 67 -190.5t134 -387.5q220 -562 308.5 -707t174.5 -145q24 0 50 13.5t30 13.5q6 0 14.5 -11t8.5 -20q0 -6 -45 -34t-85 -56q-37 -28 -84.5 -69.5t-60.5 -41.5q-22 0 -84.5 123
t-218.5 483zM774 1804q-14 3 -28 4.5t-29 1.5q-51 0 -71.5 -47t-45.5 -47q-13 0 -18 3t-5 9q0 63 49 136t115 73q17 0 41 -4t55 -12l109 -29q15 -4 29 -6t26 -2q57 0 77.5 46t45.5 46q14 0 19 -2t6 -8q0 -10 -9.5 -43t-23.5 -63q-24 -54 -55 -76.5t-80 -22.5q-24 0 -49 3.5
t-52 11.5z" />
    <glyph glyph-name="Otilde" unicode="&#xd5;" horiz-adv-x="1907" 
d="M967 61q274 0 444 183.5t170 480.5q0 306 -176 504t-447 198q-280 0 -458 -186.5t-178 -484.5q0 -303 182 -499t463 -196zM1788 750q0 -350 -237 -564.5t-625 -214.5q-371 0 -591 207.5t-220 554.5q0 344 237 560t615 216q373 0 597 -208t224 -551zM866 1804
q-14 3 -28 4.5t-29 1.5q-51 0 -71.5 -47t-45.5 -47q-13 0 -18 3t-5 9q0 63 49 136t115 73q17 0 41 -4t55 -12l109 -29q15 -4 29 -6t26 -2q57 0 77.5 46t45.5 46q14 0 19 -2t6 -8q0 -10 -9.5 -43t-23.5 -63q-24 -54 -55 -76.5t-80 -22.5q-24 0 -49 3.5t-52 11.5z" />
    <glyph glyph-name="OE" unicode="&#x152;" horiz-adv-x="2499" 
d="M1510 14q7 61 10.5 106.5t3.5 84.5q-105 -111 -268.5 -172.5t-356.5 -61.5q-358 0 -571 206.5t-213 553.5q0 346 229 562t596 216q199 0 349.5 -58.5t252.5 -176.5q-1 54 -6 105.5t-12 98.5q134 4 223 5.5t133 1.5q258 0 318.5 -7t60.5 -26q0 -18 -19.5 -66.5
t-31.5 -48.5q-5 0 -13 9t-14 12q-17 10 -60.5 14t-189.5 4q-106 0 -149.5 -1.5t-73.5 -4.5q-6 -104 -9 -238t-3 -296q73 4 171.5 6t211.5 2h123q34 0 46.5 -4t12.5 -15q0 -31 -20.5 -64.5t-49.5 -33.5q-2 0 -17 1q-116 7 -251 7q-74 0 -128.5 -2.5t-98.5 -7.5v-6
q-13 -342 -13 -506v-76q126 -16 241 -24.5t214 -8.5q137 0 240 24q12 3 14 3q6 0 10 -3t4 -7q0 -16 -29.5 -46.5t-66.5 -47.5q-29 -13 -151 -20t-324 -7q-124 0 -193.5 3.5t-131.5 10.5zM940 61q266 0 432 183.5t166 480.5q0 307 -171 504.5t-433 197.5q-271 0 -445 -187.5
t-174 -483.5q0 -303 177 -499t448 -196z" />
    <glyph glyph-name="oe" unicode="&#x153;" horiz-adv-x="1556" 
d="M903 455q145 14 231.5 75t86.5 146q0 48 -32.5 79t-82.5 31q-86 0 -144.5 -80t-58.5 -200v-27v-24zM221 473q0 -168 89 -280.5t216 -112.5q107 0 173.5 76t66.5 200q0 183 -87.5 299.5t-223.5 116.5q-114 0 -174 -76.5t-60 -222.5zM848 711q57 76 137 118.5t166 42.5
q115 0 184.5 -62.5t69.5 -166.5q0 -61 -132 -131.5t-364 -132.5q16 -130 85 -197t188 -67q86 0 149 28t121 95q10 12 24 32q23 31 35 31q11 0 19 -8t8 -19q0 -21 -40.5 -84t-106.5 -141q-42 -49 -90 -61.5t-150 -12.5q-127 0 -212 39.5t-134 120.5q-67 -79 -154 -119.5
t-190 -40.5q-182 0 -284.5 111t-102.5 307q0 216 121 347.5t317 131.5q111 0 195 -40.5t141 -120.5z" />
    <glyph glyph-name="endash" unicode="&#x2013;" 
d="M500 522q218 0 430 -2h43q38 0 44.5 -7t6.5 -34q0 -57 -5.5 -68.5t-35.5 -11.5q-6 0 -43 2q-216 7 -440 7q-236 0 -449 -8q-28 -1 -33 -1q-11 1 -14.5 5.5t-3.5 17.5v37q0 43 9.5 53t45.5 10q9 0 36 -1t46 -1q61 0 181.5 1t181.5 1z" />
    <glyph glyph-name="emdash" unicode="&#x2014;" horiz-adv-x="2048" 
d="M0 403v117h2050v-117h-2050z" />
    <glyph glyph-name="quotedblleft" unicode="&#x201c;" horiz-adv-x="958" 
d="M530 918q0 52 49.5 144t186.5 288q14 19 37 53q74 108 119 108q14 0 20 -3.5t6 -10.5q0 -6 -72 -143t-139 -275q-37 -77 -82 -187q-50 -120 -77 -120q-22 0 -35 39t-13 107zM90 918q0 52 49 144t187 288q13 19 36 53q75 108 119 108q15 0 21 -3.5t6 -10.5
q0 -6 -72.5 -143t-138.5 -275q-37 -77 -83 -187q-49 -120 -77 -120q-21 0 -34 39t-13 107z" />
    <glyph glyph-name="quotedblright" unicode="&#x201d;" horiz-adv-x="958" 
d="M913 1368q0 -52 -49 -144t-188 -290q-17 -24 -43 -63q-68 -99 -109 -99q-15 0 -21.5 3.5t-6.5 10.5q0 8 62.5 126.5t115.5 226.5q48 99 106 235q58 137 82 137q25 0 38 -37t13 -106zM473 1368q0 -52 -49 -144t-188 -290q-17 -24 -44 -63q-67 -99 -108 -99q-15 0 -23 4
t-8 10q0 8 63 125t117 228q48 99 106 235q59 137 83 137t37.5 -37t13.5 -106z" />
    <glyph glyph-name="quoteleft" unicode="&#x2018;" horiz-adv-x="516" 
d="M90 918q0 52 49 144t187 288q13 19 36 53q75 108 119 108q15 0 21 -3.5t6 -10.5q0 -6 -72.5 -143t-138.5 -275q-37 -77 -83 -187q-49 -120 -77 -120q-21 0 -34 39t-13 107z" />
    <glyph glyph-name="quoteright" unicode="&#x2019;" horiz-adv-x="516" 
d="M473 1368q0 -52 -49 -144t-188 -290q-17 -24 -44 -63q-67 -99 -108 -99q-15 0 -23 4t-8 10q0 8 63 125t117 228q48 99 106 235q59 137 83 137t37.5 -37t13.5 -106z" />
    <glyph glyph-name="divide" unicode="&#xf7;" horiz-adv-x="1706" 
d="M854 365q47 0 81 -34t34 -81t-33.5 -81t-81.5 -34t-81.5 33.5t-33.5 81.5t34 81.5t81 33.5zM254 670h1198v-117h-1198v117zM854 1085q48 0 81.5 -33.5t33.5 -80.5q0 -48 -33.5 -81.5t-81.5 -33.5q-49 0 -82 33.5t-33 81.5q0 47 34 80.5t81 33.5z" />
    <glyph glyph-name="lozenge" unicode="&#x25ca;" horiz-adv-x="1012" 
d="M506 1409l-385 -817l385 -825l385 825zM506 1653l500 -1061l-500 -1069l-500 1069z" />
    <glyph glyph-name="ydieresis" unicode="&#xff;" horiz-adv-x="1038" 
d="M412 152l-230 475q-29 58 -51 77t-55 19q-24 0 -51 -11.5t-33 -11.5q-9 0 -18 13t-9 24q0 14 44 29q33 11 56 20q59 24 120.5 51t66.5 27q12 0 31 -46q8 -20 14 -34l264 -587l344 591q14 24 31 57q23 44 37 44q12 0 18 -12.5t6 -36.5q0 -4 1 -30t1 -50q0 -65 -28 -108
q-10 -15 -17 -25l-635 -994q-16 -24 -29.5 -31.5t-51.5 -7.5q-10 1 -14 3.5t-5 9.5q0 6 4.5 15.5t15.5 26.5l171 290l4 7q39 68 39 93q0 28 -35 99q-4 9 -6 14zM696 1237q40 0 69 -29t29 -69q0 -43 -28 -72t-70 -29t-71 29t-29 72q0 39 30 68.5t70 29.5zM344 1237
q40 0 70 -29.5t30 -68.5q0 -43 -29 -72t-71 -29t-70 29t-28 72q0 40 29 69t69 29z" />
    <glyph glyph-name="Ydieresis" unicode="&#x178;" horiz-adv-x="1565" 
d="M856 547q113 208 281 525q233 439 258 439q18 0 26.5 -32t8.5 -103q0 -48 -7.5 -80t-25.5 -65q-6 -12 -63 -106q-304 -505 -607 -1039q-36 -65 -123.5 -219.5t-126.5 -224.5v-1q-19 -34 -57 -34q-11 0 -18 2.5t-7 7.5q0 24 117 252l53 106q26 51 70 135q86 164 86 197
q0 67 -79.5 235t-291.5 539l-17 30q-163 288 -243 288q-15 0 -41 -3t-37 -3q-12 0 -16 4.5t-4 21.5q0 19 11 24t67 9q121 9 241 30q25 5 29 5q5 0 158.5 -314.5t357.5 -625.5zM958 1923q40 0 69 -29t29 -69q0 -43 -28 -72t-70 -29t-71 29t-29 72q0 39 30 68.5t70 29.5z
M606 1923q40 0 70 -29.5t30 -68.5q0 -43 -29 -72t-71 -29t-70 29t-28 72q0 40 29 69t69 29z" />
    <glyph glyph-name="fraction" unicode="&#x2215;" horiz-adv-x="674" 
d="M-156 16q0 17 89 165t331 532q216 340 336.5 514t140.5 174q19 0 52.5 -25t33.5 -41t-223.5 -338.5t-392.5 -572.5l-12 -18q-294 -433 -312 -433q-13 0 -28 13.5t-15 29.5z" />
    <glyph glyph-name="currency" unicode="&#xa4;" horiz-adv-x="1198" 
d="M764 487h-418q35 -188 144 -297.5t268 -109.5q125 0 237 49t197 141q6 0 8 2q1 0 1.5 -0.5t0.5 -3.5l1 -3.5t1 -6.5q0 -14 -3.5 -33.5t-6.5 -23.5q-88 -112 -205 -169t-260 -57q-213 0 -361.5 141.5t-183.5 370.5h-137q-12 0 -16 7.5t-4 31.5q0 29 6.5 35t40.5 6l102 1
q-1 6 -1.5 14t-0.5 24q0 28 1.5 56.5t4.5 58.5h-133q-12 0 -16 7.5t-4 31.5q0 28 7 34.5t40 6.5h119q50 256 212 406.5t398 150.5q102 0 203.5 -42t101.5 -85q0 -11 -22 -59q-15 -33 -23 -54q-7 -16 -18 -45q-18 -47 -29 -47q-13 0 -21.5 6.5t-9.5 18.5q0 2 5 22t5 37
q0 70 -59 119t-145 49q-151 0 -278 -132t-165 -345h524q14 0 18.5 -7t4.5 -28q0 -31 -7.5 -38t-51.5 -7h-498q-3 -36 -3.5 -53.5t-0.5 -34.5q0 -11 1 -32.5t1 -33.5h465q13 0 17.5 -7t4.5 -28q0 -31 -7 -37.5t-52 -7.5z" />
    <glyph glyph-name="guilsinglleft" unicode="&#x2039;" horiz-adv-x="743" 
d="M182 434q195 -80 343.5 -179t148.5 -130q0 -10 -17 -14.5t-69 -4.5h-29q-30 0 -43.5 3.5t-22.5 11.5q-7 7 -26 28q-66 73 -129 121q-80 62 -172 108.5t-92 55.5q0 13 74 48t137 77q83 57 151 129t101 72h73q38 0 50.5 -3.5t13.5 -13.5q0 -29 -148.5 -128.5t-343.5 -180.5
z" />
    <glyph glyph-name="guilsinglright" unicode="&#x203a;" horiz-adv-x="743" 
d="M563 434q-194 80 -343.5 179.5t-149.5 129.5q0 9 13.5 13t51.5 4h78q26 0 95 -72t151 -129q62 -43 137.5 -77.5t75.5 -47.5q0 -9 -93 -55t-173 -109q-63 -49 -130 -122q-19 -21 -26 -27q-9 -8 -23 -11.5t-43 -3.5h-28q-53 0 -69.5 4.5t-16.5 14.5q0 30 149 129t344 180z
" />
    <glyph glyph-name="fi" unicode="&#xf001;" horiz-adv-x="1006" 
d="M350 739q-3 -134 -9 -367q-15 -676 -23 -709q-6 -26 -39.5 -50.5t-57.5 -24.5q-19 0 -27 216.5t-8 885.5q0 31 -9 39t-38 8h-26q-31 0 -39 5t-8 26v29q0 15 6.5 23.5t17.5 8.5h14l78 1q10 310 111 462t299 152q106 0 176 -58t70 -145q0 -48 -26 -77t-69 -29q-38 0 -64 27
t-26 67q0 60 72 93q14 7 14 9q0 23 -43 44.5t-102 21.5q-135 0 -189.5 -106.5t-54.5 -391.5v-70h230q143 0 226 29q8 2 9 2q9 0 20 -12.5t11 -24.5q0 -3 -2 -25q-8 -137 -8 -286v-459q0 -23 -60.5 -50.5t-87.5 -27.5q-9 0 -12.5 15t-3.5 86v514q0 106 -22.5 127.5
t-104.5 21.5h-195z" />
    <glyph glyph-name="fl" unicode="&#xf002;" horiz-adv-x="1079" 
d="M582 829q35 0 41 -6t6 -37q0 -33 -7.5 -40t-52.5 -7h-219q-3 -134 -9 -367q-15 -676 -23 -709q-6 -26 -39.5 -50.5t-57.5 -24.5q-19 0 -27 216.5t-8 885.5q0 31 -9 39t-38 8h-26q-31 0 -39 5t-8 26v29q0 15 6.5 23.5t17.5 8.5h14h78v19q0 292 95 444t278 152
q66 0 120.5 -40t57.5 -40q43 0 131 31.5t103 31.5q8 0 14 -8.5t6 -21.5q0 -9 -33.5 -29t-48.5 -45q-19 -33 -27 -146t-8 -456q0 -88 -1 -211.5t-1 -161.5q0 -147 11.5 -194.5t44.5 -47.5q25 0 56 10.5t32 10.5q8 0 15 -10t7 -23q0 -20 -56 -37q-43 -14 -67 -24
q-66 -29 -126 -67t-66 -38q-14 0 -24.5 10.5t-10.5 24.5q0 2 3 14q32 129 32 365v25l-2 491q-2 349 -39 442t-129 93q-106 0 -152.5 -130t-46.5 -434h232z" />
    <glyph glyph-name="daggerdbl" unicode="&#x2021;" 
d="M446 975q-73 -5 -131.5 -7.5t-81.5 -2.5q-20 0 -78.5 32t-58.5 45q1 23 184 25q100 0 164 2q0 31 -1 72t-1 51v78q0 32 34 101q3 7 5 11q11 23 27 59q31 72 51 72q11 0 16 -11.5t5 -41.5q0 -3 1 -40t1 -72q0 -44 -3 -183q-1 -62 -1 -96q203 -9 276.5 -19t73.5 -28
q0 -19 -153 -28q-115 -6 -195 -13q-3 -189 -5.5 -278.5t-6.5 -157.5q198 -7 279 -18t81 -31q0 -21 -182 -29q-111 -6 -183 -11l-4 -46q-38 -482 -70 -482q-24 0 -35 369q-4 98 -5 154q-96 -7 -149.5 -10t-66.5 -3q-20 0 -78.5 33.5t-58.5 46.5q0 11 17 16t53 5q1 0 95 3
t187 3q-1 33 -1.5 82.5t-0.5 183.5v164z" />
    <glyph glyph-name="periodcentered" unicode="&#xb7;" horiz-adv-x="516" 
d="M256 535q46 0 78.5 -33t32.5 -78q0 -46 -32.5 -77.5t-78.5 -31.5q-45 0 -77 32t-32 77t32 78t77 33z" />
    <glyph glyph-name="quotesinglbase" unicode="&#x201a;" horiz-adv-x="516" 
d="M379 279q0 -52 -46.5 -139t-191.5 -294q-16 -22 -41 -59q-69 -102 -112 -102q-15 0 -22 3.5t-7 10.5t63 124t117 228q49 99 107 235t82 136t37.5 -37t13.5 -106z" />
    <glyph glyph-name="quotedblbase" unicode="&#x201e;" horiz-adv-x="958" 
d="M819 279q0 -52 -46.5 -139t-190.5 -294q-16 -22 -41 -59q-70 -102 -113 -102q-15 0 -20.5 3t-6.5 11q0 8 63 126t116 226q48 99 106 235t82 136q25 0 38 -37t13 -106zM379 279q0 -52 -46.5 -139t-191.5 -294q-16 -22 -41 -59q-69 -102 -112 -102q-15 0 -22 3.5t-7 10.5
t63 124t117 228q49 99 107 235t82 136t37.5 -37t13.5 -106z" />
    <glyph glyph-name="perthousand" unicode="&#x2030;" horiz-adv-x="2644" 
d="M2200 74q98 0 153 66.5t55 185.5q0 127 -53 197.5t-149 70.5q-98 0 -158.5 -74t-60.5 -194q0 -117 57 -184.5t156 -67.5zM2202 -25q-162 0 -252 90.5t-90 251.5q0 175 101 276t275 101q145 0 224.5 -90t79.5 -256q0 -165 -94.5 -269t-243.5 -104zM1368 74
q98 0 153.5 66.5t55.5 185.5q0 127 -54 197.5t-151 70.5t-157 -74t-60 -194q0 -117 57.5 -184.5t155.5 -67.5zM1370 -25q-161 0 -251.5 90.5t-90.5 251.5q0 175 101 276t276 101q145 0 223 -90t78 -256t-93.5 -269.5t-242.5 -103.5zM403 756q99 0 154 66.5t55 185.5
q0 127 -54 197.5t-150 70.5q-97 0 -157.5 -74t-60.5 -194q0 -117 57.5 -184.5t155.5 -67.5zM741 1030q0 -167 -94 -271t-248 -104q-156 0 -246 91.5t-90 250.5q0 175 101 277t274 102q145 0 224 -90t79 -256zM416 16q0 18 97.5 179.5t322.5 517.5q215 340 336 514t141 174
q18 0 53 -25t35 -41t-222 -334t-397 -577l-63 -93q-242 -358 -258 -358q-14 0 -29.5 13.5t-15.5 29.5z" />
    <glyph glyph-name="Acircumflex" unicode="&#xc2;" horiz-adv-x="1696" 
d="M1108 676q-51 110 -112 272t-128 363q-34 -95 -126.5 -264t-227.5 -383q31 -2 65.5 -2h104.5q114 0 219.5 3.5t204.5 10.5zM1151 573q-29 0 -71.5 -1t-57.5 -1q-350 0 -478 -39t-208 -147q-91 -122 -201 -295.5t-137 -173.5q-12 0 -19.5 7t-7.5 20q0 12 130 219.5
t243 400.5q219 378 330.5 609t111.5 307q0 10 -3 22.5t-3 14.5q0 12 68.5 49t93.5 37q11 0 67 -190.5t134 -387.5q220 -562 308.5 -707t174.5 -145q24 0 50 13.5t30 13.5q6 0 14.5 -11t8.5 -20q0 -6 -45 -34t-85 -56q-37 -28 -84.5 -69.5t-60.5 -41.5q-22 0 -84.5 123
t-218.5 483zM661 1681q-3 -4 -11 -7t-17 -3h-21q-5 0 -8.5 2.5t-3.5 5.5q0 4 1 6.5t3 6.5l217 348q8 12 16 17t19 5q6 0 14 -6t15 -16l235 -350q3 -6 3.5 -8t0.5 -3q0 -4 -4 -6t-10 -2h-101q-11 0 -17.5 2.5t-10.5 7.5l-164 236z" />
    <glyph glyph-name="Ecircumflex" unicode="&#xca;" horiz-adv-x="1286" 
d="M256 15q18 271 27.5 540t9.5 532q0 144 -6 217.5t-19 112.5q-17 0 -35 1l-18 1q-32 0 -68 -3q-9 -1 -12 -1q-18 0 -24 5.5t-7 21.5q0 18 9 25.5t35 7.5q142 5 273.5 7.5t258.5 2.5q216 0 277 -7t61 -26q0 -18 -19.5 -66.5t-31.5 -48.5q-5 0 -13.5 9t-13.5 12
q-17 10 -60.5 14t-189.5 4q-106 0 -149.5 -1.5t-73.5 -4.5q-7 -120 -10.5 -254.5t-3.5 -279.5q72 3 171.5 5.5t213.5 2.5h123q33 0 45 -4t12 -15q0 -31 -20.5 -64.5t-49.5 -33.5q-2 0 -17 1q-115 7 -249 7q-75 0 -130 -2.5t-99 -7.5q-6 -143 -8.5 -262t-2.5 -227v-99
q128 -16 239 -24.5t210 -8.5q198 0 333 31q11 2 13 2q6 0 10 -3.5t4 -8.5q0 -16 -29.5 -46t-66.5 -48q-27 -14 -185.5 -22.5t-400.5 -8.5q-95 0 -169 3.5t-144 11.5zM442 1681q-3 -4 -11 -7t-17 -3h-21q-5 0 -8.5 2.5t-3.5 5.5q0 4 1 6.5t3 6.5l217 348q8 12 16 17t19 5
q6 0 14 -6t15 -16l235 -350q3 -6 3.5 -8t0.5 -3q0 -4 -4 -6t-10 -2h-101q-11 0 -17.5 2.5t-10.5 7.5l-164 236z" />
    <glyph glyph-name="Aacute" unicode="&#xc1;" horiz-adv-x="1696" 
d="M1108 676q-51 110 -112 272t-128 363q-34 -95 -126.5 -264t-227.5 -383q31 -2 65.5 -2h104.5q114 0 219.5 3.5t204.5 10.5zM1151 573q-29 0 -71.5 -1t-57.5 -1q-350 0 -478 -39t-208 -147q-91 -122 -201 -295.5t-137 -173.5q-12 0 -19.5 7t-7.5 20q0 12 130 219.5
t243 400.5q219 378 330.5 609t111.5 307q0 10 -3 22.5t-3 14.5q0 12 68.5 49t93.5 37q11 0 67 -190.5t134 -387.5q220 -562 308.5 -707t174.5 -145q24 0 50 13.5t30 13.5q6 0 14.5 -11t8.5 -20q0 -6 -45 -34t-85 -56q-37 -28 -84.5 -69.5t-60.5 -41.5q-22 0 -84.5 123
t-218.5 483zM1104 1991q0 -92 -89 -160l-5 -4q-80 -59 -163.5 -107.5t-95.5 -48.5t-29.5 10.5t-17.5 20.5q0 4 43.5 41.5t75.5 66.5q83 77 161 157.5t85 80.5q18 0 26.5 -14t8.5 -43z" />
    <glyph glyph-name="Edieresis" unicode="&#xcb;" horiz-adv-x="1286" 
d="M256 15q18 271 27.5 540t9.5 532q0 144 -6 217.5t-19 112.5q-17 0 -35 1l-18 1q-32 0 -68 -3q-9 -1 -12 -1q-18 0 -24 5.5t-7 21.5q0 18 9 25.5t35 7.5q142 5 273.5 7.5t258.5 2.5q216 0 277 -7t61 -26q0 -18 -19.5 -66.5t-31.5 -48.5q-5 0 -13.5 9t-13.5 12
q-17 10 -60.5 14t-189.5 4q-106 0 -149.5 -1.5t-73.5 -4.5q-7 -120 -10.5 -254.5t-3.5 -279.5q72 3 171.5 5.5t213.5 2.5h123q33 0 45 -4t12 -15q0 -31 -20.5 -64.5t-49.5 -33.5q-2 0 -17 1q-115 7 -249 7q-75 0 -130 -2.5t-99 -7.5q-6 -143 -8.5 -262t-2.5 -227v-99
q128 -16 239 -24.5t210 -8.5q198 0 333 31q11 2 13 2q6 0 10 -3.5t4 -8.5q0 -16 -29.5 -46t-66.5 -48q-27 -14 -185.5 -22.5t-400.5 -8.5q-95 0 -169 3.5t-144 11.5zM819 1923q40 0 69 -29t29 -69q0 -43 -28 -72t-70 -29t-71 29t-29 72q0 39 30 68.5t70 29.5zM467 1923
q40 0 70 -29.5t30 -68.5q0 -43 -29 -72t-71 -29t-70 29t-28 72q0 40 29 69t69 29z" />
    <glyph glyph-name="Egrave" unicode="&#xc8;" horiz-adv-x="1286" 
d="M256 15q18 271 27.5 540t9.5 532q0 144 -6 217.5t-19 112.5q-17 0 -35 1l-18 1q-32 0 -68 -3q-9 -1 -12 -1q-18 0 -24 5.5t-7 21.5q0 18 9 25.5t35 7.5q142 5 273.5 7.5t258.5 2.5q216 0 277 -7t61 -26q0 -18 -19.5 -66.5t-31.5 -48.5q-5 0 -13.5 9t-13.5 12
q-17 10 -60.5 14t-189.5 4q-106 0 -149.5 -1.5t-73.5 -4.5q-7 -120 -10.5 -254.5t-3.5 -279.5q72 3 171.5 5.5t213.5 2.5h123q33 0 45 -4t12 -15q0 -31 -20.5 -64.5t-49.5 -33.5q-2 0 -17 1q-115 7 -249 7q-75 0 -130 -2.5t-99 -7.5q-6 -143 -8.5 -262t-2.5 -227v-99
q128 -16 239 -24.5t210 -8.5q198 0 333 31q11 2 13 2q6 0 10 -3.5t4 -8.5q0 -16 -29.5 -46t-66.5 -48q-27 -14 -185.5 -22.5t-400.5 -8.5q-95 0 -169 3.5t-144 11.5zM836 1671q-12 0 -88 43.5t-155 100.5v0q-110 78 -110 176q0 28 9 42.5t26 14.5q8 0 76 -72t137 -137
q46 -43 99 -88t53 -49q0 -10 -17.5 -20.5t-29.5 -10.5z" />
    <glyph glyph-name="Iacute" unicode="&#xcd;" horiz-adv-x="741" 
d="M446 1509q10 0 24.5 -11.5t14.5 -18.5q0 -3 -1 -10q-8 -44 -11 -91q-8 -121 -13 -362t-5 -527v-145q0 -153 9 -195.5t36 -42.5q28 0 71 16.5t56 16.5q9 0 15.5 -8.5t6.5 -21.5q0 -27 -73 -45q-45 -10 -72 -19q-91 -30 -171 -70.5t-81 -40.5q-10 0 -17.5 8.5t-7.5 20.5
q0 7 20 30.5t25 61.5q9 58 13 246t4 553q0 265 -5.5 376.5t-17.5 133.5q-7 13 -28 26.5t-21 22.5q0 17 31 25q12 3 21 6q56 19 114.5 42t62.5 23zM613 1991q0 -92 -89 -160l-5 -4q-80 -59 -163.5 -107.5t-95.5 -48.5t-29.5 10.5t-17.5 20.5q0 4 43.5 41.5t75.5 66.5
q83 77 161 157.5t85 80.5q18 0 26.5 -14t8.5 -43z" />
    <glyph glyph-name="Icircumflex" unicode="&#xce;" horiz-adv-x="741" 
d="M446 1509q10 0 24.5 -11.5t14.5 -18.5q0 -3 -1 -10q-8 -44 -11 -91q-8 -121 -13 -362t-5 -527v-145q0 -153 9 -195.5t36 -42.5q28 0 71 16.5t56 16.5q9 0 15.5 -8.5t6.5 -21.5q0 -27 -73 -45q-45 -10 -72 -19q-91 -30 -171 -70.5t-81 -40.5q-10 0 -17.5 8.5t-7.5 20.5
q0 7 20 30.5t25 61.5q9 58 13 246t4 553q0 265 -5.5 376.5t-17.5 133.5q-7 13 -28 26.5t-21 22.5q0 17 31 25q12 3 21 6q56 19 114.5 42t62.5 23zM170 1681q-3 -4 -11 -7t-17 -3h-21q-5 0 -8.5 2.5t-3.5 5.5q0 4 1 6.5t3 6.5l217 348q8 12 16 17t19 5q6 0 14 -6t15 -16
l235 -350q3 -6 3.5 -8t0.5 -3q0 -4 -4 -6t-10 -2h-101q-11 0 -17.5 2.5t-10.5 7.5l-164 236z" />
    <glyph glyph-name="Idieresis" unicode="&#xcf;" horiz-adv-x="741" 
d="M446 1509q10 0 24.5 -11.5t14.5 -18.5q0 -3 -1 -10q-8 -44 -11 -91q-8 -121 -13 -362t-5 -527v-145q0 -153 9 -195.5t36 -42.5q28 0 71 16.5t56 16.5q9 0 15.5 -8.5t6.5 -21.5q0 -27 -73 -45q-45 -10 -72 -19q-91 -30 -171 -70.5t-81 -40.5q-10 0 -17.5 8.5t-7.5 20.5
q0 7 20 30.5t25 61.5q9 58 13 246t4 553q0 265 -5.5 376.5t-17.5 133.5q-7 13 -28 26.5t-21 22.5q0 17 31 25q12 3 21 6q56 19 114.5 42t62.5 23zM547 1923q40 0 69 -29t29 -69q0 -43 -28 -72t-70 -29t-71 29t-29 72q0 39 30 68.5t70 29.5zM195 1923q40 0 70 -29.5t30 -68.5
q0 -43 -29 -72t-71 -29t-70 29t-28 72q0 40 29 69t69 29z" />
    <glyph glyph-name="Igrave" unicode="&#xcc;" horiz-adv-x="741" 
d="M446 1509q10 0 24.5 -11.5t14.5 -18.5q0 -3 -1 -10q-8 -44 -11 -91q-8 -121 -13 -362t-5 -527v-145q0 -153 9 -195.5t36 -42.5q28 0 71 16.5t56 16.5q9 0 15.5 -8.5t6.5 -21.5q0 -27 -73 -45q-45 -10 -72 -19q-91 -30 -171 -70.5t-81 -40.5q-10 0 -17.5 8.5t-7.5 20.5
q0 7 20 30.5t25 61.5q9 58 13 246t4 553q0 265 -5.5 376.5t-17.5 133.5q-7 13 -28 26.5t-21 22.5q0 17 31 25q12 3 21 6q56 19 114.5 42t62.5 23zM564 1671q-12 0 -88 43.5t-155 100.5v0q-110 78 -110 176q0 28 9 42.5t26 14.5q8 0 76 -72t137 -137q46 -43 99 -88t53 -49
q0 -10 -17.5 -20.5t-29.5 -10.5z" />
    <glyph glyph-name="Oacute" unicode="&#xd3;" horiz-adv-x="1907" 
d="M967 61q274 0 444 183.5t170 480.5q0 306 -176 504t-447 198q-280 0 -458 -186.5t-178 -484.5q0 -303 182 -499t463 -196zM1788 750q0 -350 -237 -564.5t-625 -214.5q-371 0 -591 207.5t-220 554.5q0 344 237 560t615 216q373 0 597 -208t224 -551zM1196 1991
q0 -92 -89 -160l-5 -4q-80 -59 -163.5 -107.5t-95.5 -48.5t-29.5 10.5t-17.5 20.5q0 4 43.5 41.5t75.5 66.5q83 77 161 157.5t85 80.5q18 0 26.5 -14t8.5 -43z" />
    <glyph glyph-name="Ocircumflex" unicode="&#xd4;" horiz-adv-x="1907" 
d="M967 61q274 0 444 183.5t170 480.5q0 306 -176 504t-447 198q-280 0 -458 -186.5t-178 -484.5q0 -303 182 -499t463 -196zM1788 750q0 -350 -237 -564.5t-625 -214.5q-371 0 -591 207.5t-220 554.5q0 344 237 560t615 216q373 0 597 -208t224 -551zM753 1681
q-3 -4 -11 -7t-17 -3h-21q-5 0 -8.5 2.5t-3.5 5.5q0 4 1 6.5t3 6.5l217 348q8 12 16 17t19 5q6 0 14 -6t15 -16l235 -350q3 -6 3.5 -8t0.5 -3q0 -4 -4 -6t-10 -2h-101q-11 0 -17.5 2.5t-10.5 7.5l-164 236z" />
    <glyph glyph-name="apple" unicode="&#xf000;" horiz-adv-x="1618" 
d="M836 1216q-1 6 -1.5 14t-0.5 23q0 124 95 229.5t236 131.5q1 -10 1.5 -23t0.5 -39q0 -131 -103.5 -234.5t-203.5 -103.5h-8q-3 0 -7.5 1t-8.5 1zM1505 403q-114 -247 -205 -342.5t-204 -95.5q-50 0 -131.5 33t-122.5 33q-45 0 -131 -33t-127 -33q-64 0 -128.5 44
t-129.5 132q-102 140 -157.5 295.5t-55.5 300.5q0 219 125 356.5t323 137.5q68 0 155 -34t124 -34q34 0 121.5 35t152.5 35q110 0 198 -40t161 -124q-102 -65 -151.5 -145.5t-49.5 -182.5q0 -113 60 -200t173 -138z" />
    <glyph glyph-name="Ograve" unicode="&#xd2;" horiz-adv-x="1907" 
d="M967 61q274 0 444 183.5t170 480.5q0 306 -176 504t-447 198q-280 0 -458 -186.5t-178 -484.5q0 -303 182 -499t463 -196zM1788 750q0 -350 -237 -564.5t-625 -214.5q-371 0 -591 207.5t-220 554.5q0 344 237 560t615 216q373 0 597 -208t224 -551zM1147 1671
q-12 0 -88 43.5t-155 100.5v0q-110 78 -110 176q0 28 9 42.5t26 14.5q8 0 76 -72t137 -137q46 -43 99 -88t53 -49q0 -10 -17.5 -20.5t-29.5 -10.5z" />
    <glyph glyph-name="Uacute" unicode="&#xda;" horiz-adv-x="1882" 
d="M1380 166q-34 -15 -98 -43q-339 -150 -514 -150q-126 0 -225.5 31.5t-157.5 89.5q-62 62 -88.5 145t-26.5 273v55q0 94 3 272t3 261q0 191 -20 288q-2 9 -2 11q0 14 49 27q27 7 42 12q77 24 149.5 51t74.5 27q10 0 18.5 -11.5t8.5 -25.5q0 -16 -41.5 -44t-60.5 -65
q-27 -52 -41.5 -217t-14.5 -414v-143q0 -152 14 -225t48 -121q45 -65 146 -101t237 -36q120 0 242 34.5t259 108.5q8 167 12.5 376t4.5 443q0 144 -7 202.5t-24 78.5q-3 3 -21 13.5t-18 27.5q0 18 39 26q28 7 45 13q59 20 117 45.5t61 25.5q9 0 19 -14t10 -27q0 -2 -4 -11
q-23 -62 -31 -146q-13 -166 -19.5 -394t-6.5 -528q0 -218 48 -306q5 -9 5 -11q0 -9 -9.5 -14.5t-41.5 -14.5q-53 -14 -107.5 -34.5t-58.5 -20.5q-14 0 -20.5 8t-6.5 29q0 1 4 38.5t4 75.5q0 1 1 4q1 12 1 25zM1184 1991q0 -92 -89 -160l-5 -4q-80 -59 -163.5 -107.5
t-95.5 -48.5t-29.5 10.5t-17.5 20.5q0 4 43.5 41.5t75.5 66.5q83 77 161 157.5t85 80.5q18 0 26.5 -14t8.5 -43z" />
    <glyph glyph-name="Ucircumflex" unicode="&#xdb;" horiz-adv-x="1882" 
d="M1380 166q-34 -15 -98 -43q-339 -150 -514 -150q-126 0 -225.5 31.5t-157.5 89.5q-62 62 -88.5 145t-26.5 273v55q0 94 3 272t3 261q0 191 -20 288q-2 9 -2 11q0 14 49 27q27 7 42 12q77 24 149.5 51t74.5 27q10 0 18.5 -11.5t8.5 -25.5q0 -16 -41.5 -44t-60.5 -65
q-27 -52 -41.5 -217t-14.5 -414v-143q0 -152 14 -225t48 -121q45 -65 146 -101t237 -36q120 0 242 34.5t259 108.5q8 167 12.5 376t4.5 443q0 144 -7 202.5t-24 78.5q-3 3 -21 13.5t-18 27.5q0 18 39 26q28 7 45 13q59 20 117 45.5t61 25.5q9 0 19 -14t10 -27q0 -2 -4 -11
q-23 -62 -31 -146q-13 -166 -19.5 -394t-6.5 -528q0 -218 48 -306q5 -9 5 -11q0 -9 -9.5 -14.5t-41.5 -14.5q-53 -14 -107.5 -34.5t-58.5 -20.5q-14 0 -20.5 8t-6.5 29q0 1 4 38.5t4 75.5q0 1 1 4q1 12 1 25zM741 1681q-3 -4 -11 -7t-17 -3h-21q-5 0 -8.5 2.5t-3.5 5.5
q0 4 1 6.5t3 6.5l217 348q8 12 16 17t19 5q6 0 14 -6t15 -16l235 -350q3 -6 3.5 -8t0.5 -3q0 -4 -4 -6t-10 -2h-101q-11 0 -17.5 2.5t-10.5 7.5l-164 236z" />
    <glyph glyph-name="Ugrave" unicode="&#xd9;" horiz-adv-x="1882" 
d="M1380 166q-34 -15 -98 -43q-339 -150 -514 -150q-126 0 -225.5 31.5t-157.5 89.5q-62 62 -88.5 145t-26.5 273v55q0 94 3 272t3 261q0 191 -20 288q-2 9 -2 11q0 14 49 27q27 7 42 12q77 24 149.5 51t74.5 27q10 0 18.5 -11.5t8.5 -25.5q0 -16 -41.5 -44t-60.5 -65
q-27 -52 -41.5 -217t-14.5 -414v-143q0 -152 14 -225t48 -121q45 -65 146 -101t237 -36q120 0 242 34.5t259 108.5q8 167 12.5 376t4.5 443q0 144 -7 202.5t-24 78.5q-3 3 -21 13.5t-18 27.5q0 18 39 26q28 7 45 13q59 20 117 45.5t61 25.5q9 0 19 -14t10 -27q0 -2 -4 -11
q-23 -62 -31 -146q-13 -166 -19.5 -394t-6.5 -528q0 -218 48 -306q5 -9 5 -11q0 -9 -9.5 -14.5t-41.5 -14.5q-53 -14 -107.5 -34.5t-58.5 -20.5q-14 0 -20.5 8t-6.5 29q0 1 4 38.5t4 75.5q0 1 1 4q1 12 1 25zM1135 1671q-12 0 -88 43.5t-155 100.5v0q-110 78 -110 176
q0 28 9 42.5t26 14.5q8 0 76 -72t137 -137q46 -43 99 -88t53 -49q0 -10 -17.5 -20.5t-29.5 -10.5z" />
    <glyph glyph-name="dotlessi" unicode="&#x131;" horiz-adv-x="563" 
d="M377 530v-452q0 -12 -1 -23.5l-1 -11.5q0 -14 -7 -22t-22 -13q-39 -14 -74.5 -23.5t-42.5 -9.5q-9 1 -12.5 16t-3.5 85v493q0 113 -16 141.5t-58 28.5q-11 0 -28.5 -6t-22.5 -6q-11 0 -18 10t-7 27q1 15 59 30q41 10 68 19q49 16 103 37.5t61 21.5q10 0 21.5 -10
t11.5 -20q0 -4 -1 -24q-9 -139 -9 -288z" />
    <glyph glyph-name="circumflex" unicode="&#x2c6;" 
d="M311 995q-3 -4 -11 -7t-17 -3h-21q-5 0 -8.5 2.5t-3.5 5.5q0 4 1 6.5t3 6.5l217 348q8 12 16 17t19 5q6 0 14 -6t15 -16l235 -350q3 -6 3.5 -8t0.5 -3q0 -4 -4 -6t-10 -2h-101q-11 0 -17.5 2.5t-10.5 7.5l-164 236z" />
    <glyph glyph-name="tilde" unicode="&#x2dc;" 
d="M424 1118q-14 3 -28 4.5t-29 1.5q-51 0 -71.5 -47t-45.5 -47q-13 0 -18 3t-5 9q0 63 49 136t115 73q17 0 41 -4t55 -12l109 -29q15 -4 29 -6t26 -2q57 0 77.5 46t45.5 46q14 0 19 -2t6 -8q0 -10 -9.5 -43t-23.5 -63q-24 -54 -55 -76.5t-80 -22.5q-24 0 -49 3.5t-52 11.5z
" />
    <glyph glyph-name="macron" unicode="&#xaf;" 
d="M737 1200q24 0 28.5 -5t4.5 -26v-55q0 -25 -6.5 -32t-26.5 -7h-448q-26 0 -30.5 5.5t-4.5 27.5v53q0 24 7 31.5t28 7.5h448z" />
    <glyph glyph-name="breve" unicode="&#x2d8;" 
d="M516 1153q97 0 148 25.5t77 89.5q1 1 3 6q9 20 40 20q9 0 11.5 -2.5t3.5 -11.5q0 -101 -82.5 -178.5t-204.5 -77.5t-204.5 77t-82.5 173v8q0 7 3 9.5t10 2.5q2 0 6 -1t6 -1q15 0 19 -3t16 -32q22 -55 76 -79.5t155 -24.5z" />
    <glyph glyph-name="dotaccent" unicode="&#x2d9;" 
d="M512 1243q43 0 73.5 -30.5t30.5 -73.5q0 -44 -30.5 -75.5t-73.5 -31.5t-73.5 31.5t-30.5 75.5q0 42 31 73t73 31z" />
    <glyph glyph-name="ring" unicode="&#x2da;" 
d="M512 1354q-62 0 -104.5 -43.5t-42.5 -106.5q0 -61 43 -104t104 -43q62 0 107 43.5t45 103.5q0 62 -45 106t-107 44zM512 1446q100 0 171 -71t71 -171t-70.5 -169.5t-171.5 -69.5q-100 0 -170 69t-70 170t70 171.5t170 70.5z" />
    <glyph glyph-name="cedilla" unicode="&#xb8;" 
d="M401 0h64v-112q7 0 16 0.5t27 0.5q102 0 154.5 -40t52.5 -119q0 -91 -72 -137t-213 -46q-65 1 -75.5 6.5t-10.5 30.5q0 31 35 31q50 0 96 10q62 14 81 34.5t19 68.5q0 49 -34 70.5t-113 21.5h-27v180z" />
    <glyph glyph-name="hungarumlaut" unicode="&#x2dd;" 
d="M864 1233q0 -54 -117 -153l-6 -5q-12 -10 -34 -29q-69 -61 -101 -61q-16 0 -31.5 8t-15.5 19q0 2 40 51.5t79 101.5q41 56 77.5 121.5t47.5 65.5q21 0 41 -43t20 -76zM598 1243q0 -39 -94 -138q-16 -17 -25 -26q-10 -10 -27 -29q-63 -67 -94 -67q-17 0 -30.5 6.5
t-14.5 16.5q0 3 28.5 43t53.5 81q46 77 82 157.5t47 80.5q22 0 48 -45.5t26 -79.5z" />
    <glyph glyph-name="ogonek" unicode="&#x2db;" 
d="M578 31h49q-88 -66 -132 -134.5t-44 -138.5q0 -56 25.5 -89.5t68.5 -33.5q33 0 68.5 16.5t39.5 16.5q7 0 13 -8t6 -16q0 -29 -68 -61t-135 -32q-70 0 -106.5 35t-36.5 101q0 90 65 179t187 165z" />
    <glyph glyph-name="caron" unicode="&#x2c7;" 
d="M713 1364q3 5 11 8.5t17 3.5h21q5 0 8.5 -2.5t3.5 -5.5t-1 -6t-3 -6l-217 -348q-7 -12 -16 -18.5t-17 -6.5q-7 0 -15 6t-16 19l-235 350q-2 4 -3 6.5t-1 3.5q0 4 3.5 6t10.5 2h101q11 0 18 -3t11 -10l163 -233z" />
    <glyph glyph-name="Lslash" unicode="&#x141;" horiz-adv-x="1331" 
d="M357 6q12 120 19 275t9 388l-217 -145q-17 -11 -24.5 -14.5t-12.5 -3.5q-9 0 -27 25t-18 36q0 7 10 17t29 22l260 172v92q0 69 1 174t1 142q0 174 -12.5 231.5t-44.5 57.5q-12 0 -26 -4.5t-15 -4.5q-8 0 -13.5 7.5t-5.5 19.5q0 13 46 27q24 7 38 12q69 24 130.5 57
t64.5 33q8 0 18.5 -10.5t10.5 -22.5q0 -2 -2 -23q-25 -251 -25 -589v-119l335 223q4 2 10 6q19 13 28 13q6 0 24.5 -26.5t18.5 -39.5q0 -4 -11 -14t-28 -21l-379 -249q0 -179 3 -329.5t9 -273.5q91 -18 200.5 -27t254.5 -9q157 0 280 14q15 2 17 2q5 0 9.5 -4t4.5 -8
q0 -66 -157.5 -92.5t-587.5 -26.5q-64 0 -119 2.5t-106 7.5z" />
    <glyph glyph-name="lslash" unicode="&#x142;" horiz-adv-x="666" 
d="M238 367v192l-160 -96q-3 -2 -10 -7q-19 -12 -25 -12q-11 0 -24 18t-13 34q0 9 8 17.5t29 21.5l195 118v449q0 140 -13 267q-2 19 -2 22q0 24 42 32q25 5 43 9q61 13 119.5 32t61.5 19q9 0 16 -9t7 -22q0 -10 -30 -27.5t-46 -38.5q-21 -26 -31 -109t-10 -230v-324l158 96
q14 10 21.5 13.5t15.5 3.5q10 0 23.5 -19t13.5 -35q0 -5 -9 -13t-30 -21l-197 -121v-299q0 -147 10.5 -184.5t42.5 -37.5q26 0 58 10.5t33 10.5q8 0 15 -10t7 -23q0 -20 -62 -39q-44 -13 -71 -24q-61 -25 -118.5 -64t-65.5 -39q-14 0 -24.5 10.5t-10.5 24.5q0 2 2 11
q31 131 31 393z" />
    <glyph glyph-name="Scaron" unicode="&#x160;" horiz-adv-x="1278" 
d="M1108 514q0 -221 -200.5 -382t-489.5 -161q-101 0 -186.5 19t-100.5 35q-10 7 -22.5 88.5t-12.5 175.5q0 18 8.5 22t45.5 4q12 0 17 -4.5t5 -17.5v-27q0 -16 1 -25t3 -18q14 -83 67.5 -125.5t143.5 -42.5q209 0 361.5 128.5t152.5 295.5q0 102 -58 153t-193 66
q-16 2 -44 5q-153 14 -209 40q-85 42 -129.5 115.5t-44.5 175.5q0 200 166.5 338.5t411.5 138.5q89 0 146 -13.5t57 -33.5q0 -42 -8 -87.5t-17 -45.5q-8 0 -45 12q-136 46 -240 46q-146 0 -245 -80.5t-99 -194.5q0 -49 22 -89.5t64 -68.5q57 -37 221 -56q65 -8 98 -13
q186 -31 269.5 -119.5t83.5 -253.5zM840 2050q3 5 11 8.5t17 3.5h21q5 0 8.5 -2.5t3.5 -5.5t-1 -6t-3 -6l-217 -348q-7 -12 -16 -18.5t-17 -6.5q-7 0 -15 6t-16 19l-235 350q-2 4 -3 6.5t-1 3.5q0 4 3.5 6t10.5 2h101q11 0 18 -3t11 -10l163 -233z" />
    <glyph glyph-name="scaron" unicode="&#x161;" horiz-adv-x="901" 
d="M365 -25q-82 0 -157 11t-108 24q-15 6 -20.5 20t-5.5 70v29q0 72 6.5 89.5t28.5 17.5q15 -1 21.5 -6.5t6.5 -16.5v-14q0 -76 47.5 -114t141.5 -38q134 0 229.5 65t95.5 148q0 44 -30 65t-93 21h-102q-143 0 -206.5 48.5t-63.5 156.5q0 137 98 228t250 91
q78 0 142.5 -17.5t64.5 -35.5q0 -29 -14 -63.5t-27 -34.5q-8 0 -35 11q-97 40 -191 40q-80 0 -128 -37.5t-48 -99.5q0 -60 43 -86.5t197 -36.5q181 -14 244 -63.5t63 -157.5q0 -141 -123.5 -227.5t-326.5 -86.5zM652 1364q3 5 11 8.5t17 3.5h21q5 0 8.5 -2.5t3.5 -5.5t-1 -6
t-3 -6l-217 -348q-7 -12 -16 -18.5t-17 -6.5q-7 0 -15 6t-16 19l-235 350q-2 4 -3 6.5t-1 3.5q0 4 3.5 6t10.5 2h101q11 0 18 -3t11 -10l163 -233z" />
    <glyph glyph-name="Zcaron" unicode="&#x17d;" horiz-adv-x="1669" 
d="M362 176q117 -29 265 -42t368 -13q223 0 431 9q30 1 36 1q7 0 10 -2t3 -6q0 -10 -27 -37t-62 -51q-21 -17 -173.5 -27t-393.5 -10q-181 0 -338 8.5t-301 26.5q-47 5 -59 11t-12 22q0 32 107 125q55 48 89 79q109 99 364 350t701 699v28q-24 2 -50.5 2.5t-78.5 0.5
q-406 0 -581.5 -6.5t-308.5 -20.5q-67 -7 -130 -18l-63 -11q-5 0 -7.5 5t-3.5 16q1 4 4.5 43.5t8.5 85.5q3 19 14 24t55 5h27h40q113 4 208 4q387 0 706.5 -7t354.5 -12h7q38 -2 38 -35q0 -35 -90 -112q-54 -47 -90 -80q-189 -171 -547 -534t-521 -521zM1037 2050
q3 5 11 8.5t17 3.5h21q5 0 8.5 -2.5t3.5 -5.5t-1 -6t-3 -6l-217 -348q-7 -12 -16 -18.5t-17 -6.5q-7 0 -15 6t-16 19l-235 350q-2 4 -3 6.5t-1 3.5q0 4 3.5 6t10.5 2h101q11 0 18 -3t11 -10l163 -233z" />
    <glyph glyph-name="zcaron" unicode="&#x17e;" horiz-adv-x="985" 
d="M281 152q95 -21 193.5 -30t242.5 -9q61 0 121 6t61 6q11 0 16 -4t5 -12t-19 -41t-30 -43q-14 -12 -139.5 -21.5t-299.5 -9.5q-186 0 -283.5 14.5t-97.5 42.5q0 20 43 56q22 18 36 31l618 587q-7 0 -21 1q-109 3 -152 3q-293 0 -426 -31q-8 -2 -10 -2q-10 0 -14 14.5
t-4 49.5q0 44 2 56t9 16q12 7 102 11.5t247 4.5h224h131q67 0 82.5 -7.5t15.5 -37.5q0 -19 -34 -51q-16 -15 -26 -25zM695 1364q3 5 11 8.5t17 3.5h21q5 0 8.5 -2.5t3.5 -5.5t-1 -6t-3 -6l-217 -348q-7 -12 -16 -18.5t-17 -6.5q-7 0 -15 6t-16 19l-235 350q-2 4 -3 6.5
t-1 3.5q0 4 3.5 6t10.5 2h101q11 0 18 -3t11 -10l163 -233z" />
    <glyph glyph-name="brokenbar" unicode="&#xa6;" 
d="M449 408h126v-758h-126v758zM449 1432h126v-758h-126v758z" />
    <glyph glyph-name="Eth" unicode="&#xd0;" horiz-adv-x="1933" 
d="M565 1325q-5 -139 -8.5 -270t-5.5 -254h448q45 0 52.5 -7t7.5 -40q0 -31 -6 -37t-41 -6h-463v-13q-4 -245 -4 -364q0 -90 8.5 -130t28.5 -57q35 -27 120 -44t197 -17q338 0 529.5 175.5t191.5 483.5q0 309 -173.5 483.5t-479.5 174.5q-120 0 -226.5 -21t-175.5 -57z
M358 47q5 125 14 351t11 312l-240 1q-36 0 -42 6t-7 37q0 33 7.5 40t52.5 7h231q2 94 3 205.5t1 339.5q-97 -20 -122 -24.5t-31 -4.5q-9 0 -15 6.5t-6 17.5q0 27 97 47q14 3 22 5q235 52 437.5 80t330.5 28q344 0 529.5 -171t185.5 -488q0 -156 -54.5 -301.5t-154.5 -261.5
q-113 -131 -250 -194t-353 -79q-49 -3 -224.5 -3.5t-300.5 -8.5q-123 -7 -252 -25q-32 -4 -38 -4q-7 1 -10.5 6t-3.5 15q0 29 89 44q55 9 93 17z" />
    <glyph glyph-name="eth" unicode="&#xf0;" horiz-adv-x="991" 
d="M563 1137l-301 -156q-8 -3 -12.5 -4.5t-7.5 -1.5q-15 0 -26 14.5t-11 34.5q0 8 6.5 14.5t28.5 18.5l288 147q-43 76 -95 143t-52 70q0 10 18 21.5t33 11.5q21 0 67.5 -46t129.5 -149l223 113q11 6 18.5 8t14.5 2q11 0 20.5 -14.5t9.5 -32.5q0 -8 -7.5 -16t-24.5 -17
l-209 -108q117 -183 178 -369t61 -356q0 -220 -125.5 -355t-326.5 -135q-182 0 -284.5 111t-102.5 307q0 216 121 347.5t317 131.5q47 0 88 -11.5t80 -35.5q-20 77 -49 154.5t-68 157.5zM221 473q0 -168 89 -280.5t216 -112.5q107 0 173.5 76t66.5 200q0 183 -87.5 299.5
t-223.5 116.5q-114 0 -174 -76.5t-60 -222.5z" />
    <glyph glyph-name="Yacute" unicode="&#xdd;" horiz-adv-x="1565" 
d="M856 547q113 208 281 525q233 439 258 439q18 0 26.5 -32t8.5 -103q0 -48 -7.5 -80t-25.5 -65q-6 -12 -63 -106q-304 -505 -607 -1039q-36 -65 -123.5 -219.5t-126.5 -224.5v-1q-19 -34 -57 -34q-11 0 -18 2.5t-7 7.5q0 24 117 252l53 106q26 51 70 135q86 164 86 197
q0 67 -79.5 235t-291.5 539l-17 30q-163 288 -243 288q-15 0 -41 -3t-37 -3q-12 0 -16 4.5t-4 21.5q0 19 11 24t67 9q121 9 241 30q25 5 29 5q5 0 158.5 -314.5t357.5 -625.5zM1024 1991q0 -92 -89 -160l-5 -4q-80 -59 -163.5 -107.5t-95.5 -48.5t-29.5 10.5t-17.5 20.5
q0 4 43.5 41.5t75.5 66.5q83 77 161 157.5t85 80.5q18 0 26.5 -14t8.5 -43z" />
    <glyph glyph-name="yacute" unicode="&#xfd;" horiz-adv-x="1038" 
d="M412 152l-230 475q-29 58 -51 77t-55 19q-24 0 -51 -11.5t-33 -11.5q-9 0 -18 13t-9 24q0 14 44 29q33 11 56 20q59 24 120.5 51t66.5 27q12 0 31 -46q8 -20 14 -34l264 -587l344 591q14 24 31 57q23 44 37 44q12 0 18 -12.5t6 -36.5q0 -4 1 -30t1 -50q0 -65 -28 -108
q-10 -15 -17 -25l-635 -994q-16 -24 -29.5 -31.5t-51.5 -7.5q-10 1 -14 3.5t-5 9.5q0 6 4.5 15.5t15.5 26.5l171 290l4 7q39 68 39 93q0 28 -35 99q-4 9 -6 14zM762 1305q0 -92 -89 -160l-5 -4q-80 -59 -163.5 -107.5t-95.5 -48.5t-29.5 10.5t-17.5 20.5q0 4 43.5 41.5
t75.5 66.5q83 77 161 157.5t85 80.5q18 0 26.5 -14t8.5 -43z" />
    <glyph glyph-name="Thorn" unicode="&#xde;" horiz-adv-x="1294" 
d="M467 1260q72 11 131 16.5t109 5.5q227 0 362 -115t135 -307q0 -231 -168 -374.5t-440 -143.5q-43 0 -56.5 7t-13.5 32q0 22 6 27.5t27 5.5h49q187 0 291.5 105.5t104.5 295.5q0 175 -92 279t-246 104q-80 0 -132.5 -21t-58.5 -55q-7 -36 -13.5 -267t-6.5 -531v-45
q0 -132 16 -162.5t66 -30.5q23 0 75.5 13.5t75.5 13.5q7 -1 9.5 -7t2.5 -20q0 -28 -65 -38q-44 -7 -74 -13q-156 -33 -293 -88q-27 -10 -30 -10q-8 0 -13.5 6t-5.5 14q0 9 24 33.5t29 49.5q12 55 17.5 276t5.5 649v137q0 176 -7.5 222t-27.5 46q-42 0 -105 -27.5t-75 -27.5
q-7 0 -12 7t-5 17q0 29 162 90l29 11q91 35 147 54t64 19q12 0 21.5 -11t9.5 -23q0 -5 -6 -26q-23 -89 -23 -181v-12z" />
    <glyph glyph-name="thorn" unicode="&#xfe;" horiz-adv-x="1049" 
d="M326 78q32 -18 68 -26.5t79 -8.5q136 0 213.5 100t77.5 277q0 146 -65.5 224.5t-186.5 78.5q-42 0 -84.5 -15.5t-89.5 -48.5q-5 -135 -8 -280t-4 -301zM172 -391v1540q0 109 -9 138.5t-36 29.5q-9 0 -33 -7t-35 -7q-6 0 -10 8.5t-4 23.5q0 18 57 32q37 9 61 15
q47 12 99.5 33t61.5 21t23.5 -10.5t14.5 -18.5q0 -4 -1 -35q-19 -291 -21 -642l100 56l10 6q141 78 185 78q119 0 212 -120.5t93 -294.5q0 -218 -127 -348t-338 -130q-33 0 -70.5 5.5t-80.5 15.5v-340l-127 -74q-5 -2 -8 -3t-5 -1q-7 1 -9.5 6.5t-2.5 22.5z" />
    <glyph glyph-name="minus" unicode="&#x2212;" horiz-adv-x="1706" 
d="M254 670h1198v-119h-1198v119z" />
    <glyph glyph-name="multiply" unicode="&#xd7;" horiz-adv-x="1706" 
d="M381 1169l477 -477l475 477l82 -82l-475 -477l475 -475l-82 -82l-475 475l-477 -475l-80 82l475 475l-475 477z" />
    <glyph glyph-name="onesuperior" unicode="&#xb9;" horiz-adv-x="473" 
d="M180 584v432q-9 -1 -20 -1.5t-31 -0.5h-20h-19q-13 0 -16.5 3t-3.5 19q0 6 4 9.5t12 3.5q1 0 7 -1q24 -1 50 -1h58q90 0 177 5q13 1 15 1q5 0 8.5 -4t4.5 -11q0 -21 -52 -21q-32 0 -54 -1q-8 -64 -10.5 -161t-2.5 -269q22 -2 54 -3q60 -3 60 -20q0 -7 -5.5 -10.5
t-16.5 -3.5h-21q-144 0 -263 -17q-15 -2 -17 -2q-10 1 -12 5t-3 18q1 11 46 18q41 6 71 13z" />
    <glyph glyph-name="twosuperior" unicode="&#xb2;" horiz-adv-x="545" 
d="M217 631h287q21 0 29 -4.5t8 -22.5v-18q0 -29 -4.5 -36t-28.5 -7h-31q-111 4 -211 4q-106 0 -197 -6h-12q-13 0 -16.5 2.5t-3.5 9.5q0 15 21 24q21 8 36 17q93 55 148 133t55 152q0 49 -26 73.5t-78 24.5q-27 0 -64.5 -8t-44.5 -8t-8.5 1t-1.5 9t10.5 30.5t24.5 39.5
q7 8 44.5 15t84.5 7q83 0 125.5 -35t42.5 -104q0 -67 -50 -145.5t-139 -147.5z" />
    <glyph glyph-name="threesuperior" unicode="&#xb3;" horiz-adv-x="492" 
d="M270 758q70 -57 99.5 -105.5t29.5 -103.5q0 -97 -99 -168.5t-239 -71.5q-36 0 -55.5 6t-19.5 17t11.5 37t18.5 26q4 0 18 -6q48 -20 85 -20q82 0 128 35.5t46 99.5q0 47 -30.5 94t-82.5 80q-7 5 -18 11q-20 11 -21 20q1 8 23 19q16 8 24 13q43 28 67 68t24 82
q0 40 -28.5 64t-76.5 24q-31 0 -68.5 -8t-44.5 -8q-3 0 -5.5 1t-2.5 3q0 6 12 27.5t25 37.5q11 13 48.5 22t82.5 9q68 0 110 -35.5t42 -91.5q0 -41 -26 -85.5t-77 -92.5z" />
    <glyph glyph-name="onequarter" unicode="&#xbc;" horiz-adv-x="1778" 
d="M1495 70v297q-60 -59 -122 -135.5t-123 -167.5q67 3 128.5 4.5t116.5 1.5zM1587 2l-2 -135v-14q0 -19 -32.5 -41.5t-45.5 -22.5q-6 0 -9 7.5t-3 25.5v180q-141 -2 -272 -13q-19 -1 -23 -1q-9 0 -20 16t-11 25q0 12 62.5 97t148.5 185q83 94 124.5 136t49.5 42q14 0 31 -9
t17 -21q0 -3 -2 -22q-11 -152 -11 -324v-43h137q20 -1 24.5 -6t4.5 -29q0 -25 -5.5 -30t-39.5 -5zM297 16q0 17 89 165t331 532q215 340 336 514t141 174q18 0 52 -25t34 -41t-223.5 -338.5t-393.5 -573.5l-11 -16q-294 -434 -312 -434q-13 0 -28 13.5t-15 29.5zM172 633
v403h-49h-21h-16q-13 1 -15.5 3t-2.5 18q0 6 3 8t11 2h55h53q87 0 170 4h15q5 0 8.5 -4t3.5 -10q0 -18 -51 -19q-31 -1 -51 -2q-6 -61 -8.5 -153.5t-1.5 -245.5q17 -1 46 -3q62 -4 62 -20q0 -7 -5.5 -10.5t-17.5 -3.5h-18q-138 0 -252 -15q-12 -1 -14 -1q-9 0 -11.5 4
t-3.5 16q1 11 46 18q37 5 65 11z" />
    <glyph glyph-name="onehalf" unicode="&#xbd;" horiz-adv-x="1645" 
d="M1333 86h273q22 0 29 -4t7 -21v-18q0 -26 -4 -32.5t-26 -6.5h-31q-105 2 -201 2q-99 0 -185 -3q-13 -1 -15 -1q-10 0 -13.5 3t-3.5 9q0 13 19 21t32 16q91 53 144 125.5t53 140.5q0 46 -25.5 68.5t-76.5 22.5q-26 0 -61 -6.5t-42 -6.5q-8 1 -9 2.5t-1 5.5q0 7 11 29.5
t21 33.5q8 10 44 16.5t82 6.5q79 0 119 -33t40 -98q0 -61 -47.5 -133.5t-132.5 -138.5zM297 16q0 17 89 165t331 532q215 340 336 514t141 174q18 0 52 -25t34 -41t-223.5 -338.5t-393.5 -573.5l-11 -16q-294 -434 -312 -434q-13 0 -28 13.5t-15 29.5zM172 633v403h-49h-21
h-16q-13 1 -15.5 3t-2.5 18q0 6 3 8t11 2h55h53q87 0 170 4h15q5 0 8.5 -4t3.5 -10q0 -18 -51 -19q-31 -1 -51 -2q-6 -61 -8.5 -153.5t-1.5 -245.5q17 -1 46 -3q62 -4 62 -20q0 -7 -5.5 -10.5t-17.5 -3.5h-18q-138 0 -252 -15q-12 -1 -14 -1q-9 0 -11.5 4t-3.5 16
q1 11 46 18q37 5 65 11z" />
    <glyph glyph-name="threequarters" unicode="&#xbe;" horiz-adv-x="1794" 
d="M1511 70v297q-59 -59 -121.5 -135.5t-123.5 -167.5q68 3 129.5 4.5t115.5 1.5zM1604 2l-2 -135v-14q0 -19 -33 -41.5t-45 -22.5q-6 0 -9 7t-4 26v180q-140 -2 -271 -13q-20 -1 -23 -1q-10 0 -20.5 16t-10.5 25q0 12 62 97t149 185q82 94 123.5 136t50.5 42q13 0 30 -9
t17 -21q0 -3 -1 -21q-11 -153 -11 -325v-43h137q18 0 23 -5.5t6 -29.5q0 -25 -6 -30t-40 -5zM313 16q0 17 89 165t331 532q216 340 336.5 514t140.5 174q19 0 52.5 -25t33.5 -41t-223.5 -338.5t-392.5 -572.5l-12 -18q-294 -433 -312 -433q-13 0 -28 13.5t-15 29.5zM258 797
q67 -54 95 -99.5t28 -97.5q0 -89 -94.5 -155t-229.5 -66q-35 0 -52 5t-17 15t11 34t17 24q2 0 14 -5q46 -20 83 -20q77 0 121.5 34t44.5 93q0 44 -29 88.5t-78 75.5q-5 3 -15 8q-22 12 -22 21q0 6 21 16q15 7 24 12q40 27 63 65t23 77q0 37 -27 59.5t-73 22.5
q-28 0 -65 -8.5t-44 -8.5q-2 0 -3.5 1t-2.5 3q0 6 11 26t24 36q12 11 48 19.5t77 8.5q65 0 105 -33t40 -85q0 -38 -25 -80.5t-73 -85.5z" />
    <glyph glyph-name="franc" unicode="&#x20a3;" horiz-adv-x="1917" 
d="M459 723q0 -7 -1 -23q-5 -211 -5 -387v-24q0 -124 13.5 -152t53.5 -28t95 13t63 13t12 -8t4 -23q0 -29 -97 -43q-60 -9 -101 -16q-120 -22 -238 -61q-25 -9 -29 -9q-7 0 -13.5 8t-6.5 17q0 1 29 28t36 90q7 68 13 358t6 663v141q0 99 -15.5 122t-87.5 23q-2 0 -11.5 1
t-16.5 1h-25q-21 0 -28 5.5t-7 19.5q1 16 8 23t23 8q2 0 16 -1q85 -3 181 -3q184 0 382.5 3t213.5 3q93 0 132.5 -6.5t39.5 -20.5q0 -10 -25.5 -66.5t-36.5 -56.5q-3 0 -16.5 10t-26.5 15q-25 9 -73 12.5t-150 3.5h-76q-88 0 -133 -2t-83 -6q-10 -124 -14.5 -242.5
t-4.5 -228.5v-67q60 5 134.5 7.5t180.5 2.5h139q87 0 115.5 -4t28.5 -13q0 -19 -24 -60.5t-44 -41.5q-3 0 -104.5 5t-200.5 5q-64 0 -120 -2t-105 -6zM1587 676q68 88 144 142t123 54h8q7 0 8.5 -5t1.5 -21v-115q0 -45 -48 -46q-32 -1 -57 -3q-103 -9 -138.5 -41.5
t-43.5 -174.5q-6 -117 -10.5 -266t-9.5 -157q-5 -9 -67.5 -42.5t-71.5 -33.5q-6 0 -7 3t-2 14q0 2 2 20q11 165 11 381v104q0 150 -12.5 188t-49.5 38q-31 0 -68 -15.5t-40 -15.5q-8 0 -13.5 9t-5.5 24q0 18 53 36q30 10 48 17q75 29 146 65.5t73 36.5q15 0 21.5 -3.5
t6.5 -12.5l-2 -29t-2 -57q0 -37 0.5 -57t1.5 -37z" />
    <glyph glyph-name="Gbreve" unicode="&#x11e;" horiz-adv-x="1911" 
d="M1720 72q-209 -49 -387.5 -73t-333.5 -24q-408 0 -646 205t-238 553q0 372 241.5 575t685.5 203q176 0 346.5 -35t311.5 -100q-21 -63 -40 -147q-17 -78 -42 -78q-23 0 -26 46t-23 79q-40 62 -179 103.5t-321 41.5q-344 0 -544.5 -179.5t-200.5 -485.5
q0 -327 213.5 -506.5t603.5 -179.5q209 0 311 63.5t102 194.5q0 90 -71 157q-21 20 -21 27q0 12 85 46t122 34q27 0 41 -87t14 -253q0 -43 -1 -87.5t-3 -92.5zM960 1839q97 0 148 25.5t77 89.5q1 1 3 6q9 20 40 20q9 0 11.5 -2.5t3.5 -11.5q0 -101 -82.5 -178.5
t-204.5 -77.5t-204.5 77t-82.5 173v8q0 7 3 9.5t10 2.5q2 0 6 -1t6 -1q15 0 19 -3t16 -32q22 -55 76 -79.5t155 -24.5z" />
    <glyph glyph-name="gbreve" unicode="&#x11f;" horiz-adv-x="1042" 
d="M596 317v5q0 41 29.5 136.5t29.5 153.5q0 86 -54.5 137.5t-145.5 51.5q-90 0 -156 -70.5t-66 -169.5q0 -114 75 -191t184 -77q26 0 51.5 6t52.5 18zM604 260q-61 -51 -108 -70.5t-103 -19.5q-129 0 -218 96t-89 240q0 165 109 265.5t286 100.5q74 0 138.5 -19.5
t121.5 -59.5l234 6h16q25 0 32 -9t7 -42v-11q0 -35 -8.5 -42t-42.5 -7l-184 2q4 -18 6 -37.5t2 -42.5q0 -56 -26.5 -133t-26.5 -102q0 -39 23.5 -91.5t72.5 -119.5q16 -23 44 -61q83 -113 83 -156q0 -128 -213.5 -240.5t-493.5 -112.5q-120 0 -178.5 35.5t-58.5 106.5
q0 83 68.5 145t123.5 62q10 0 13.5 -3t3.5 -12q0 -6 -20.5 -54.5t-20.5 -86.5q0 -63 45.5 -93t142.5 -30q147 0 270 78.5t123 167.5q0 33 -74 148.5t-100 201.5zM526 1153q97 0 148 25.5t77 89.5q1 1 3 6q9 20 40 20q9 0 11.5 -2.5t3.5 -11.5q0 -101 -82.5 -178.5
t-204.5 -77.5t-204.5 77t-82.5 173v8q0 7 3 9.5t10 2.5q2 0 6 -1t6 -1q15 0 19 -3t16 -32q22 -55 76 -79.5t155 -24.5z" />
    <glyph glyph-name="Idotaccent" unicode="&#x130;" horiz-adv-x="741" 
d="M446 1509q10 0 24.5 -11.5t14.5 -18.5q0 -3 -1 -10q-8 -44 -11 -91q-8 -121 -13 -362t-5 -527v-145q0 -153 9 -195.5t36 -42.5q28 0 71 16.5t56 16.5q9 0 15.5 -8.5t6.5 -21.5q0 -27 -73 -45q-45 -10 -72 -19q-91 -30 -171 -70.5t-81 -40.5q-10 0 -17.5 8.5t-7.5 20.5
q0 7 20 30.5t25 61.5q9 58 13 246t4 553q0 265 -5.5 376.5t-17.5 133.5q-7 13 -28 26.5t-21 22.5q0 17 31 25q12 3 21 6q56 19 114.5 42t62.5 23zM371 1929q43 0 73.5 -30.5t30.5 -73.5q0 -44 -30.5 -75.5t-73.5 -31.5t-73.5 31.5t-30.5 75.5q0 42 31 73t73 31z" />
    <glyph glyph-name="Scedilla" unicode="&#x15e;" horiz-adv-x="1278" 
d="M1108 514q0 -221 -200.5 -382t-489.5 -161q-101 0 -186.5 19t-100.5 35q-10 7 -22.5 88.5t-12.5 175.5q0 18 8.5 22t45.5 4q12 0 17 -4.5t5 -17.5v-27q0 -16 1 -25t3 -18q14 -83 67.5 -125.5t143.5 -42.5q209 0 361.5 128.5t152.5 295.5q0 102 -58 153t-193 66
q-16 2 -44 5q-153 14 -209 40q-85 42 -129.5 115.5t-44.5 175.5q0 200 166.5 338.5t411.5 138.5q89 0 146 -13.5t57 -33.5q0 -42 -8 -87.5t-17 -45.5q-8 0 -45 12q-136 46 -240 46q-146 0 -245 -80.5t-99 -194.5q0 -49 22 -89.5t64 -68.5q57 -37 221 -56q65 -8 98 -13
q186 -31 269.5 -119.5t83.5 -253.5zM528 0h64v-112q7 0 16 0.5t27 0.5q102 0 154.5 -40t52.5 -119q0 -91 -72 -137t-213 -46q-65 1 -75.5 6.5t-10.5 30.5q0 31 35 31q50 0 96 10q62 14 81 34.5t19 68.5q0 49 -34 70.5t-113 21.5h-27v180z" />
    <glyph glyph-name="scedilla" unicode="&#x15f;" horiz-adv-x="901" 
d="M365 -25q-82 0 -157 11t-108 24q-15 6 -20.5 20t-5.5 70v29q0 72 6.5 89.5t28.5 17.5q15 -1 21.5 -6.5t6.5 -16.5v-14q0 -76 47.5 -114t141.5 -38q134 0 229.5 65t95.5 148q0 44 -30 65t-93 21h-102q-143 0 -206.5 48.5t-63.5 156.5q0 137 98 228t250 91
q78 0 142.5 -17.5t64.5 -35.5q0 -29 -14 -63.5t-27 -34.5q-8 0 -35 11q-97 40 -191 40q-80 0 -128 -37.5t-48 -99.5q0 -60 43 -86.5t197 -36.5q181 -14 244 -63.5t63 -157.5q0 -141 -123.5 -227.5t-326.5 -86.5zM340 0h64v-112q7 0 16 0.5t27 0.5q102 0 154.5 -40t52.5 -119
q0 -91 -72 -137t-213 -46q-65 1 -75.5 6.5t-10.5 30.5q0 31 35 31q50 0 96 10q62 14 81 34.5t19 68.5q0 49 -34 70.5t-113 21.5h-27v180z" />
    <glyph glyph-name="Cacute" unicode="&#x106;" horiz-adv-x="1884" 
d="M907 -29q-375 0 -583.5 187.5t-208.5 523.5q0 383 256 605t704 222q244 0 458 -58t214 -97q0 -13 -32 -73l-21 -39q-9 -18 -21 -47q-20 -46 -35 -46t-24.5 7t-9.5 18q0 2 6 22t6 37q0 86 -125.5 135t-347.5 49q-367 0 -592 -196t-225 -512q0 -286 190 -459.5t506 -173.5
q168 0 342.5 48.5t364.5 147.5q32 18 70 43t46 25q7 0 10 -6t3 -21v-16q0 -18 -4.5 -26t-26.5 -23q-195 -127 -444 -202t-476 -75zM1256 1991q0 -92 -89 -160l-5 -4q-80 -59 -163.5 -107.5t-95.5 -48.5t-29.5 10.5t-17.5 20.5q0 4 43.5 41.5t75.5 66.5q83 77 161 157.5
t85 80.5q18 0 26.5 -14t8.5 -43z" />
    <glyph glyph-name="cacute" unicode="&#x107;" horiz-adv-x="872" 
d="M473 -18q-201 0 -302 99t-101 296q0 215 122 355t310 140q87 0 177.5 -29t90.5 -48q0 -21 -27 -85.5t-36 -64.5q-7 0 -44 20q-145 80 -253 80q-100 0 -154.5 -66.5t-54.5 -189.5q0 -164 82 -262t223 -98q77 0 133 21.5t98 66.5q20 20 38.5 54t33.5 34q12 0 20.5 -7.5
t8.5 -18.5q0 -15 -33 -71t-82 -120q-49 -63 -100.5 -84.5t-149.5 -21.5zM688 1305q0 -92 -89 -160l-5 -4q-80 -59 -163.5 -107.5t-95.5 -48.5t-29.5 10.5t-17.5 20.5q0 4 43.5 41.5t75.5 66.5q83 77 161 157.5t85 80.5q18 0 26.5 -14t8.5 -43z" />
    <glyph glyph-name="Ccaron" unicode="&#x10c;" horiz-adv-x="1884" 
d="M907 -29q-375 0 -583.5 187.5t-208.5 523.5q0 383 256 605t704 222q244 0 458 -58t214 -97q0 -13 -32 -73l-21 -39q-9 -18 -21 -47q-20 -46 -35 -46t-24.5 7t-9.5 18q0 2 6 22t6 37q0 86 -125.5 135t-347.5 49q-367 0 -592 -196t-225 -512q0 -286 190 -459.5t506 -173.5
q168 0 342.5 48.5t364.5 147.5q32 18 70 43t46 25q7 0 10 -6t3 -21v-16q0 -18 -4.5 -26t-26.5 -23q-195 -127 -444 -202t-476 -75zM1215 2050q3 5 11 8.5t17 3.5h21q5 0 8.5 -2.5t3.5 -5.5t-1 -6t-3 -6l-217 -348q-7 -12 -16 -18.5t-17 -6.5q-7 0 -15 6t-16 19l-235 350
q-2 4 -3 6.5t-1 3.5q0 4 3.5 6t10.5 2h101q11 0 18 -3t11 -10l163 -233z" />
    <glyph glyph-name="ccaron" unicode="&#x10d;" horiz-adv-x="872" 
d="M473 -18q-201 0 -302 99t-101 296q0 215 122 355t310 140q87 0 177.5 -29t90.5 -48q0 -21 -27 -85.5t-36 -64.5q-7 0 -44 20q-145 80 -253 80q-100 0 -154.5 -66.5t-54.5 -189.5q0 -164 82 -262t223 -98q77 0 133 21.5t98 66.5q20 20 38.5 54t33.5 34q12 0 20.5 -7.5
t8.5 -18.5q0 -15 -33 -71t-82 -120q-49 -63 -100.5 -84.5t-149.5 -21.5zM647 1364q3 5 11 8.5t17 3.5h21q5 0 8.5 -2.5t3.5 -5.5t-1 -6t-3 -6l-217 -348q-7 -12 -16 -18.5t-17 -6.5q-7 0 -15 6t-16 19l-235 350q-2 4 -3 6.5t-1 3.5q0 4 3.5 6t10.5 2h101q11 0 18 -3t11 -10
l163 -233z" />
    <glyph glyph-name="dcroat" unicode="&#x111;" horiz-adv-x="1067" 
d="M713 681q-71 28 -135.5 41t-124.5 13q-130 0 -182 -59.5t-52 -210.5q0 -157 71.5 -242.5t201.5 -85.5q72 0 128.5 26.5t71.5 67.5q8 23 12.5 116t8.5 334zM696 147q-31 -25 -78 -66q-105 -93 -188 -93q-178 0 -263 89.5t-85 278.5q0 235 124 369.5t341 134.5q51 0 160 -8
h6q0 49 1 116.5t1 86.5l-1 17.5t-1 35.5h-244q-11 0 -15.5 6.5t-4.5 30.5q0 31 7 37t50 6h206q-2 72 -8 141t-6 70q0 23 49 31q13 2 22 4q57 12 121.5 34.5t72.5 22.5q10 0 17 -8t7 -19q0 -16 -28.5 -29t-43.5 -31q-17 -20 -25.5 -61.5t-12.5 -154.5h170q13 0 17.5 -7
t4.5 -28q0 -31 -7.5 -38t-51.5 -7h-138q-6 -227 -9 -409.5t-3 -319.5v-158q0 -85 6.5 -110t26.5 -25q27 0 64.5 11.5t46.5 11.5q10 0 17 -8t7 -19q0 -23 -58 -40q-35 -10 -57 -17q-87 -31 -163 -72q-20 -10 -23 -10q-14 0 -27.5 10.5t-13.5 21.5q0 3 2 14q10 48 10 95v9
q-2 29 -2 54z" />
    <glyph glyph-name="sfthyphen" unicode="&#xad;" horiz-adv-x="647" 
d="M522 389q-3 0 -21 1q-94 3 -192 3q-104 0 -192 -3q-12 -1 -15 -1q-10 0 -14 5.5t-4 19.5q0 80 5 97t30 17q2 0 12 1q56 1 115 1q125 0 245 -1q21 -1 25 -1q32 0 39.5 -8t7.5 -39q0 -68 -6.5 -80t-34.5 -12z" />
    <glyph glyph-name="periodcentered" unicode="&#x2219;" horiz-adv-x="516" 
d="M256 535q46 0 78.5 -33t32.5 -78q0 -46 -32.5 -77.5t-78.5 -31.5q-45 0 -77 32t-32 77t32 78t77 33z" />
    <glyph glyph-name="euro" horiz-adv-x="1198" 
d="M764 487h-418q35 -188 144 -297.5t268 -109.5q125 0 237 49t197 141q6 0 8 2q1 0 1.5 -0.5t0.5 -3.5l1 -3.5t1 -6.5q0 -14 -3.5 -33.5t-6.5 -23.5q-88 -112 -205 -169t-260 -57q-213 0 -361.5 141.5t-183.5 370.5h-137q-12 0 -16 7.5t-4 31.5q0 29 6.5 35t40.5 6l102 1
q-1 6 -1.5 14t-0.5 24q0 28 1.5 56.5t4.5 58.5h-133q-12 0 -16 7.5t-4 31.5q0 28 7 34.5t40 6.5h119q50 256 212 406.5t398 150.5q102 0 203.5 -42t101.5 -85q0 -11 -22 -59q-15 -33 -23 -54q-7 -16 -18 -45q-18 -47 -29 -47q-13 0 -21.5 6.5t-9.5 18.5q0 2 5 22t5 37
q0 70 -59 119t-145 49q-151 0 -278 -132t-165 -345h524q14 0 18.5 -7t4.5 -28q0 -31 -7.5 -38t-51.5 -7h-498q-3 -36 -3.5 -53.5t-0.5 -34.5q0 -11 1 -32.5t1 -33.5h465q13 0 17.5 -7t4.5 -28q0 -31 -7 -37.5t-52 -7.5z" />
    <glyph glyph-name="euro" unicode="&#x20ac;" horiz-adv-x="1198" 
d="M764 487h-418q35 -188 144 -297.5t268 -109.5q125 0 237 49t197 141q6 0 8 2q1 0 1.5 -0.5t0.5 -3.5l1 -3.5t1 -6.5q0 -14 -3.5 -33.5t-6.5 -23.5q-88 -112 -205 -169t-260 -57q-213 0 -361.5 141.5t-183.5 370.5h-137q-12 0 -16 7.5t-4 31.5q0 29 6.5 35t40.5 6l102 1
q-1 6 -1.5 14t-0.5 24q0 28 1.5 56.5t4.5 58.5h-133q-12 0 -16 7.5t-4 31.5q0 28 7 34.5t40 6.5h119q50 256 212 406.5t398 150.5q102 0 203.5 -42t101.5 -85q0 -11 -22 -59q-15 -33 -23 -54q-7 -16 -18 -45q-18 -47 -29 -47q-13 0 -21.5 6.5t-9.5 18.5q0 2 5 22t5 37
q0 70 -59 119t-145 49q-151 0 -278 -132t-165 -345h524q14 0 18.5 -7t4.5 -28q0 -31 -7.5 -38t-51.5 -7h-498q-3 -36 -3.5 -53.5t-0.5 -34.5q0 -11 1 -32.5t1 -33.5h465q13 0 17.5 -7t4.5 -28q0 -31 -7 -37.5t-52 -7.5z" />
    </font>
</defs>
</svg>
